<svg id="support" xmlns="http://www.w3.org/2000/svg" width="121.68" height="121.68" viewBox="0 0 121.68 121.68">
  <path id="Path_2681" data-name="Path 2681" d="M163.784,47.083h-8.769a10.592,10.592,0,0,1-9.768-6.417,24.978,24.978,0,0,0-45.773,0,10.592,10.592,0,0,1-9.768,6.417H80.7A43.11,43.11,0,0,1,122.361,15a42.376,42.376,0,0,1,30.23,12.548A41.944,41.944,0,0,1,163.784,47.083Zm0,0" transform="translate(-61.521 -11.435)" fill="#90e36a"/>
  <path id="Path_2682" data-name="Path 2682" d="M297.424,47.083h-8.769a10.592,10.592,0,0,1-9.768-6.417A25.078,25.078,0,0,0,256,25.694V15a42.376,42.376,0,0,1,30.23,12.548,41.945,41.945,0,0,1,11.194,19.535Zm0,0" transform="translate(-195.16 -11.435)" fill="#70da40"/>
  <path id="Path_2683" data-name="Path 2683" d="M152.923,46.58V57.275l-3.565,7.13-3.565-7.13V46.58a39.332,39.332,0,1,0-78.664,0V57.275l-2.21,7.13L60,57.275V46.58A46.84,46.84,0,0,1,106.58,0c25.525,0,46.343,21.056,46.343,46.58Zm0,0" transform="translate(-45.741)" fill="#68544f"/>
  <path id="Path_2684" data-name="Path 2684" d="M302.343,46.58V57.275l-3.565,7.13-3.565-7.13V46.58A39.486,39.486,0,0,0,256,7.13V0C281.525,0,302.343,21.056,302.343,46.58Zm0,0" transform="translate(-195.16)" fill="#53433f"/>
  <path id="Path_2685" data-name="Path 2685" d="M306.648,368.13v3.8a10.707,10.707,0,0,1-10.694,10.694H274.565a3.565,3.565,0,0,0,0,7.13h21.389a17.845,17.845,0,0,0,17.824-17.824v-3.8L310.659,361Zm0,0" transform="translate(-206.595 -275.206)" fill="#53433f"/>
  <path id="Path_2686" data-name="Path 2686" d="M17.824,276.648h-7.13A10.7,10.7,0,0,1,0,265.954V251.694A10.7,10.7,0,0,1,10.694,241H21.389v32.083A3.565,3.565,0,0,1,17.824,276.648Zm0,0" transform="translate(0 -183.725)" fill="#90e36a"/>
  <path id="Path_2687" data-name="Path 2687" d="M431.932,276.648H421V241h10.932a10.7,10.7,0,0,1,10.694,10.694v14.259A10.7,10.7,0,0,1,431.932,276.648Zm0,0" transform="translate(-320.947 -183.725)" fill="#70da40"/>
  <path id="Path_2688" data-name="Path 2688" d="M164.04,235.2a15.015,15.015,0,0,0,8.349-13.507,10.694,10.694,0,0,0-21.389,0,3.565,3.565,0,1,0,7.13,0,3.565,3.565,0,0,1,7.13,0,7.925,7.925,0,0,1-4.408,7.13c-.713.615-9.852,3.53-9.852,14.259a3.563,3.563,0,0,0,3.565,3.565h14.259a3.565,3.565,0,0,0,0-7.13h-9.863C160.537,236.361,163.212,235.739,164.04,235.2Zm0,0" transform="translate(-115.114 -160.855)" fill="#725d57"/>
  <path id="Path_2689" data-name="Path 2689" d="M288.824,211a3.563,3.563,0,0,0-3.565,3.565v10.694h-7.13V214.565a3.565,3.565,0,1,0-7.13,0v14.259a3.563,3.563,0,0,0,3.565,3.565h10.695v10.695a3.565,3.565,0,1,0,7.13,0V214.565A3.563,3.563,0,0,0,288.824,211Zm0,0" transform="translate(-206.595 -160.855)" fill="#68544f"/>
  <path id="Path_2690" data-name="Path 2690" d="M221.694,422a10.694,10.694,0,1,0,10.694,10.694A10.679,10.679,0,0,0,221.694,422Zm0,0" transform="translate(-160.855 -321.709)" fill="#90e36a"/>
  <path id="Path_2691" data-name="Path 2691" d="M266.694,432.694A10.68,10.68,0,0,1,256,443.389V422A10.679,10.679,0,0,1,266.694,432.694Zm0,0" transform="translate(-195.16 -321.709)" fill="#70da40"/>
</svg>
