<?xml version="1.0" encoding="utf-8"?>
<!-- Generator: Adobe Illustrator 17.0.0, SVG Export Plug-In . SVG Version: 6.00 Build 0)  -->
<!DOCTYPE svg PUBLIC "-//W3C//DTD SVG 1.0//EN" "http://www.w3.org/TR/2001/REC-SVG-20010904/DTD/svg10.dtd">
<svg version="1.0" id="Layer_1" xmlns="http://www.w3.org/2000/svg" xmlns:xlink="http://www.w3.org/1999/xlink" x="0px" y="0px"
	 width="512px" height="512px" viewBox="0 0 512 512" enable-background="new 0 0 512 512" xml:space="preserve">
<g>
	<polygon fill-rule="evenodd" clip-rule="evenodd" fill="#007E00" points="57.195,443.431 83.888,145.915 334.902,119.217 
		356.86,477.656 	"/>
	<path fill-rule="evenodd" clip-rule="evenodd" fill="#007E00" d="M57.195,443.431l299.665,34.225L57.195,443.431z"/>
	<polygon fill-rule="evenodd" clip-rule="evenodd" fill="#FF6008" points="334.902,119.217 354.434,135.502 400.127,442.92 
		356.86,477.656 	"/>
	<polygon fill-rule="evenodd" clip-rule="evenodd" fill="#EB5401" points="352.532,133.967 389.038,119.101 454.805,439.113 
		396.88,445.691 	"/>
	<path fill-rule="evenodd" clip-rule="evenodd" fill="#FF6008" d="M221.235,131.307c0,0,7.967-70.355,55.328-77.172
		c0,0,57.302-12.232,70.092,74.972l-11.754-9.889l-7.456,0.793c0,0-12.719-52.336-42.499-49.645
		c-29.78,2.691-40.686,36.932-45.978,59.055L221.235,131.307z"/>
	<polygon fill-rule="evenodd" clip-rule="evenodd" fill="#006000" points="57.195,443.431 334.902,119.217 356.86,477.656 	"/>
	<path fill-rule="evenodd" clip-rule="evenodd" fill="#007E00" d="M141.669,141.609c0,0-10.586-87.369,54.715-105.309
		s83.488,93.446,83.241,91.134c-0.246-2.312-16.656,3.393-16.864,1.435c-0.208-1.958-7.534-76.065-53.819-78.577
		c-46.285-2.512-53.82,76.782-50.95,91.852C160.863,157.215,141.669,141.609,141.669,141.609"/>
	<path fill="#FFFFFF" d="M239.679,198.891c-7.425,3.96-14.974,11.22-22.647,21.822c-7.672,10.643-14.974,22.853-21.904,36.672
		c5.115,0.99,10.23,2.186,15.345,3.589c5.115,1.402,10.065,3.094,14.85,5.074L239.679,198.891z M204.038,366.946l19.058-89.844
		c-6.27-2.805-12.004-4.868-17.202-6.188c-5.197-1.32-10.519-2.227-15.964-2.722c-4.62,10.065-8.91,20.419-12.87,31.062
		c-3.96,10.643-7.342,20.914-10.147,30.814c-2.805,9.9-5.032,19.181-6.683,27.844c-1.65,8.663-2.475,16.129-2.475,22.399
		c0,4.785,0.371,8.168,1.114,10.148c0.742,1.98,1.526,3.547,2.351,4.703c-3.3,0-6.889-0.165-10.766-0.495
		c-3.877-0.33-7.466-1.32-10.767-2.97c-3.3-1.65-6.064-4.249-8.291-7.796c-2.228-3.547-3.341-8.539-3.341-14.974
		c0-5.61,0.866-12.21,2.599-19.8c1.732-7.59,4.207-15.799,7.425-24.627c3.218-8.828,7.054-18.067,11.509-27.72
		c4.455-9.653,9.405-19.181,14.85-28.587c-7.755,0.495-14.107,1.691-19.058,3.547c-4.95,1.897-8.25,4.95-9.9,9.199
		c0.66,0,1.361,0.825,2.104,2.475c0.743,1.65,1.114,3.342,1.114,5.156c0,2.929-1.361,5.28-4.084,7.012
		c-2.723,1.691-5.982,2.558-9.777,2.558c-4.29,0-7.92-1.197-10.89-3.589c-2.97-2.393-4.455-5.981-4.455-10.766
		c0-4.125,1.279-8.044,3.836-11.757c2.558-3.713,6.064-6.971,10.519-9.776c4.455-2.805,9.735-4.991,15.84-6.559
		c6.105-1.568,12.705-2.351,19.801-2.351c3.63,0,8.085,0.247,13.365,0.743c6.27-9.859,12.911-19.182,19.924-28.009
		c7.013-8.787,14.232-16.501,21.657-23.183c7.425-6.641,14.932-11.922,22.523-15.758c7.59-3.877,15.098-5.816,22.523-5.816
		c2.475,0,5.527,0.247,9.158,0.743c3.63,0.495,6.93,1.402,9.9,2.722l-38.858,182.163H204.038z"/>
</g>
</svg>
