<svg xmlns="http://www.w3.org/2000/svg" width="197.298" height="34.604" viewBox="0 0 197.298 34.604">
  <g id="almudabir_logo" transform="translate(-11.833 -45.019)">
    <g id="Group_1398" data-name="Group 1398" transform="translate(47.853 51.43)">
      <path id="Path_2047" data-name="Path 2047" d="M54.31,72.687h6.818L64.42,64.7c.543-1.354,1.136-2.678,1.616-4.022.4-1.112,1.27-3.258,2.616-3.258,1.962,0-.834,5.45-1.612,7.548l-2.306,6.166c-.75,1.963-1.494,1.55,6.035,1.55.8,0,1.469-2.245,2.018-3.621l3.389-8.357c2.014-5.073,3.757-3.27,3.347-1.852C78.9,61,74.673,70.943,74.528,72.686h6.818a29.216,29.216,0,0,1,1.478-3.925c.549-1.367.962-2.525,1.51-3.893.929-2.314,2.888-6.46,2.888-8.856,0-4.3-6.031-4.977-9.832-3.95-5.234,1.414-.775.779-5.116-.141-2.732-.579-6.055-.371-9.032-.371-1.039,0-1.843,3.227-2.589,4.928-.764,1.738-1.436,3.481-2.18,5.338-.705,1.763-4.062,9.655-4.164,10.872" transform="translate(-26.568 -47.252)" fill="#f06122" fill-rule="evenodd"/>
      <path id="Path_2048" data-name="Path 2048" d="M22.481,72.244h7.288A20.483,20.483,0,0,1,30.788,69.5c.413-.918.7-1.838,1.1-2.662h2.586c-.4,1.733-1.746,3.785-1.881,5.4h7.053c.468-2,7.288-16.826,7.288-18.786,0-2,.008-3.368-2.121-4.457-2.59-1.327-10.144-1.518-12.877,1.218C30.455,51.7,30,53.359,29.265,55.3c-.244.643-.532,1.2-.841,1.978l-4.463,11.04a27.481,27.481,0,0,0-1.48,3.922M37.057,60.268H34.707l1.254-3.445c.465-1.045.9-2.661,2.272-2.661,1.664,0,.513,2.02.2,2.784C37.978,58.062,37.626,59.194,37.057,60.268Z" transform="translate(-22.481 -46.809)" fill="#007f00" fill-rule="evenodd"/>
      <path id="Path_2049" data-name="Path 2049" d="M153.482,72.07H165c6.023,0,7.692-4.858,9.609-10.128.992-2.728,3.1-7.743-.77-10.209a10.953,10.953,0,0,0-2.194-.861,16.066,16.066,0,0,0-3.119-.172c1-4.306,3.749-3.992-3.057-3.992-3.121,0-3.464,2.648-4.466,5.167L153.261,70.7c-.309.7-.789,1.368.221,1.368M164.228,66.9a2.579,2.579,0,0,1-1.341-.229c-.74-.584.889-4.015,1.7-6.052.782-1.965,1.292-4.046,3-4.046,2.018,0-.153,3.893-.84,5.737S165.491,66.45,164.228,66.9Z" transform="translate(-39.224 -46.634)" fill="#f16021" fill-rule="evenodd"/>
      <path id="Path_2050" data-name="Path 2050" d="M133.881,67.525c0,6.473,6.569,5.167,13.871,5.167.835,0,.977-1.14,1.444-2.315,1.714-4.308,4.04-9.449,5.579-13.683,2.034-5.6,3.48-5.136-1.616-5.136-2.911,0-2.755.772-3.49.769a9.955,9.955,0,0,0-7.489.241c-3.166,1.479-4.8,4.653-5.978,7.884-.522,1.437-2.322,5.5-2.322,7.075m8.464-.234c-1.725,0-.86-1.277.771-5.335.923-2.3,1.177-4.293,2.99-4.293,1.965,0-.893,5.415-1.972,8.128C143.774,66.7,143.518,67.291,142.345,67.291Z" transform="translate(-36.786 -47.257)" fill="#f06122" fill-rule="evenodd"/>
      <path id="Path_2051" data-name="Path 2051" d="M44.06,72.065h7.053A68,68,0,0,1,53.6,65.622l7.287-17.653c.678-1.637.356-1.266-4.364-1.266-2.933,0-3.3,2.357-4.365,5.033-.911,2.282-1.787,4.406-2.754,6.642-.689,1.592-5.316,12.559-5.341,13.686" transform="translate(-25.252 -46.63)" fill="#007f00" fill-rule="evenodd"/>
      <path id="Path_2052" data-name="Path 2052" d="M185.131,72.684h6.818l6.112-15.029c2.359,0,2.587-.822,3.82-2.055.811-.81,2.471-2.022,2.763-3.112-2.355-.548-2.437-.939-5.877-.939-6.244,0-4.739-.981-7.086,4.9-.7,1.758-1.426,3.438-2.182,5.334l-3.269,8.006a15.706,15.706,0,0,0-1.1,2.9" transform="translate(-43.367 -47.249)" fill="#f06122" fill-rule="evenodd"/>
      <path id="Path_2053" data-name="Path 2053" d="M175.15,72.678h6.818c1.219-2.3,5.209-12.69,6.447-15.635.5-1.182,1.99-4.289,2.017-5.5-8.017,0-6.234-1.262-8.7,4.931Z" transform="translate(-42.085 -47.242)" fill="#f06122" fill-rule="evenodd"/>
      <path id="Path_2054" data-name="Path 2054" d="M185.67,49.516h7.053c.262-1.126.677-1.692.94-2.818-4.262,0-7.151-.793-7.993,2.818" transform="translate(-43.436 -46.624)" fill="#f06122" fill-rule="evenodd"/>
      <path id="Path_2055" data-name="Path 2055" d="M106.337,51.544a.834.834,0,0,0-.207.028,1.026,1.026,0,0,0-.693.571,1.826,1.826,0,0,0-.151.315l-.021.056c-.018.045-.035.092-.052.138l-.489,1.281,0,0-2.332,5.78-.01.025-2.026,4.736-.016.034c-1,2.278-2.345,2.677-2.827,2.042a.7.7,0,0,1-.088-.235c0-.01,0-.021,0-.032s0-.027,0-.039a2.772,2.772,0,0,1,.056-.642c.453-2.16,3.147-8.3,4.322-11.842l.007-.018c.1-.286.18-.552.248-.795a6.268,6.268,0,0,0,.293-1.4c-8.47,0-5.97-1.536-9.6,7.548-.65,1.625-3.09,7.293-3.09,8.655,0,6.112,8.189,4.931,14.106,4.931.746,0,.642-.377.891-.989l6.075-15.066C112.873,50.509,114.849,51.544,106.337,51.544Z" transform="translate(-31.106 -47.243)" fill="#f06122" fill-rule="evenodd"/>
      <path id="Path_2056" data-name="Path 2056" d="M119.8,66.848c1.625.192,2.344-2.626,3.236-5.088.336-.928.67-1.62,1.083-2.623.319-.777,1.051-2.571-.405-2.571-1.629,0-2.388,2.715-3.093,4.47s-2.025,4.069-1.488,5.5c.088.236.667.307.667.307m8.617-15.917c.506-2.172,1.32-4.227,4-4.227,4.5,0,4.8-.354,4.129,1.266l-8.794,21.314c-.6,1.483-.886,2.782-1.682,2.782h-8.7c-3.024,0-5.877-1.259-5.877-4.227,0-3.069.648-3.681,1.618-6.368a45.05,45.05,0,0,1,2.061-4.985C118.963,49.028,124.491,50.931,128.42,50.931Z" transform="translate(-33.911 -46.63)" fill="#f06122" fill-rule="evenodd"/>
      <path id="Path_2057" data-name="Path 2057" d="M120.09,67.683s-.557,1.959.974,1.861l.014.359a6.071,6.071,0,0,1-1.018.146,6.159,6.159,0,0,1-.866-1.074,9.927,9.927,0,0,1,.187-1.3c.068-.09.709.01.709.01" transform="translate(-34.9 -49.322)" fill="#f06122" fill-rule="evenodd"/>
    </g>
    <g id="Group_1399" data-name="Group 1399" transform="translate(11.833 45.019)">
      <path id="Path_2058" data-name="Path 2058" d="M107.317,45.9,109.4,22.676l19.593-2.083,1.715,27.978Z" transform="translate(-107.317 -13.967)" fill="#007e00" fill-rule="evenodd"/>
      <path id="Path_2059" data-name="Path 2059" d="M107.317,44.547l23.391,2.672Z" transform="translate(-107.317 -12.615)" fill="#007e00" fill-rule="evenodd"/>
      <path id="Path_2060" data-name="Path 2060" d="M127.835,20.593l1.524,1.271,3.567,24-3.376,2.712Z" transform="translate(-106.159 -13.967)" fill="#ff6008" fill-rule="evenodd"/>
      <path id="Path_2061" data-name="Path 2061" d="M129.138,21.745l2.849-1.161,5.133,24.979-4.521.513Z" transform="translate(-106.085 -13.968)" fill="#eb5401" fill-rule="evenodd"/>
      <path id="Path_2062" data-name="Path 2062" d="M119.437,21.81s.622-5.491,4.319-6.024c0,0,4.473-.955,5.471,5.852l-.917-.772-.582.062s-.993-4.085-3.317-3.875-3.176,2.883-3.589,4.609Z" transform="translate(-106.633 -14.241)" fill="#ff6008" fill-rule="evenodd"/>
      <path id="Path_2063" data-name="Path 2063" d="M107.317,45.9l21.676-25.306,1.715,27.978Z" transform="translate(-107.317 -13.967)" fill="#006000" fill-rule="evenodd"/>
      <path id="Path_2064" data-name="Path 2064" d="M113.561,22.694s-.826-6.819,4.271-8.22,6.516,7.294,6.5,7.113-1.3.265-1.316.112-.588-5.937-4.2-6.134-4.2,5.993-3.976,7.169-1.275-.04-1.275-.04" transform="translate(-106.967 -14.321)" fill="#007e00" fill-rule="evenodd"/>
      <path id="Path_2065" data-name="Path 2065" d="M121.343,26.552a5.581,5.581,0,0,0-1.767,1.7,20.9,20.9,0,0,0-1.709,2.862q.6.116,1.2.28a9.9,9.9,0,0,1,1.159.4ZM118.56,39.67l1.487-7.013a8.348,8.348,0,0,0-1.343-.483,7.864,7.864,0,0,0-1.246-.212q-.54,1.179-1,2.425t-.792,2.406q-.328,1.158-.522,2.173a9.54,9.54,0,0,0-.193,1.748,2.511,2.511,0,0,0,.087.792,1.612,1.612,0,0,0,.184.367q-.387,0-.84-.039a2.3,2.3,0,0,1-.84-.231,1.625,1.625,0,0,1-.648-.609,2.194,2.194,0,0,1-.261-1.168,7.077,7.077,0,0,1,.2-1.546,16.139,16.139,0,0,1,.58-1.923q.377-1.033.9-2.164t1.159-2.231a5.282,5.282,0,0,0-1.488.277,1.249,1.249,0,0,0-.772.718c.052,0,.107.064.164.193a.961.961,0,0,1,.087.4.624.624,0,0,1-.319.547,1.417,1.417,0,0,1-.763.2,1.312,1.312,0,0,1-.85-.28,1.016,1.016,0,0,1-.348-.84,1.6,1.6,0,0,1,.3-.918,2.768,2.768,0,0,1,.821-.763,4.337,4.337,0,0,1,1.236-.512,6.194,6.194,0,0,1,1.546-.184q.425,0,1.043.058a25.569,25.569,0,0,1,1.555-2.186,15.077,15.077,0,0,1,1.69-1.81,8.211,8.211,0,0,1,1.758-1.23,3.847,3.847,0,0,1,1.758-.454,5.387,5.387,0,0,1,.715.058,2.869,2.869,0,0,1,.772.212l-3.03,14.218Z" transform="translate(-107.099 -13.708)" fill="#fff"/>
    </g>
  </g>
</svg>
