<svg id="Group_1490" data-name="Group 1490" xmlns="http://www.w3.org/2000/svg" width="1920" height="1147.273" viewBox="0 0 1920 1147.273">
  <rect id="Rectangle_872" data-name="Rectangle 872" width="1920" height="1147" fill="#fff"/>
  <path id="Path_2155" data-name="Path 2155" d="M1948.871-1H1182.8c-3.067,0-25.6,61.81-27.228,65.34-31.869,69.047-69.733,134.491-109.74,197.95-30.741,48.759-62.282,97.22-95.172,144.2-57.06,109.426-90.43,234.853-79.671,362.769,11.1,131.929,75.855,238.971,177.128,308.369,101.588,69.616,224.322,90.439,337.285,43.124,52.8-22.115,110.024-54.51,154.889-92.948,14.032-9.636,25.583-23.051,39.831-32.646a450.751,450.751,0,0,1,105.4-51.845c84.947-28.762,179.57-20.114,263.345,15.833V-1Z" transform="translate(-28.984 1.001)" fill="#e3fce3" opacity="0.6"/>
</svg>
