<svg xmlns="http://www.w3.org/2000/svg" width="1079.888" height="1081.243" viewBox="0 0 1079.888 1081.243">
  <path id="Path_2155" data-name="Path 2155" d="M1948.871-1H1182.8c-3.067,0-25.6,58.253-27.228,61.579-31.869,65.073-69.733,126.751-109.74,186.557-30.741,45.953-62.282,91.625-95.172,135.9-57.06,103.128-90.43,221.336-79.671,341.89,11.1,124.336,75.855,225.217,177.128,290.621,101.588,65.609,224.322,85.234,337.285,40.642,52.8-20.842,110.024-51.373,154.889-87.6,14.032-9.081,25.583-21.724,39.831-30.767,32.383-20.553,69.263-37.328,105.4-48.861,84.947-27.107,179.57-18.956,263.345,14.922V-1Z" transform="translate(-868.984 1.001)" fill="#e3fce3" opacity="0.6"/>
</svg>
