<svg xmlns="http://www.w3.org/2000/svg" width="812.542" height="820.132" viewBox="0 0 812.542 820.132">
  <g id="Group_1417" data-name="Group 1417" transform="translate(-987.02 -112.942)">
    <path id="Path_2194" data-name="Path 2194" d="M1799.21,551.52a6.576,6.576,0,0,1-.713,2.4c-.315.672-.56,1.387-.9,2.054a15.753,15.753,0,0,1-4.3,5.283,16.778,16.778,0,0,1-10.237,3.318c-2.552.022-5.126-.363-7.658.274a3.372,3.372,0,0,1-2.589.034,23.806,23.806,0,0,0-3.994-.121q-73.476-.009-146.953-.006c-5.566,0-5.607-.039-5.608-5.514q0-32.239-.011-64.479c-.017-10.964,3.323-20.731,10.752-28.8a39.175,39.175,0,0,1,24.585-12.667,89.833,89.833,0,0,1,11.218-.55q65.6.024,131.208.02c1.571,0,3.172-.222,4.7.389a1.112,1.112,0,0,1,.57.756c.052,31.4.005,62.8.035,94.2C1799.32,549.226,1799.32,550.382,1799.21,551.52Z" fill="#13a449"/>
    <path id="Path_2195" data-name="Path 2195" d="M987.022,754.065c1.915-2,2.935-4.584,4.389-6.883,16.472-26.05,39.453-43.037,69.578-50.109,2.658-.624,5.279-1.491,8.056-1.483.994.386,1.183,1.331,1.478,2.18,4.278,12.317,9.272,24.343,14.676,36.2a3.741,3.741,0,0,1,.593,2.606c-2.414,2.953-5.479,5.26-7.906,8.238-8.876,10.894-14.447,23.021-14.742,37.3-.042,2.016.991,3.88.579,5.9-.769.889-1.9.974-2.921,1.263a57.939,57.939,0,0,0-17.443,8.418,4.691,4.691,0,0,0-2.081,5.152c1.06,6.41,4.556,11.349,9.348,15.469a45.772,45.772,0,0,0,9.964,6.595,3.678,3.678,0,0,1,2.1,1.671,2.4,2.4,0,0,1-.979,1.918,21.21,21.21,0,0,0-6.668,13.726,1.73,1.73,0,0,1-.408.889c-4.92.095-8.7-2.443-12.164-5.488-6.7-5.885-10.047-13.751-12.684-22.005a9.1,9.1,0,0,0-.709-2.119c-.039-.064-.131-.095-.321-.225a42.6,42.6,0,0,0-6.459,13.376c-5.594,19.039-2.531,36.517,9.577,52.351a3.5,3.5,0,0,0,4.316,1.369c6.808-2,11.286-6.779,15.109-12.405,2.7-3.967,4.2-8.484,6.061-12.838.456-.3.793-.064,1.047.287a22.745,22.745,0,0,0,14.911,9.612,1.688,1.688,0,0,1,.854.493c.509,2.019-.415,3.755-1.175,5.483-3.361,7.641-9.6,12.4-16.609,16.331a78.053,78.053,0,0,1-10.005,4.622,53.483,53.483,0,0,0,20.051,7.739c16.266,2.59,31.065-.956,44.345-10.824a5.79,5.79,0,0,0,2.45-6.258,23.365,23.365,0,0,0-8.335-14.384,45.56,45.56,0,0,0-11.191-7c-.907-.4-1.911-.668-2.341-1.719a2.415,2.415,0,0,1,.823-1.739,19.4,19.4,0,0,0,5.2-13.516,3.7,3.7,0,0,1,.439-2.148c1.91-.922,3.571.136,5.192.808,6.221,2.58,10.61,7.264,14.271,12.746a70.109,70.109,0,0,1,7.759,16.551,19.886,19.886,0,0,0,2.967-5.13,57.851,57.851,0,0,0,4.433-15.782,4.2,4.2,0,0,1,1.147-2.94,17.683,17.683,0,0,1,8.651,2.556,4.35,4.35,0,0,1,.263,2.921,66.949,66.949,0,0,1-132.39-.039c-2.9-19.725,2.191-37.452,14.882-52.942,6.519-7.957,14.667-13.714,23.7-18.112a117.246,117.246,0,0,1-30.218-6.5c-7.124-2.959-14.111-6.171-20.48-10.608-2.8-1.95-5.293-4.25-7.905-6.415a11.771,11.771,0,0,1-3.066-4.167C987.022,754.732,987.022,754.4,987.022,754.065Z" fill="#b6b1af"/>
    <path id="Path_2196" data-name="Path 2196" d="M1018.59,775.574a118.027,118.027,0,0,0,32.987,6.68,67.659,67.659,0,0,0-16.077,9.358c-14.413,11.6-22.984,26.477-25.014,44.968a64.17,64.17,0,0,0,13.045,47.361c10.457,13.767,24.3,22.371,41.416,25.122,23.682,3.808,43.949-3.154,60.33-20.643a62.478,62.478,0,0,0,16.793-37.311,2.308,2.308,0,0,1,2.357-.326c6.1,1.351,12.24,2.52,18.4,3.551,1.23.206,2.38.545,1.791,2.238-5.983,38.971-35.276,68.85-73.887,75.388-2.073.351-4.244.169-6.21,1.114h-1a6.507,6.507,0,0,0-4,0h-6.5c-.832-.525-1.754-.138-2.626-.258h-2.72c-8.735.091-16.934-2.337-24.9-5.57-21.241-8.621-36.994-23.318-47.205-43.773-4.931-9.878-8.307-20.313-8.3-31.563q0-1.395,0-2.788c-.129-1.181.289-2.4-.258-3.553v-3a6.507,6.507,0,0,0,0-4v-3a79.479,79.479,0,0,1,3.892-19.98,91.121,91.121,0,0,1,23.441-36.992A12.435,12.435,0,0,1,1018.59,775.574Z" fill="#575453"/>
    <path id="Path_2197" data-name="Path 2197" d="M1704.12,849.568c-.046.456-.106.912-.183,1.368q-.22,1.289-.377,2.588a10.713,10.713,0,0,0-.158,1.256c-.166,1.351-.327,2.7-.519,4.051-.108.756-.225,1.511-.358,2.264a83.757,83.757,0,0,1-2.7,11.121,72.06,72.06,0,0,1-4.312,10.453,91.09,91.09,0,0,1-5.733,9.692c-2.07,3.074-4.29,6.047-6.631,8.92a105.04,105.04,0,0,1-7.268,8.084,70.689,70.689,0,0,1-8.237,7.084,65.4,65.4,0,0,1-9.9,5.914,96.737,96.737,0,0,1-11.954,4.764c-4.475,1.482-9.021,2.74-13.573,3.96-1.106.3-2.241.707-3.369.9a55.622,55.622,0,0,1-10.487,1.042c-3.61-.068-7.263.2-10.863-.094a53.229,53.229,0,0,1-5.816-.935,125.945,125.945,0,0,1-22.478-6.4,72.816,72.816,0,0,1-18.581-10.889,102.283,102.283,0,0,1-15.236-15.26,81.855,81.855,0,0,1-11.438-18.3,109.781,109.781,0,0,1-6.063-19.354,54.719,54.719,0,0,1-1.145-5.949c-.346-2.812-.826-5.735-.962-8.554-.068-1.412-.44-4.007.37-5.289.594-.941,2.393-.716,3.34-.705,6.305.075,12.617-.349,18.91.242,1.726.768,1.306,2.365,1.3,3.7a58.843,58.843,0,0,0,7.02,28.577c10.455,19.561,26.687,31.561,48.63,34.857,19.905,2.99,37.8-2.248,53.08-15.618,12.805-11.2,19.859-25.419,21.876-42.22.258-2.151.026-4.328.114-6.491.043-1.061-.065-2.23,1.221-2.769,6.9-.614,13.8-.256,20.7-.2a1.926,1.926,0,0,1,2.054,1.867,6.926,6.926,0,0,1-.041.934c-.056.755-.045,1.51-.064,2.266C1704.26,847.487,1704.22,848.528,1704.12,849.568Z" fill="#575453"/>
    <path id="Path_2198" data-name="Path 2198" d="M1585.5,395.9c.48-11.3,10.318-20.922,21.925-21.447,5.822-.328,11.648-.085,17.472-.127a.678.678,0,0,1,.65.467c-.536,1.03-1.7,1.09-2.652,1.444-12.835,4.777-16.995,19.7-8.315,30.277,3.768,4.592,8.971,6.44,14.783,6.754.915.049,1.832.021,2.748.021q72.088,0,144.178.035c6.065.008,11.558-1.216,16.142-5.412a2.326,2.326,0,0,1,2-.827,48.929,48.929,0,0,1,4.632,16.249c.075.582-.388,1.356.5,1.712v.5c-.547,1.85-.107,3.746-.265,5.612-.074.875.3,1.814-.346,2.616a4.422,4.422,0,0,1-2.645.561q-10.991.041-21.98,0a5.862,5.862,0,0,1-2.445-.389c-.931-.542-.942-1.488-1.01-2.392-.074-.992-.029-1.988-.039-2.982-.046-4.6-1.213-5.782-5.711-5.8-1.243-.005-2.486-.021-3.729.006-3.523.079-4.888,1.423-5.079,5.005-.062,1.158.016,2.321-.052,3.479-.058.979,0,2.025-1,2.667a8.757,8.757,0,0,1-3.695.426q-51.222.012-102.443,0a9.669,9.669,0,0,1-3.7-.382c-.958-.513-.984-1.459-1.061-2.367-.071-.828-.029-1.66-.046-2.491-.1-5.08-1.36-6.336-6.355-6.343-1.329,0-2.66-.05-3.986.024-2.789.156-4.011,1.394-4.17,4.222-.079,1.41.02,2.825-.054,4.235-.052.982.005,2.029-1,2.674a7.392,7.392,0,0,1-3.195.427q-18.116.018-36.229,0c-.666,0-1.332-.016-2-.076-1.339-.121-2.064-.636-2.057-2.188.057-11.826.012-23.653.036-35.48A2.536,2.536,0,0,1,1585.5,395.9Z" fill="#0d6e30"/>
    <path id="Path_2199" data-name="Path 2199" d="M1609.05,933.074a2.244,2.244,0,0,1,3,0Z" fill="#575453"/>
    <path id="Path_2200" data-name="Path 2200" d="M1618.05,933.074a1.689,1.689,0,0,1,2.5,0Z" fill="#575453"/>
    <path id="Path_2201" data-name="Path 2201" d="M1462.96,313.069c-.061,1.5.936.971,1.679.855,3.868-.6,5.477.661,5.623,4.532a55.457,55.457,0,0,1-.019,5.992,2.842,2.842,0,0,0,1.855,3.063c9.944,5.266,19.468,11.171,27.984,18.6a44.16,44.16,0,0,1,11.765,15.589c13.319,30.26,25.921,60.8,36.557,92.124,3.887,11.446.61,21.2-7.7,29.547-.214.215-.613.377-.172.74,0,.251-.008.56-.259.647-3.949,1.363-6.143,4.678-7.886,8-4.825,9.2-12.41,15.15-21.652,19.159-9.175,3.98-18.1,8.5-27.288,12.437a101.735,101.735,0,0,1-37.324,8.4c-2.4.07-4.764.861-7.194.122-1.745-.53-3.453-1.1-3.725-3.183-.264-2.015,1.1-3.209,2.612-4.2a12.777,12.777,0,0,1,3.967-1.469c14.691-3.785,29.178-8.262,43.611-12.916a117.29,117.29,0,0,0,10.911-4.351,15.337,15.337,0,0,0,6.939-5.541c.649-.989,1.311-2.059.751-3.256-.6-1.276-1.91-1.144-3.067-1.2-5.836-.284-11.631.786-17.472.5-4.489-.22-8.571-1.414-11.688-4.819-3.043-3.324-3.187-7.6-3.379-11.751-.483-10.445.751-20.776,2.159-31.106a130.4,130.4,0,0,0,.9-30.137c-.285-2.969-.033-5.973-.386-8.946.633-5.2,1.589-10.363,2.045-15.59,1.075-12.315,1.587-24.605-1.763-36.7-1.353-4.886-3.387-9.406-7.284-12.857a9.627,9.627,0,0,0-4.908-2.586c9.445,5.014,11.7,14.078,13.019,23.427,1.866,13.208.683,26.386-1.251,39.51-.216,1.463-.775,2.926-.209,4.432a8.327,8.327,0,0,1,.33,5.1c-2.746,18.39-6.068,36.665-11.328,54.533a109.821,109.821,0,0,1-6.375,16.808,12.953,12.953,0,0,1-7.869,6.829,95.582,95.582,0,0,1-19.257,4.2,39.414,39.414,0,0,0-6.484,1.576c-2.165-.62-4.31,0-6.442.175-11.253.941-22.511,1.691-33.8,2.057s-22.563.9-33.857.921c-3.063.007-5.551-.889-7.073-3.72a22.791,22.791,0,0,1-2.616-9.818c-.2-2.9-.477-5.8-.622-8.707.094-2.633-.362-5.4,1.874-7.5a19.415,19.415,0,0,1,8.765-7.838c12.2-5.857,25.179-9.443,38.106-13.158,7.106-2.042,14.322-3.7,21.494-5.507.729-.184,1.557-.176,1.843-1.035,1.06-3.18,3.707-4.81,6.323-6.429a4.08,4.08,0,0,0,1.957-2.662c3.149-11.576,5.155-23.38,7.093-35.2a39.166,39.166,0,0,0,.189-5.981c.04-5.08.049-10.16.07-15.24a15.782,15.782,0,0,1,2.238-4.669,34.672,34.672,0,0,0,5.578-11.879,58.155,58.155,0,0,1,4.884-12.253,14.759,14.759,0,0,1,8.1-7.391,23.569,23.569,0,0,0,9.006-5.489,77.7,77.7,0,0,1,7.735-6.29c.592-.443,1.358-.938,1.144-1.778-.251-.985-1.258-.955-2.065-1.055a11.061,11.061,0,0,0-3.946.415,23.441,23.441,0,0,1-7.133,1c-.817-.059-1.82.045-2.156-.892-.344-.96.51-1.493,1.154-2,3.39-2.68,6.778-5.355,10.022-8.221a17.379,17.379,0,0,0,4.448-5.29C1462.23,313.371,1462.45,313.018,1462.96,313.069Z" fill="#13a449"/>
    <path id="Path_2202" data-name="Path 2202" d="M1482.5,814.034c-3.711,7.061-6.5,14.641-11.444,21.009a46.806,46.806,0,0,1-33.954,18.608c-4,.374-7.978.315-11.965.317-54.32.02-108.64.153-162.959-.059a92.94,92.94,0,0,1-54.871-17.77c-.665-.476-1.27-1.113-2.209-.99-7.32-4.964-13.2-11.385-18.632-18.282a102.33,102.33,0,0,1-10.033-16.091q-15.519-29.665-31.089-59.3c-4.082-7.733-8.1-15.5-12.153-23.251-3.241-6.2-6.5-12.392-9.717-18.6-.756-1.458-2.2-2.135-2.947-3.49,1.056-.028,1.8-.157,1.046-1.537-1.252-2.3-2.374-4.665-3.551-7,.135-1.744,1.731-2.095,2.837-2.787,5.7-3.567,11.462-7.049,17.381-10.25,11.924-6.448,24.065-12.41,37.092-16.366a66.9,66.9,0,0,1,10.188-2.345c1.092-.153,2.172-.291,2.944.775,2.042,4.579,3.252,9.444,4.75,14.2,5.681,18.044,11.966,35.876,18.64,53.568,7,18.556,14.515,36.905,23.656,54.532,4.49,8.657,9.345,17.11,15.555,24.7a46.018,46.018,0,0,0,5.59,5.706,16.206,16.206,0,0,0,11.165,4.121c32.074-.152,64.149-.017,96.228-.113q10.046-.126,20.085-.01c25.948-.148,51.9-.027,77.843-.065,5.655-.008,11.311-.02,16.966.013C1480.17,813.272,1481.46,813.082,1482.5,814.034Z" fill="#b6b1af"/>
    <path id="Path_2203" data-name="Path 2203" d="M1685.53,112.942l8.552.013c33.924,1.906,59.3,25.837,63.634,59.644,1.916,14.961-1.266,28.972-6.965,42.567a229.346,229.346,0,0,1-44.986,69.05,57.3,57.3,0,0,1-11.055,9.313,8.178,8.178,0,0,1-9.567-.008c-6.173-3.96-11.238-9.127-15.987-14.61-17.738-20.478-32.138-43.01-41.89-68.391-6.914-18-8.113-36.217-1.106-54.357,9.571-24.779,28-38.736,54.158-42.671C1682.04,113.232,1683.79,113.121,1685.53,112.942Z" fill="#13a449"/>
    <path id="Path_2204" data-name="Path 2204" d="M1538.84,548.385c2.842,10.629,4.549,21.313,1.229,32.164a37.624,37.624,0,0,1-8.483,15.019c-.911,1.541-2.458,1.19-3.817,1.194-10.743.037-21.488.125-32.23-.009-11.907-.148-23.817.009-35.7.6-26.765,1.339-53.236,4.662-78.774,13.369a107.629,107.629,0,0,0-18.481,8.179c-8.4,4.769-15.908,10.455-18.449,20.536-2.661,3.528-3.316,7.741-3.871,11.93-1.412,10.671-.334,21.293,1.12,31.857a256.315,256.315,0,0,0,10.765,46.194c2.3,6.887,4.981,13.595,9.381,19.515a22.887,22.887,0,0,1,4.683,12.467c.309,5.287-2.284,9.268-5.781,12.791-1.467,1.478-3.407,1.372-5.44-.244a82.607,82.607,0,0,1-7.64-6.817,43.974,43.974,0,0,0-6.047-5.591,18.017,18.017,0,0,0-5.854-2.7,11.844,11.844,0,0,1-2.805-4.081c-9.9-18.839-18.27-38.317-24.124-58.807a182.167,182.167,0,0,1-6.823-36.49,98.567,98.567,0,0,1,2.555-31.178,19.921,19.921,0,0,1,1.172-3.55c4.713-13.811,13.7-24.652,24.208-34.348a158.688,158.688,0,0,1,30.3-21.475c17.656-9.911,36.345-17.359,55.615-23.434,1.182-.373,2.338-.934,3.646-.623,13.109,3.9,26.551,5.339,40.165,6.033,12.5.637,24.984.373,37.472.351a226.426,226.426,0,0,0,38.53-3.263C1536.53,547.771,1537.82,547.106,1538.84,548.385Z" fill="#454443"/>
    <path id="Path_2205" data-name="Path 2205" d="M1343.56,639.566c2.163-10.913,10.327-16.608,19.129-21.519,13.7-7.644,28.66-11.78,43.9-14.99,8.34-1.757,16.753-3.039,25.221-4.049,12.36-1.474,24.748-2.127,37.187-2.564,19.73-.693,39.452-.085,59.175-.374a6.615,6.615,0,0,0,3.409-.5c.292.948,1.095.574,1.672.575q37.525.027,75.052,0a5.2,5.2,0,0,0,.738-.1,1.207,1.207,0,0,1,.211,1.463c-2.619,1.2-5.491,1.121-8.252,1.526A209.089,209.089,0,0,0,1502,642.156a198.682,198.682,0,0,0-25.946,24.5c-1.483,1.691-3.182,3.181-4.711,4.833a2.072,2.072,0,0,1-1.734.839c-28.963-.055-57.925.213-86.881-.114-14.453-.163-26.242-6.539-35.318-17.816a22.521,22.521,0,0,1-3.868-7.774C1342.96,644.271,1342.25,641.914,1343.56,639.566Z" fill="#575453"/>
    <path id="Path_2206" data-name="Path 2206" d="M1089.98,676.082c-4.9-6.443-4.8-13.523-2.558-20.823,3.579-11.657,9.822-21.949,16.607-31.94a245.982,245.982,0,0,1,21.473-27.09c5.827-6.42,11.926-12.566,18.219-18.493a275.307,275.307,0,0,1,29.728-24.138,283.331,283.331,0,0,1,37.46-22.261c1.372-.684,3.156-.683,4.06-2.231a2.756,2.756,0,0,1,3.065-.165c5.056,2.523,10.24,4.8,15.113,7.682a5.583,5.583,0,0,1,.788.781c3.489,5.57,6.751,11.278,10.216,16.862a3.99,3.99,0,0,1-.2,4.816c-6.831,10.544-13.737,21.039-20.582,31.574-11.6,17.861-23.315,35.652-34.875,53.541-.9,1.387-1.652,2.909-3.1,3.862-4.626,1.464-9.473,1.747-14.207,2.638-22.542,4.242-44.745,9.675-66.079,18.268C1099.93,671.049,1094.97,673.592,1089.98,676.082Z" fill="#e1dcd9"/>
    <path id="Path_2207" data-name="Path 2207" d="M1120.53,696.127c2.974.522,3.508,3.291,4.627,5.335,3.912,7.148,7.621,14.406,11.385,21.635q10.14,19.476,20.26,38.962,10.622,20.344,21.313,40.652a101.082,101.082,0,0,0,19.862,26.018c2.31,2.21,5.215,3.761,7.124,6.419.005,4.491.029,8.982,0,13.472-.007,1.14.2,2.349-.626,3.349a3.9,3.9,0,0,1-2.917-.015,117.9,117.9,0,0,1-41.156-18.085,165.574,165.574,0,0,1-28.382-24.746,245.723,245.723,0,0,1-26.6-34.944c-5.875-9.206-11.123-18.771-16.192-28.433-1.528-2.912-3.3-5.767-3.716-9.148q-3.477-8.1-6.958-16.189c-3.522-8.138-6.494-16.485-9.5-24.819,5.258-1.337,10.662-1.615,16.026-1.873A149.863,149.863,0,0,1,1120.53,696.127Z" fill="#9a9594"/>
    <path id="Path_2208" data-name="Path 2208" d="M1799.02,433.542q-.027,10.006-.054,20.012-70.236,0-140.47,0c-11.26,0-21.317,3.439-29.415,11.343-6.521,6.365-10.717,14.177-11.505,23.43-1.2,14.123-.3,28.284-.491,42.427-.136,10.079.078,20.164-.1,30.242-.046,2.653.807,3.119,3.24,3.116q75.108-.1,150.217-.034c1.047,0,2.175-.359,3.136.407-1.143,1.173-2.635.869-4.013.873-10.995.031-21.991.017-32.987.017q-67.222,0-134.446-.022c-1.6,0-3.369.474-4.731-.92-8.5-3.055-12.26-8.424-12.261-17.494q0-73.93,0-147.862c0-1.064-.248-2.174.358-3.177.021,11.494.111,22.989.007,34.482-.022,2.436.471,3.265,3.118,3.235,13.409-.152,26.821-.07,40.232-.071.839.39.79,1.194.863,1.918.083.826.02,1.659.048,2.488.082,2.432-.623,5.3,2.326,6.534a11.567,11.567,0,0,0,10.119-.314c1.87-.989,1.976-3.1,2.132-5.046.15-1.865-.5-3.828.639-5.579h110.542c1.209,1.447.692,3.18.72,4.789.094,5.366,1.649,6.96,7.037,7a16.185,16.185,0,0,0,3.231-.185c2.857-.557,4.162-2.034,4.31-4.944.072-1.411-.029-2.828.051-4.238.049-.877-.128-1.876.88-2.42Z" fill="#0f7f38"/>
    <path id="Path_2209" data-name="Path 2209" d="M1794.43,407.087c-5.09,5.393-11.424,7.034-18.7,7.015-48.626-.126-97.252-.063-145.878-.068-8.909,0-16.531-5.106-19.316-12.751-4.283-11.758,2.595-23.7,14.425-26.828h-17.534c.828-.585,1.776-.34,2.669-.339q66.959.087,133.916.216C1766,374.391,1786.75,387.947,1794.43,407.087Z" fill="#13a449"/>
    <path id="Path_2210" data-name="Path 2210" d="M1471.5,410.482a166.609,166.609,0,0,1,1.008,24.864,158.552,158.552,0,0,1-1.783,18.014,138.389,138.389,0,0,0-1.573,29.028c.207,3.382.479,6.977,3.163,9.721a15.429,15.429,0,0,0,10.521,4.44c6.073.4,12.107-.764,18.181-.506,1.419.06,3.042-.165,3.79,1.294s-.013,2.833-.878,4.161c-2.357,3.62-5.954,5.441-9.767,6.959-15.675,6.24-31.929,10.634-48.152,15.135-2.624.728-5.391,1.068-7.82,2.414-1.428.792-2.752,1.888-2.479,3.679.261,1.716,1.772,2.136,3.337,2.494,3.909.893,7.808.024,11.62-.293a106.3,106.3,0,0,0,26.863-5.875c6.044-2.151,11.724-5.112,17.554-7.737,5.986-2.7,11.979-5.377,17.9-8.212,7.991-3.828,14.414-9.341,18.581-17.359a44.665,44.665,0,0,1,4.827-6.619c1.02-1.3,2.708-1.413,4.138-1.969.981-.166,1.957-.415,2.945-.483,4.856-.336,6.94,1.592,6.984,6.436.07,7.8.7,15.649-1.449,23.3-1.88,6.7-5.215,12.216-12.4,14.33-1.5.442-3.078.641-4.62.952a2.255,2.255,0,0,1-1.367.547c-11.725.832-22.889,4.336-34.173,7.238-13.637,3.507-27.218,7.246-41.222,9.072a80.541,80.541,0,0,1-21.164.275,26.8,26.8,0,0,1-7.184-2.059,22.489,22.489,0,0,1-5.754-3.912c-4.09-4.32-4.353-7.286-.687-12.379,1.286-1.787,1.068-2.57-.815-3.477a10.414,10.414,0,0,1-4.76-4.627,5.828,5.828,0,0,1-.564-5.049,114.892,114.892,0,0,0,4.81-13.912,1.769,1.769,0,0,1,1.04-1.322,2.5,2.5,0,0,1,2.188-1.566,191.568,191.568,0,0,0,20.478-3.845c6.033-1.539,9.433-5.292,11.633-10.847,5.124-12.941,8.331-26.392,11.1-39.975,2.047-10.052,3.829-20.149,5.163-30.325a1.72,1.72,0,0,0-.666-1.863A.983.983,0,0,1,1471.5,410.482Z" fill="#0f7f38"/>
    <path id="Path_2211" data-name="Path 2211" d="M1383.4,227.975a34.289,34.289,0,0,1,19.74-16.3,70.435,70.435,0,0,1,47.255.1c15.023,5.324,22.946,16.913,26.09,32.115a94.75,94.75,0,0,1,1.475,21.625,4.887,4.887,0,0,1-.325,1.162c-.21-.147-.217-.424-.336-.585-.242-.326-.162.1-.171.149-1.763,10.438-15.528,20.522-29.119,16.58a3.434,3.434,0,0,1-2.137-1.15c-.144-2.811-.106-5.623-2.557-7.744a6.938,6.938,0,0,0-6.636-1.838,3.255,3.255,0,0,1-2.429.081c-3.382-3.654-4.346-8.188-4.359-12.919-.014-5.051-.3-10.028-2.507-14.644-4.345-9.077-11.484-14.4-21.513-15.918-6.336-.96-12.625-.08-18.937.019C1385.73,228.733,1384.41,229.041,1383.4,227.975Z" fill="#13a449"/>
    <path id="Path_2212" data-name="Path 2212" d="M1279.09,465.994c7.045,2.978,12.452,8.055,17.474,13.626.274.3.567.589.852.883a7.447,7.447,0,0,1-1.949,5.9c-4.726,1.936-6.216,4.155-6.231,9.332-.006,1.828-.087,3.661.041,5.485.339,4.828,3.265,7.583,8.065,7.627,2.743.025,5.486-.016,8.229.017,1.064.013,2.184-.136,3.083.683.241,1.409.345,2.785-.873,3.865a6.11,6.11,0,0,1-2.678.44c-13.684-.005-27.367.062-41.051-.024-11.574.066-23.147.031-34.721.027-1.4,0-2.844.189-4.165-.514-1.122-1.044-.885-2.44-.89-3.734-.032-8.374-.068-16.749,0-25.123.042-4.9.385-9.829-3.23-13.859a19.265,19.265,0,0,1,13.106-5.042c11.121-.123,22.244-.044,33.366-.047.78.773.486,1.7.351,2.591-.422,2.8-.911,5.587-1.374,8.379a13.018,13.018,0,0,0-.229,3.229,5.33,5.33,0,0,0,4.494,4.958,5.1,5.1,0,0,0,5.333-3.643c1.075-3.432,1.144-7.055,1.782-10.572C1278.16,468.956,1277.99,467.3,1279.09,465.994Z" fill="#e1dcd9"/>
    <path id="Path_2213" data-name="Path 2213" d="M1597.41,564.435c7.079.041,14.157.116,21.236.118q76.347.015,152.694,0c.749,0,1.5-.044,2.246-.068l1.828.365c3.126,1.3,4.672,3.88,4.076,6.808-.606,2.977-3.09,4.876-6.613,4.885-11.892.029-23.784.006-35.676.015-3.159,0-6.318.048-9.477.074a8.917,8.917,0,0,1-3.355.735c-5.606-.036-11.212.056-16.818-.04-27.715.1-55.431.021-83.146.044a30.791,30.791,0,0,1-3.243-.071c-3.122.122-6.244.046-9.367.043a4.143,4.143,0,0,1-2.8-.761q-19.746-.013-39.491-.031a19.136,19.136,0,0,1-2.744-.094,6.006,6.006,0,0,1-5.207-6.29,5.774,5.774,0,0,1,5.611-5.606c3.493-.154,7-.077,10.495-.086Q1587.528,564.446,1597.41,564.435Z" fill="#353433"/>
    <path id="Path_2214" data-name="Path 2214" d="M1279.09,465.994c-.689,4.893-1.254,9.807-2.111,14.67a5.761,5.761,0,0,1-11.426-1.443c.129-3.965,1.2-7.809,1.75-11.722.092-.651.147-1.308.218-1.963.995-5.533,2.048-11.056,2.975-16.6,1.9-11.349,3.6-22.732,5.65-34.053.644-3.562,3.3-6.3,5.344-9.209,4.243-6.053,9.151-11.432,16.252-14.21a19.859,19.859,0,0,1,12.21-.968c4.086,1.023,6.066,3.83,6.075,8.025q.025,11.238,0,22.476c0,5.675-3.237,8.966-8.97,9.015-6.077.052-12.154.008-18.231.013-3.723,0-4.787,1.068-5.294,4.775-1.289,9.431-2.662,18.85-4.013,28.273C1279.39,464.048,1278.86,464.963,1279.09,465.994Z" fill="#cdc7c5"/>
    <path id="Path_2215" data-name="Path 2215" d="M1383.4,227.975c6.076.417,12.112-.787,18.189-.432,6.412.375,12.452,1.8,17.673,5.823,7.24,5.583,11.091,12.965,11.2,22.04.073,5.933.513,11.62,4.077,16.625-.114.9-.821,1.408-1.354,2.028-2.969,3.449-2.757,8.214.485,10.865,3.294,2.692,8.174,1.851,10.869-1.875.43-.6.71-1.338,1.544-1.521,11.951,4.671,27.221-1.725,31.318-17.257l.231,2.414c-.12,16.625-10.006,28.646-26.3,31.988-.569.117-1.129.282-1.692.425-2.109,1.251-4.371.587-6.583.534a23.666,23.666,0,0,0-4.944-.543,17.98,17.98,0,0,1-13.361-7.307,23.046,23.046,0,0,1-2.315-5.309c-1.22-5.719-.487-11.5-.609-17.258-.124-3.983.119-7.968-.51-11.948a14.443,14.443,0,0,0-14.281-12.476c-8.318-.041-16.637.007-24.955-.027-1.2-.005-2.533.291-3.5-.827C1379.01,238.259,1380.28,232.837,1383.4,227.975Z" fill="#0f7f38"/>
    <path id="Path_2216" data-name="Path 2216" d="M1462.96,313.069c-1.358,4.439-5.3,6.6-8.434,9.44-2.2,2-4.656,3.72-7.012,5.548-.334.259-.8.488-.726.922.107.652.733.518,1.211.562,2.869.263,5.6-.511,8.33-1.188a9.733,9.733,0,0,1,4.431-.125c.757.161,1.747.256,1.951,1.29a2.169,2.169,0,0,1-1.062,2.11c-2.641,2.133-5.308,4.234-7.968,6.345-.064.051-.168.06-.218.118-2.669,3.106-6.181,4.65-9.962,6.087-5.707,2.169-7.928,7.535-9.951,12.767-1.254,3.243-2.113,6.637-3.2,9.944-1.559,4.72-4.806,8.475-7.315,12.652-.617-10.8-.38-21.616-.356-32.426.006-2.741-.194-5.155-2.383-7.223a14.755,14.755,0,0,1-3.2-5.293c-1.869-4.619-1.613-8.91,2.149-12.585a3.322,3.322,0,0,1,1.167-1.858c8.359-6.861,17.143-13.047,27.3-17.023,1.054-.413,2.12-1.023,3.343-.59.657-.06,1.325-.065,1.97-.188C1459.81,301.053,1464.81,306.431,1462.96,313.069Z" fill="#0f8038"/>
    <path id="Path_2217" data-name="Path 2217" d="M1089.98,676.082c.2-1.239,1.354-1.372,2.189-1.811,14.2-7.452,29.356-12.36,44.746-16.594,13.746-3.782,27.727-6.521,41.755-9.02,2.28-.406,4.575-.732,6.862-1.095,1.56,2.8,2.858,5.679,2.467,9.017-2.345-.69-4.58.184-6.756.711a139.206,139.206,0,0,0-25.718,9.252,312.976,312.976,0,0,0-35.318,19.437c-.764.482-1.461,1.069-2.189,1.607-6.647-.393-13.13-1.476-19.188-4.441A24.858,24.858,0,0,1,1089.98,676.082Z" fill="#9f9a99"/>
    <path id="Path_2218" data-name="Path 2218" d="M1426.43,542.851c7.826,3.383,16.055,3.178,24.25,2.4,20.8-1.968,40.579-8.634,60.763-13.443,6.752-1.609,13.481-3.512,20.544-3.161,2.49,6.508,5.326,12.9,6.853,19.737-3.332-.1-6.524.894-9.781,1.342-5.67.78-11.356,1.4-17.052,1.75-15.872.97-31.777.856-47.656.441-14.083-.368-28.158-1.439-41.823-5.365a12.577,12.577,0,0,1-3.932-1.439A10.172,10.172,0,0,1,1426.43,542.851Z" fill="#a24733"/>
    <path id="Path_2219" data-name="Path 2219" d="M1417.5,319.086c-3.829,1.03-7.544,2.365-11.6,2.644-6.531.45-11.683-1.685-15.537-6.959a30.786,30.786,0,0,1-5.358-14.052c-.274-1.881-.726-3.214-2.962-3.83-3.273-.9-4.005-3.569-2.074-6.469a27.883,27.883,0,0,1,2.868-3.435c1.961-2.111,3.61-4.351,3.62-7.406,1.556-1.181,3.18-.826,4.813-.219.987.6,1.235,1.7,1.762,2.626.413.723.891,1.491,1.875,1.351.873-.125,1.066-.939,1.3-1.644.283-.851.236-1.817.886-2.546,2.512-1.474,5.366-.819,8.042-1.169,3.2-.419,6.451-.648,9.677-.995,1.371-.148,3.057-.6,3.909.834a6.269,6.269,0,0,1,.19,5.1c-.417,1.339-1.59.9-2.549.7a12.126,12.126,0,0,0-8.512.818,11.208,11.208,0,0,0-4.7,15.415c3.145,5.789,10.261,8.076,15.592,4.352,3.272-2.285,5.676-2.928,8.9-.247,1.716,1.427,4.233,1.373,6.436,1.808.882.174,1.859.05,2.546.822.387.91-.254,1.411-.826,1.862a80.5,80.5,0,0,1-16.363,10.294A4.089,4.089,0,0,1,1417.5,319.086Z" fill="#fead8c"/>
    <path id="Path_2220" data-name="Path 2220" d="M1295.53,486.042q.945-2.769,1.888-5.538c3.713-8.006,9.87-11.747,18.8-11.638,7.253.088,14.12,1.678,20.965,3.72a20.407,20.407,0,0,0-1.176,7.467c-1.373,4.5-3.615,6.105-8.5,6.2-1.8.034-3.626-.254-5.4.282-2.38.559-3.012,2.469-3.3,4.5a41.788,41.788,0,0,0-.609,7.2,15.574,15.574,0,0,1-1.893,7.677c-.864,1.671-2.088,2.593-4.056,1.7a1.888,1.888,0,0,0-1.441-.275c-2.327.973-4.21.106-5.983-1.33a2.208,2.208,0,0,0-2.347-.172,4.045,4.045,0,0,1-5.218-1.811C1294.24,498.323,1293.18,492.314,1295.53,486.042Z" fill="#fead8c"/>
    <path id="Path_2221" data-name="Path 2221" d="M1221.05,470.626a7.509,7.509,0,0,1,3.892,6.788c.043,11.864-.019,23.728-.042,35.591a3.437,3.437,0,0,1-1.775,1.663c-5.2,3.115-10.385,6.253-15.6,9.34-.921.545-1.83,1.227-2.984.558-2.2-5.214-1.482-10.618-.914-15.972a68.666,68.666,0,0,1,12.288-32.239A30.23,30.23,0,0,1,1221.05,470.626Z" fill="#fead30"/>
    <path id="Path_2222" data-name="Path 2222" d="M1204.54,524.566c1.644.093,2.713-1.116,3.962-1.84,5.5-3.189,10.937-6.472,16.4-9.72l39.14.059c.275.93-.407,1.39-.983,1.822-9.713,7.288-19.383,14.634-29.153,21.847a2.137,2.137,0,0,1-.925.35c-4.9-2.471-9.825-4.885-14.671-7.455-1.137-.6-2.266-.151-3.341-.523A68.3,68.3,0,0,1,1204.54,524.566Z" fill="#cdc7c5"/>
    <path id="Path_2223" data-name="Path 2223" d="M1386.03,271.512c-3.091-.519-6.243-.587-9.3-1.426-5.469-1.5-7.47-4.468-6.56-10.089a23.442,23.442,0,0,1,3.368-8.931,177.25,177.25,0,0,0,23.2-.08,13.116,13.116,0,0,1,14.526,13.023c.069,2.109-.513,4.385,1.377,6.091-.329,1.172-1.353,1.1-2.219,1.14-3.385.147-6.742.772-10.148.558a12.1,12.1,0,0,0-3.918.514c-.329.01.1.041-.237.039-3.868-.026-3.868-.026-4.525,3.726a2.126,2.126,0,0,1-.387.882c-1.243.377-1.289-.735-1.216-1.283C1390.41,272.569,1388.43,271.873,1386.03,271.512Z" fill="#6a0604"/>
    <path id="Path_2224" data-name="Path 2224" d="M1609,576.583h12.116a3.624,3.624,0,0,1,.72,2.585c.005,5.579.1,11.158-.042,16.736.083,8.488.072,16.978.012,25.466-.029,4.113-2.964,7.272-6.61,7.343-3.685.071-6.758-2.965-6.855-7.1-.168-7.155-.065-14.315-.042-21.472a3.586,3.586,0,0,1,.754-2.572q0-.762,0-1.522Q1609.019,586.312,1609,576.583Z" fill="#4d4a49"/>
    <path id="Path_2225" data-name="Path 2225" d="M1412.69,270.129c-1.724.11-2.246-.7-2.187-2.391.112-3.211.171-6.387-1.3-9.473-2-4.209-7.322-7.141-13.073-6.4a71.114,71.114,0,0,1-8.694.167c-3.9.019-7.8.025-11.7-.012-.824-.008-1.931.422-2.2-.954a27.594,27.594,0,0,1,5.039-7.131c8.894.005,17.8.338,26.677-.075,9.014-.419,17.017,5.745,17.219,16.785.052,2.824-.044,5.651-.072,8.476A11.848,11.848,0,0,1,1412.69,270.129Z" fill="#550303"/>
    <path id="Path_2226" data-name="Path 2226" d="M1680.48,316.814a9.9,9.9,0,1,1,19.808.256,9.905,9.905,0,1,1-19.808-.256Z" fill="#13a449"/>
    <path id="Path_2227" data-name="Path 2227" d="M1680.48,356.562a9.9,9.9,0,1,1,9.886,9.98A9.854,9.854,0,0,1,1680.48,356.562Z" fill="#13a449"/>
    <path id="Path_2228" data-name="Path 2228" d="M1417.5,319.086a89.46,89.46,0,0,0,19.048-12.043c2.524-2.267,4.057-5.28,6.005-7.98l7.089.034,1.4,3.448c-12,4.206-22.26,11.257-31.807,19.472Q1418.372,320.55,1417.5,319.086Z" fill="#fe7165"/>
    <path id="Path_2229" data-name="Path 2229" d="M1386.03,271.512c1.351-.876,2.685.1,4.032.08.81-.009.453.877.493,1.395.1,1.369-.288,2.79.444,4.091a2.978,2.978,0,0,1,.838,2.344,1.007,1.007,0,0,1-.37.612c-1.6-.9-3.337-.36-5.014-.456C1385.71,276.922,1386.26,274.2,1386.03,271.512Z" fill="#fd887d"/>
    <path id="Path_2230" data-name="Path 2230" d="M1522.08,835.075q-.027.738-.053,1.477c-.71,1.875-.339,4.244-2.5,5.457-5.554-.142-11.147.634-16.658-.407a15.5,15.5,0,0,1-12.719-14.366,144.53,144.53,0,0,1,.888-25.608c-.684-.855-.15-1.613.292-2.271,7.419-11.023,14.469-22.295,22.263-33.066,2.585-3.571,4.921-7.3,7.217-11.066,1.991-1.833,4.484-2.866,6.818-4.107,18.219-9.686,36.339-19.559,54.51-29.333q28.248-15.194,56.449-30.473c4.4-2.368,8.75-4.812,13.2-7.073.71-.36,1.357-1.039,2.291-.666,1.573,1.39,3.652,1.415,5.515,1.983a121.459,121.459,0,0,1,36.344,17.752,4.15,4.15,0,0,1,.638.749c-1.612,2.237-4.1,3.338-6.329,4.724-16.708,10.414-34.3,19.139-52.214,27.261a51.913,51.913,0,0,1-8.511,3.494l-1.472.046a5.416,5.416,0,0,1-2.936.206c-16.39-.744-32.4.982-47.771,7.129a91.7,91.7,0,0,0-26.563,16.065c-14.548,12.7-23.346,28.6-26.77,47.544a92.1,92.1,0,0,0-1.3,19.139A14.35,14.35,0,0,1,1522.08,835.075Z" fill="#b6b1af"/>
    <path id="Path_2231" data-name="Path 2231" d="M1163.47,855.038c-7.213-.867-14.27-2.6-21.4-3.929l-8.622-2.489c-.823.557-1.613.125-2.376-.128-12.425-4.1-24.327-9.3-35.086-16.87-1.229-.749-2.157-1.886-3.377-2.65,1.685,1.006,2.514,2.7,3.481,4.294a18.3,18.3,0,0,1,2.281,6.432,2.624,2.624,0,0,1-.32,2.329,21.842,21.842,0,0,1-6.518,17.564,3.069,3.069,0,0,1-1.409,1.954c-4.156,3.047-8.675,5.036-13.975,4.69a3.115,3.115,0,0,1-2.075-.635c-7.278-.739-12.662-4.451-16.529-10.539-2.849-2.268-4.46-8.485-3.086-11.907.02-6.81,3.326-12.01,8.089-16.494.266-1.217,1.337-1.627,2.241-2.162a21.5,21.5,0,0,1,12.337-3.1,19.662,19.662,0,0,1,9.111,2.379c-2.42-2.156-4.666-4.653-7.1-6.952a79.464,79.464,0,0,1-15.02-24.89c-.449-1.227-1.088-2.463-.6-3.853-2.408-8.166-.426-16.015,2.206-23.629a63.991,63.991,0,0,1,15.592-24.36c1.281-1.282,2.788-2.338,4.191-3.5a330.382,330.382,0,0,0,25.6,45.061,214.558,214.558,0,0,0,32.1,37.721c13.874,12.7,29.337,22.883,47.316,28.9a138.938,138.938,0,0,0,13.951,3.689,6.853,6.853,0,0,1-6.634,5.595,169.281,169.281,0,0,1-24.974-1.423c-1.8-.228-3.606-.408-5.414-.558" fill="#e1dcd9"/>
    <path id="Path_2232" data-name="Path 2232" d="M1514.04,766.557q-11.219,16.725-22.42,33.46a6.918,6.918,0,0,0-.571,1.612c-2.624,2.981-4.411,6.539-6.724,9.735-.632.872-1.216,1.779-1.822,2.67q-22.992.031-45.984.059-26.241,0-52.481-.051c-.375-1.316.49-2.224,1.108-3.176,9.21-14.183,18.577-28.264,27.868-42.393,1.457-2.215,3.334-2.663,5.73-2.659q33.366.057,66.733.023c8.331,0,16.662-.013,24.994.014C1511.69,765.854,1512.99,765.59,1514.04,766.557Z" fill="#7a7776"/>
    <path id="Path_2233" data-name="Path 2233" d="M1519.53,842.01l2.5-5.457q0,2.727-.009,5.454Z" fill="#d1cbc9"/>
    <path id="Path_2234" data-name="Path 2234" d="M1654.09,683.575c-5.1,2.791-10.185,5.6-15.3,8.368q-24.667,13.344-49.352,26.656c-9.879,5.321-19.8,10.568-29.68,15.883q-18.663,10.036-37.292,20.134c-.508.275-.965.645-1.446.97l-.41.031a12.9,12.9,0,0,1-2.492.115q-33.862.006-67.725-.016c-1.285,0-3.113.571-3.69-.73-.656-1.482,1.122-2.387,2.064-3.33,27.192-27.235,54.315-54.54,81.659-81.622,17.05-16.886,37.522-27.122,61.474-30.04a83.529,83.529,0,0,1,10.208-.647c19.659.025,39.318.094,58.981-.028,15.741-.1,31.478-.057,47.214-.019,2.982.007,5.8.647,7.715,3.285a55.367,55.367,0,0,1-18.37,17.288C1683.42,668.284,1668.69,675.819,1654.09,683.575Z" fill="#9d9896"/>
    <path id="Path_2235" data-name="Path 2235" d="M1629.53,739.538c5.038-2.909,10.5-4.921,15.724-7.441,8.76-4.226,17.487-8.515,26.082-13.067,8.656-4.584,16.986-9.722,25.248-14.972,5.953,3.664,10.75,8.67,15.361,13.782a97.507,97.507,0,0,1,15.917,24.328,131.491,131.491,0,0,1,10.23,34.486c2.742,16.689,1.91,33.5,1.9,50.272-.007,7.969-7.429,14.983-15.408,15.118-4.164.07-8.33-.018-12.495-.035q-.012-8.124-.027-16.246c-.057-18.751-5.318-35.833-16.627-50.877a84.517,84.517,0,0,0-27.437-23.4,106.065,106.065,0,0,0-34.038-11.348C1632.49,739.9,1631.01,739.736,1629.53,739.538Z" fill="#d2ccca"/>
    <path id="Path_2236" data-name="Path 2236" d="M1716.02,642.584c-3.612-2.521-7.693-2.63-11.911-2.6-14.49.1-28.98.033-43.471.029-.942-.912-.882-2.109-.884-3.264q-.03-18.807,0-37.614a5.167,5.167,0,0,1,.623-3.123c1.052-.87,2.328-.749,3.554-.75,8.1-.01,16.2-.041,24.3,0,4.695.265,9.454-.48,14.086.847,1.5.429,3.117.635,4.1,2.082,7.091,3.712,12.286,9.245,13.254,17.27C1720.78,624.683,1720.94,634.049,1716.02,642.584Z" fill="#f1624c"/>
    <path id="Path_2237" data-name="Path 2237" d="M1706.42,598.192c-5.693-2.552-11.753-2.079-17.747-2.152-.51-1.035.381-1.517.9-2.047,5.3-5.36,10.644-10.669,15.96-16.01a12.936,12.936,0,0,1,2.017-1.424l20.169.074q-9.528,9.62-19.055,19.24C1707.91,596.639,1707.17,597.419,1706.42,598.192Z" fill="#4d4a49"/>
    <path id="Path_2238" data-name="Path 2238" d="M1730.14,497.151a35.682,35.682,0,1,1-35.728-35.673A35.677,35.677,0,0,1,1730.14,497.151Z" fill="#eaeffb"/>
    <path id="Path_2239" data-name="Path 2239" d="M1074.08,865.6a21.972,21.972,0,0,0,17.459-6.01c6.121,2.549,11.852,5.709,16.382,10.682a22.087,22.087,0,0,1,6.171,14.864,3.235,3.235,0,0,1-1.188,2.819c-19.63,16.506-47.937,17.331-67.77,3.9,3.266-1.488,6.492-2.849,9.619-4.409a43.758,43.758,0,0,0,13.159-9.756A26.757,26.757,0,0,0,1074.08,865.6Z" fill="#2a2928"/>
    <path id="Path_2240" data-name="Path 2240" d="M1054.46,843.156a20.627,20.627,0,0,0,3.086,11.907,41.378,41.378,0,0,1-11.694,20.49A22.827,22.827,0,0,1,1035,881.4a2.546,2.546,0,0,1-2.824-.918c-16.056-18.06-17.7-48.607-3.626-68.343a5.475,5.475,0,0,1,.737-.648,102.233,102.233,0,0,0,3.724,11.1c2.784,6.431,6.407,12.214,12.174,16.459C1047.99,841.12,1051.3,841.95,1054.46,843.156Z" fill="#2a2928"/>
    <path id="Path_2241" data-name="Path 2241" d="M1063.52,788.085a75.386,75.386,0,0,0,14.765,26.833,18.24,18.24,0,0,1,1.1,1.63,8.265,8.265,0,0,1-1.9,5.494,22.9,22.9,0,0,0-14.932,4.62c-7.3-3.512-13.91-7.9-18.462-14.82a20.951,20.951,0,0,1-3.636-11,2.521,2.521,0,0,1,.878-2.434C1048.01,793.423,1055.24,789.638,1063.52,788.085Z" fill="#2a2928"/>
    <path id="Path_2242" data-name="Path 2242" d="M1098.05,842.029a24.9,24.9,0,0,0-2.606-8.95c-.113-.807-.776-1.761.584-2.171a129.547,129.547,0,0,0,34.355,16.675c1.024.336,2.042.691,3.064,1.038a56.416,56.416,0,0,1-8.2,24.939c-.945-.6-.941-1.576-1.224-2.363-3.122-8.681-7.094-16.832-14.1-23.15A26.287,26.287,0,0,0,1098.05,842.029Z" fill="#2a2928"/>
    <path id="Path_2243" data-name="Path 2243" d="M1672.5,842.119l8.678.039c.549,19.179-6.144,35.557-19.666,48.978a63.236,63.236,0,0,1-39.106,18.506c-20.08,2.04-37.621-3.671-52.458-17.36a64.092,64.092,0,0,1-20.479-39.424,90.428,90.428,0,0,1-.537-10.7l8.693-.043a18.873,18.873,0,0,1,1.056,6.321,54.216,54.216,0,0,0,12.35,30.97,3.121,3.121,0,0,0,3.739,1.074,23.866,23.866,0,0,0,12.194-8.237,49.05,49.05,0,0,0,7.966-14.029c.3-.84.275-2.06,1.637-2.143,1.29,1.371,2.48,2.855,3.889,4.09a22.893,22.893,0,0,0,12.217,5.492c.752,1.055.207,2.084-.092,3.1-1.722,5.849-5.592,10.15-10.2,13.857a56.145,56.145,0,0,1-14.733,8.32,7.82,7.82,0,0,0-1.6.692c-.146.1-.218.244-.255.7a54.389,54.389,0,0,0,12.964,5.831c18.928,5.163,36.237,1.919,51.823-10.139a3.821,3.821,0,0,0,1.615-3.841c-1.031-10.6-7.936-16.571-16.495-21.33-1.773-.986-4-1.3-5.15-3.28,4.322-4.816,6.736-10.363,6.415-16.929-.084-1.723,1.185-1.029,1.872-1.033,8.636-.048,17.273-.031,25.91-.031,1.91,0,3.821-.022,5.73.012.706.013,1.528-.274,2.029.548a3.637,3.637,0,0,1-2.607.62q-13.734.024-27.468-.005a6.184,6.184,0,0,1-2.595-.356c5.341,1.112,9.4,4.687,12.948,8.83,5.1,5.961,8.436,12.935,10.87,20.357a2.127,2.127,0,0,1,.12,1.057c5.4-8.478,7.472-17.981,8.094-27.9A3.933,3.933,0,0,1,1672.5,842.119Z" fill="#b6b1af"/>
    <path id="Path_2244" data-name="Path 2244" d="M1771.76,433.548c-.044,2.329-.067,4.659-.137,6.987-.093,3.081-1.567,4.866-4.618,5.2a33.074,33.074,0,0,1-6.478.062c-3.249-.293-4.821-2.189-4.893-5.5-.049-2.247-.069-4.494-.1-6.741.033-2.158.035-4.316.106-6.473.107-3.271,1.909-5.046,5.145-5.09,1.994-.027,3.988-.035,5.981,0a4.554,4.554,0,0,1,4.83,4.593C1771.72,428.9,1771.71,431.225,1771.76,433.548Z" fill="#d7684e"/>
    <path id="Path_2245" data-name="Path 2245" d="M1644.99,433.55c-.033,2.33-.011,4.662-.113,6.988-.139,3.176-1.53,4.764-4.637,5.175a22.315,22.315,0,0,1-7.454-.116,4.435,4.435,0,0,1-3.785-4.566c-.077-2.494-.094-4.989-.138-7.484.043-2.24.077-4.479.131-6.719.073-3.034,1.776-4.779,4.77-4.84,1.993-.04,3.988-.029,5.981,0,3.182.04,4.925,1.645,5.116,4.843C1644.99,429.063,1644.95,431.309,1644.99,433.55Z" fill="#d7684e"/>
    <path id="Path_2246" data-name="Path 2246" d="M1471.5,410.482l-1.457.142c-1.134-1.265-.139-2.553.033-3.788,1.063-7.638,1.821-15.283,2.123-23.007.329-8.424-.031-16.727-2.189-24.872-1.444-5.448-3.645-10.554-8.638-13.836a17.027,17.027,0,0,0-2.209-1.122c-.815-.378-2-.624-1.473-1.837s1.58-.473,2.368-.163a16.758,16.758,0,0,1,7.577,6.242c3.426,4.882,4.856,10.508,5.887,16.253a95.825,95.825,0,0,1,.944,21.611A141.594,141.594,0,0,1,1471.5,410.482Z" fill="#4b6911"/>
    <path id="Path_2247" data-name="Path 2247" d="M1338.92,498.008c-1.983.014-3.966.006-5.949.049a4.368,4.368,0,0,1-4.016-1.984,2.315,2.315,0,0,1-1.346-1.979c-.234-3.337-2.145-5.473-4.854-7.093a1.44,1.44,0,0,1-.7-.983c1.007-.866,2.232-.511,3.315-.423,4.748.386,8.615-.775,10.648-5.541C1336.54,486.108,1336.27,492.294,1338.92,498.008Z" fill="#fe887d"/>
    <path id="Path_2248" data-name="Path 2248" d="M1264.49,556.553c4.3,6.792,3.832,13.266-.478,20.053-15.1,23.774-24.413,49.764-29.056,77.494a215.611,215.611,0,0,0-2.805,46.267c1.013,20.672,3.568,41.111,11.407,60.505,4.005,9.908,9.324,18.977,17.813,25.809A34.1,34.1,0,0,0,1278,794.173c1.528.225,2.286-.148,2.572-1.6.073.071.145.141.22.21.268.571.611,1.04,1.344.993.646.034,1.283.1,1.931.092q35.976-.008,71.939,0c3.5,0,3.5.022,4.671,3.193,4.036.989,3.741,4.136,3.651,7.226-.068,2.323.005,4.649-.026,6.973a3.979,3.979,0,0,1-.771,2.813c-31.98,0-63.961-.078-95.94.079a17.246,17.246,0,0,1-12.289-5.06c-6.267-5.751-10.833-12.812-15.032-20.1-12.125-21.036-21.139-43.485-29.723-66.117-5.983-15.774-11.51-31.712-16.717-47.759-2-6.161-3.9-12.356-5.838-18.536q-1.234-4.508-2.467-9.017,28.971-44.439,57.977-88.855a3.35,3.35,0,0,0,.071-4.228c-3.48-5.574-6.793-11.252-10.17-16.891a.836.836,0,0,1,.633-.932,5,5,0,0,1,1.72-.24c8.893-.4,8.893-.4,15.213,5.916q5.823,5.823,11.639,11.654C1263.36,554.741,1264.31,555.379,1264.49,556.553Z" fill="#797776"/>
    <path id="Path_2249" data-name="Path 2249" d="M1363.54,814.07c0-4.236-.113-8.475.037-12.705.074-2.1-.4-3.2-2.7-2.811a1.136,1.136,0,0,1-1.293-.523c3.989-.168,5.6-3.345,7.6-6.018q20.386-27.162,40.757-54.336a11.574,11.574,0,0,1,1.917-2.292c.934-.74,1.5-.408,1.792.665.44,5.075.1,10.154.2,15.227.067,3.192.274,3.517,3.391,3.458,19.463-.37,38.907.825,58.37.619,14.9-.158,29.8-.038,44.7-.016.886,0,1.832-.3,2.665.29l.043-.043c-1.806,3.99-4.45,7.447-6.986,10.972q-48.09.009-96.181.005c-1.536,0-2.761.057-3.789,1.633-9.76,14.951-19.624,29.835-29.453,44.742a12.063,12.063,0,0,0-.579,1.1Z" fill="#595756"/>
    <path id="Path_2250" data-name="Path 2250" d="M1689.99,153.892a24.268,24.268,0,0,1,24.335,24.513c-.2,13.719-11.054,24.2-24.969,24.132-13.147-.069-23.843-11.086-23.8-24.515A24.242,24.242,0,0,1,1689.99,153.892Z" fill="#e3fce3"/>
    <path id="Path_2251" data-name="Path 2251" d="M1330.99,767.538c.271-.272.721-.419.52-.977-1.206-3.348-.952-4.3,1.761-6.447.71-.563,1.483-1.046,2.227-1.566,3.524-.214,5.938,2.029,8.261,4.078,3.551,3.13,6.748,6.648,10.318,9.781,3.348,2.938,4.4,2.752,7.443-.446,5.731-6.027,4.962-14.141.977-20.007a94.4,94.4,0,0,1-12.409-26.513,285.8,285.8,0,0,1-8.654-37.507c-1.626-10.523-2.766-21.056-2.36-31.7.209-5.477,1-10.909,3.584-15.885.159-.307.063-1.161.9-.785a27.845,27.845,0,0,0,.488,6.986c1.358,7.007,2.235,14.1,4.36,20.964a93.777,93.777,0,0,0,17.912,33.145,11.642,11.642,0,0,1,2.506,3.987c2.037,10.133,3.522,20.354,4.916,30.586.583,4.283,1.477,8.539,1.482,12.889.109,2.452-1.118,4.517-2.1,6.6-3.386,7.148-6.679,14.339-10.051,21.494a2.88,2.88,0,0,1-1.609,1.8,5.91,5.91,0,0,1-3.164-.388c-8-2.172-15.884-4.787-23.976-6.633C1332.88,770.166,1332.34,768.464,1330.99,767.538Z" fill="#1f1e1c"/>
    <path id="Path_2252" data-name="Path 2252" d="M1305.88,624.662c-4.661-10.925-6.6-22.062-2.887-33.726a23,23,0,0,1,7.424-10.712c8.63-7.29,18.765-11.916,29.084-16.131,23.826-9.732,48.595-16.422,73.545-22.5l8.472-2.062,4.913,3.32q-3.92,1.131-7.836,2.265c-12,3.913-23.965,7.911-35.518,13.021a247.089,247.089,0,0,0-30.482,15.872,143.055,143.055,0,0,0-29.033,23.3c-7.224,7.669-13.387,16.054-16.913,26.128C1306.48,623.917,1306.38,624.407,1305.88,624.662Z" fill="#1f1e1c"/>
    <path id="Path_2253" data-name="Path 2253" d="M1520.98,755.628q-38.679-.03-77.359-.06c-10.065-.007-20.131-.043-30.195.037-1.831.015-2.452-.46-2.424-2.365.09-6.069-.011-12.142-.038-18.213.2-1.8,1.492-2.929,2.64-4.08,7.409-7.43,14.44-15.22,21.685-22.806,8.393-8.787,16.627-17.727,25.014-26.523,2.525-2.648,4.975-5.376,7.57-7.962.639-.637,1.19-1.42,2.176-1.595,6.861-7.329,13.616-14.744,21.087-21.5A221.62,221.62,0,0,1,1515.18,631.7c5.077-3.453,10.342-6.62,15.721-9.585a209.523,209.523,0,0,1,56.389-21.2c7.18-1.58,14.379-3.072,21.762-3.35,0,8.065-.021,16.13.018,24.2a5.968,5.968,0,0,0,4.106,5.9c2.627.905,4.852.148,6.8-2.246a5.515,5.515,0,0,0,1.093-3.726c-.013-8.563.014-17.127.027-25.69.971-.854,2.172-.746,3.325-.748q16.347-.03,32.695.006c1.216,0,2.535-.2,3.488.9q.016,21.926.035,43.851c-20.327.014-40.657-.15-60.981.11-12.483.159-24.447,3.227-35.93,8.1a106.674,106.674,0,0,0-26.177,16.171c-1.984,1.636-3.907,3.361-5.726,5.178q-41.821,41.77-83.6,83.583c-.465.465-.9.964-1.476,1.593a4.96,4.96,0,0,0,2.715.312q34.367.023,68.731.035C1519.12,755.1,1520.21,754.627,1520.98,755.628Z" fill="#827f7e"/>
    <path id="Path_2254" data-name="Path 2254" d="M1470.05,672.061q-11.492,12.152-22.983,24.3-16.883,17.874-33.748,35.767c-.85.9-1.572,1.928-2.354,2.9-3.813,4.26-6.99,9.011-10.418,13.566q-18.136,24.1-36.164,48.284c-1.35,1.809-3.147,1.006-4.8,1.153-.094-3.536-.094-3.536-3.683-3.536q-34.893,0-69.786,0c-.995,0-1.991-.052-2.987-.08.609-1.439,1.942-1.078,3.02-1.1,3.665-.089,7.332-.034,11-.034q28.247,0,56.494,0c.916,0,1.834-.034,2.749-.015,1.711.036,2.366-.82,2.356-2.461-.013-2.249-.038-4.5.025-6.749a8.455,8.455,0,0,1,2.761-6.46c2.654-5.525,5.33-11.04,7.954-16.579,1.456-3.075,2.779-6.213,4.257-9.277a8.717,8.717,0,0,0,.893-3.329c3.752-7.8,7.25-15.722,11.078-23.487.757-1.535.111-2.483-.91-3.5-4.435-4.4-8.828-8.849-13.277-13.238-1.181-1.165-2.177-2.5-3.457-3.568-.595-2.482-2.667-3.956-4.127-5.807a93.041,93.041,0,0,1-16.884-33.731c-1.638-6.063-3.11-12.168-3.006-18.522a37.91,37.91,0,0,0,5.8,9.737,38.9,38.9,0,0,0,10.726,8.727,47.191,47.191,0,0,0,24.411,6.636c27.4-.214,54.81-.082,82.215-.06C1468.16,671.592,1469.22,671.2,1470.05,672.061Z" fill="#353433"/>
    <path id="Path_2255" data-name="Path 2255" d="M1264.49,556.553c-5.919-5.838-11.882-11.631-17.723-17.546a5.368,5.368,0,0,0-4.789-1.965c-2.842.356-5.773-.624-8.569.547-.143-.169-.285-.338-.428-.506,3.452-3.463,7.632-6,11.477-8.959,6.143-4.73,12.417-9.29,18.622-13.941a6.684,6.684,0,0,0,.961-1.119l43.97.013c-.427.5-.822,1.034-1.286,1.5q-20.262,20.281-40.543,40.543C1265.66,555.639,1265.06,556.077,1264.49,556.553Z" fill="#b6b1af"/>
    <path id="Path_2256" data-name="Path 2256" d="M1468.6,235.08c-.171,2.9-.419,5.6-3.022,7.169a7.121,7.121,0,0,1-8.59-.619c-5.625-4.5-11.567-8.653-16.487-13.961-2.214-2.388-3.9-5.223-3.934-8.653a7.276,7.276,0,0,1,9.3-7.239,36.134,36.134,0,0,1,19.741,13.9A18.44,18.44,0,0,1,1468.6,235.08Z" fill="#0d6e30"/>
    <path id="Path_2257" data-name="Path 2257" d="M1446.09,281.528c-2.5,7.065-10.725,6.716-13.852,2.988a8.538,8.538,0,0,1,2.308-12.484c2.932-1.076,5.819-1.4,8.461.713C1445.85,275.016,1447.07,277.895,1446.09,281.528Z" fill="#435e0f"/>
    <path id="Path_2258" data-name="Path 2258" d="M1322.05,486.016c3.447,1.575,5.987,3.818,6.126,7.972a7.052,7.052,0,0,0,.78,2.084c-.9,1.55-.382,3.239-.41,4.855-.094,5.483-3.206,8.609-8.746,8.625l-11.225.03c-3.821-.009-7.658-.24-11.459.027-5.33.375-8.339-4.169-8.544-8.12-.138-2.651-.112-5.319-.006-7.973a7.916,7.916,0,0,1,6.969-7.475c-.644,4.629-.83,9.248.553,13.787.549,1.8.891,3.726,2.7,4.877,1.441.918,2.841,1.546,4.176-.042.73-.868,1.093-.182,1.6.193,1.861,1.369,3.506,3.646,6.22,1.409.474-.39.905.191,1.281.484,1.757,1.373,2.86.643,3.686-1.105a17.72,17.72,0,0,0,1.807-7.677c0-3.474.028-6.946,1.567-10.213A2.6,2.6,0,0,1,1322.05,486.016Z" fill="#cdc7c5"/>
    <path id="Path_2259" data-name="Path 2259" d="M1442.55,299.062c-1.182,3.277-2.63,6.354-6.005,7.98-2.234-.486-4.467-.982-6.7-1.455a9.681,9.681,0,0,1-5.029-2.569c-1.164-1.182-1.942-.98-3.115.059-5.25,4.646-11.348,4.751-16.721.427-3.4-2.737-4.852-8.641-3.258-13.243a12.022,12.022,0,0,1,10.383-7.721,11.419,11.419,0,0,1,4.915.552c1.033.45,1.6.229,1.526-1-.014-.249,0-.5,0-.749.078-4.04-.37-4.222-4.392-3.647-4.659.666-9.377.925-14.072,1.335-.984.086-2.01-.142-2.9.483-.115-.079-.229-.158-.345-.236-.475-2.4-1.267-4.76-.878-7.264.763-1.028,1.9-.823,2.941-.855a99.68,99.68,0,0,0,13.8-1.032,62.366,62.366,0,0,0,9.716-1.007c.045,3.41.164,6.821.111,10.23a44.76,44.76,0,0,0,.607,7.693c-1.215.375-1.763-.673-2.528-1.218-.93-.664-1.347-.419-1.386.664-.15,4.087-.195,8.157,2.193,11.77.356.539.6,1.324,1.38,1.263.8-.062.882-.9,1.114-1.494a11.184,11.184,0,0,0,.506-3.675c.043-1.04-.264-2.189.711-3.018,3.764,5.021,8.964,7.05,15.054,7.267A3.788,3.788,0,0,1,1442.55,299.062Z" fill="#fe877d"/>
    <path id="Path_2260" data-name="Path 2260" d="M1425.12,291.337c-.267,2.623.358,5.329-.9,7.864-1.016,2.056-1.6,2.242-2.8.37-1.612-2.53-2.937-5.218-2.887-8.358.03-1.833,0-3.666.013-5.5.005-.476-.172-1.079.342-1.363.61-.337,1.134.143,1.57.468.926.691,1.78,1.478,2.664,2.226C1423.79,288.476,1424.45,289.907,1425.12,291.337Z" fill="#fe7165"/>
    <path id="Path_2261" data-name="Path 2261" d="M1398.61,313.086a6.936,6.936,0,0,1-6.991-7.435,1.449,1.449,0,0,1,1.127-1.44c2.843-.866,5.7-1.7,8.549-2.536a1.24,1.24,0,0,1,1.525.486c1.985,2.95,1.07,8.842-1.658,10.332A4.575,4.575,0,0,1,1398.61,313.086Z" fill="#e15f55"/>
    <path id="Path_2262" data-name="Path 2262" d="M1391.47,280.035c.036-.169.073-.338.109-.508a4.807,4.807,0,0,1,5.363.026l.235-.036c-.163.879-.3,1.765-.5,2.636-.223.983-.558,2-1.715,2.14-1.13.139-1.766-.746-2.257-1.6S1391.88,280.925,1391.47,280.035Z" fill="#742711"/>
    <path id="Path_2263" data-name="Path 2263" d="M1314.9,483.677c.567-.091.88.046,1.012.374a1.222,1.222,0,0,1-.161,1.407c-4.12,3.267-3.081,7.867-3.241,12.177-.058,1.558-.319,3.11-.512,4.661-.064.514-.283,1.007-.88,1.016-.625.009-.752-.589-.905-1.029-.552-1.583.4-3.057.372-4.641-.055-2.961-.39-5.962.488-8.882A9.169,9.169,0,0,1,1314.9,483.677Z" fill="#fe887d"/>
    <path id="Path_2264" data-name="Path 2264" d="M1298.54,491.208c0-1.663-.027-3.326,0-4.988.049-2.684,1.724-4.417,3.662-5.915a1.41,1.41,0,0,1,2.023.117c.415.594-.316,1.076-.738,1.39-2.638,1.962-3.167,4.656-2.978,7.733.148,2.4.05,4.821.016,7.231-.01.677.262,1.7-.932,1.618-.955-.068-1.05-.918-1.052-1.7Q1298.538,493.951,1298.54,491.208Z" fill="#fe887d"/>
    <path id="Path_2265" data-name="Path 2265" d="M1304.04,493.105c.253-2.513-.754-5.613,1.318-8.247.152-.193.212-.47.385-.634.989-.934,2.3-2.694,3.334-1.828,1.29,1.078-.815,1.884-1.439,2.79a7.473,7.473,0,0,0-1.621,4.572c.082,2.982.038,5.967.017,8.951-.005.786.2,1.85-1.108,1.753-1.094-.081-.865-1.038-.877-1.739C1304.02,496.982,1304.04,495.241,1304.04,493.105Z" fill="#fe887d"/>
    <path id="Path_2266" data-name="Path 2266" d="M1396.94,279.553l-5.363-.026a3.777,3.777,0,0,1-.577-2.448c.012-.573.038-1.146.036-1.719-.018-4.218.749-4.741,4.917-3.344A14.644,14.644,0,0,1,1396.94,279.553Z" fill="#3d0302"/>
    <path id="Path_2267" data-name="Path 2267" d="M1630.55,859.56c5.195,2.452,10.314,5.019,14.551,9.026a23.781,23.781,0,0,1,7.88,16.429,3.2,3.2,0,0,1-1.13,2.845c-17.671,15.691-47.267,17.79-67.022,4.709a11.163,11.163,0,0,1-.92-.788c2.561-1.1,4.995-2.062,7.356-3.177,6.848-3.234,13.07-7.315,17.549-13.6a20.451,20.451,0,0,0,3.856-9.353A23.334,23.334,0,0,0,1630.55,859.56Z" fill="#2a2928"/>
    <path id="Path_2268" data-name="Path 2268" d="M1522.08,835.075c-.24-10.218-.117-20.4,2.449-30.4a81.637,81.637,0,0,1,17.9-34.308c13.46-15.276,30.484-24.175,50.041-28.811,10.849-2.572,21.856-2.7,32.9-2.456a17.068,17.068,0,0,1,2.683.482c-4.023,2.547-8.533,4.049-12.889,5.843-12.583,5.182-25.237,10.193-37.872,15.247-5.393,2.157-10.864,4.126-16.2,6.413-4.69,2.01-7.693,6.064-10.5,10.035-7.906,11.173-13.672,23.515-19.159,36.005-3.073,6.995-5.912,14.08-8.772,21.159A3.54,3.54,0,0,1,1522.08,835.075Z" fill="#d2ccca"/>
    <path id="Path_2269" data-name="Path 2269" d="M1596.56,856.072c-2.078,4.79-3.969,9.665-7.059,13.955-3.848,5.342-8.5,9.514-15.074,11.215a3.159,3.159,0,0,1-3.828-1.218c-8.914-11.082-13.043-23.77-12.981-37.909,10.633-.027,21.266-.075,31.9-.065,2.346,0,3.991.642,3.861,3.672C1593.22,849.459,1595.17,852.718,1596.56,856.072Z" fill="#2a2928"/>
    <path id="Path_2270" data-name="Path 2270" d="M1077.48,822.042c.613-1.838.774-3.832,1.9-5.494,3.137,2.335,5.519,5.442,8.317,8.281C1084.41,823.331,1081.11,822.06,1077.48,822.042Z" fill="#b7b2b0"/>
    <path id="Path_2271" data-name="Path 2271" d="M1096.03,830.908c-.758.572-.357,1.456-.584,2.171-1.257-1.8-2.541-3.579-3.911-5.417Q1093.778,829.285,1096.03,830.908Z" fill="#bab6b3"/>
    <path id="Path_2272" data-name="Path 2272" d="M1672.5,842.119a57.609,57.609,0,0,1-8.617,31.73c-5.073-13.381-10.381-26.317-25.313-31.783q8.475,0,16.949,0,8.494.015,16.989.057Z" fill="#2a2928"/>
    <path id="Path_2273" data-name="Path 2273" d="M1361.53,777.587c-2.564,4.066-1.963,8.615-1.984,13.066-.016,3.417-.005,3.419-3.311,3.419q-35.1,0-70.2.016c-.97,0-2-.312-2.911.325-.6.243-1.061-.208-1.584-.346-.847-.179-.585-1.079-1-1.539l.041.042c-.464-1.813.993-3.262.949-4.995a15.636,15.636,0,0,1,6.566-6.246,41.954,41.954,0,0,1,14.149-4.647c9.844-1.665,19.613-3.69,29.334-5.958a5.713,5.713,0,0,1,2.466-.143c4.95.158,9.4,2.362,14.117,3.465C1352.65,775.094,1356.94,776.885,1361.53,777.587Z" fill="#4d2720"/>
    <path id="Path_2274" data-name="Path 2274" d="M1334.04,770.58c-5.483,1.9-11.227,2.7-16.854,3.994-6.937,1.594-14.048,2.318-20.935,4.159-5.322,1.423-10.109,3.779-13.744,8.091a5.546,5.546,0,0,1-.983.75c-2.033-3-1.569-6.406,1.336-9.112a20.66,20.66,0,0,1,9.967-4.879c12.6-2.709,25.441-4.012,38.159-6.045C1333.18,767.375,1333.24,769.351,1334.04,770.58Z" fill="#2c140f"/>
    <path id="Path_2275" data-name="Path 2275" d="M1280.54,792.528l1,1.539C1279.6,794.595,1280.77,793.1,1280.54,792.528Z" fill="#fefefe"/>
    <path id="Path_2276" data-name="Path 2276" d="M1438.25,274.041a5.278,5.278,0,0,1,5.291,5.136,5.369,5.369,0,0,1-5.214,5.276,5.513,5.513,0,0,1-5.2-5.061A5.352,5.352,0,0,1,1438.25,274.041Z" fill="#eaeffa"/>
    <path id="Path_2277" data-name="Path 2277" d="M1712.02,813.961a83.053,83.053,0,0,0-12.3-34.051c-8.856-13.866-20.924-24.042-35.606-31.224a105.64,105.64,0,0,0-34.462-9.746,5.009,5.009,0,0,0-1.571.223q-29.492,13.024-59.756,24.121c-7.473,2.733-13.639,6.73-18.2,13.26a166.162,166.162,0,0,0-13.174,22.938c-5.655,11.7-10.668,23.68-15.372,35.788a7.737,7.737,0,0,0-.319,1.924,7.858,7.858,0,0,0,.757,4.812l5.515-.027c7.131.094,14.263.126,21.4.179,2.732,1.3,5.624.513,8.447.641,4,.062,7.992.012,11.988.021,6.326.015,12.653-.047,18.979.028,3.336.039,3.771.391,4.23,3.563a26.2,26.2,0,0,0,3.306,9.358,22.832,22.832,0,0,0,16.887,10.469,22.407,22.407,0,0,0,18.37-6.48,22.642,22.642,0,0,0,6.588-15.438c.076-1.4.309-2.1,1.937-2.089,10.382.066,20.764.01,31.147.044a4.728,4.728,0,0,1,1.465.25,5.437,5.437,0,0,0,.868.173c2.69-.016,5.425.664,8.036-.539,7.152-.053,14.3-.088,21.455-.176.039,0,.07,0,.108,0v0l3.432.054a5.311,5.311,0,0,1,.95-.007c1.644.127,3.308,0,4.962-.021a2.28,2.28,0,0,0,.6-1.6C1712.74,831.584,1713.2,822.728,1712.02,813.961Z" fill="#e1dcd9"/>
    <g id="Group_1416" data-name="Group 1416">
      <g id="Group_1415" data-name="Group 1415">
        <path id="Path_2278" data-name="Path 2278" d="M1675.41,514.4l2.61-29.11,24.56-2.612,2.15,35.071Z" fill="#007e00" fill-rule="evenodd"/>
        <path id="Path_2279" data-name="Path 2279" d="M1675.41,514.4l29.321,3.349Z" fill="#007e00" fill-rule="evenodd"/>
        <path id="Path_2280" data-name="Path 2280" d="M1702.58,482.677l1.91,1.593,4.47,30.079-4.23,3.4Z" fill="#ff6008" fill-rule="evenodd"/>
        <path id="Path_2281" data-name="Path 2281" d="M1704.31,484.12l3.57-1.455,6.43,31.312-5.66.643Z" fill="#eb5401" fill-rule="evenodd"/>
        <path id="Path_2282" data-name="Path 2282" d="M1691.46,483.859s.78-6.884,5.414-7.551c0,0,5.607-1.2,6.858,7.336l-1.15-.968-.73.078s-1.244-5.121-4.158-4.858-3.981,3.614-4.5,5.778Z" fill="#ff6008" fill-rule="evenodd"/>
        <path id="Path_2283" data-name="Path 2283" d="M1675.41,514.4l27.17-31.722,2.15,35.071Z" fill="#006000" fill-rule="evenodd"/>
        <path id="Path_2284" data-name="Path 2284" d="M1683.68,484.867s-1.036-8.549,5.354-10.3,8.169,9.143,8.145,8.917-1.63.332-1.65.14-.737-7.443-5.266-7.688-5.266,7.513-4.985,8.987-1.6-.052-1.6-.052" fill="#007e00" fill-rule="evenodd"/>
        <path id="Path_2285" data-name="Path 2285" d="M1693.27,490.472a7,7,0,0,0-2.216,2.135,26.2,26.2,0,0,0-2.143,3.588q.75.145,1.5.351a12.357,12.357,0,0,1,1.453.5Zm-3.49,16.444,1.865-8.791a10.546,10.546,0,0,0-1.683-.605,9.995,9.995,0,0,0-1.562-.266q-.678,1.477-1.259,3.039t-.993,3.015q-.413,1.453-.654,2.724a12,12,0,0,0-.242,2.192,3.14,3.14,0,0,0,.109.993,2.023,2.023,0,0,0,.23.46q-.484,0-1.053-.048a2.858,2.858,0,0,1-1.053-.291,2.029,2.029,0,0,1-.811-.763,2.754,2.754,0,0,1-.327-1.465,8.892,8.892,0,0,1,.254-1.937,20.306,20.306,0,0,1,.727-2.41q.473-1.3,1.126-2.712t1.453-2.8a6.57,6.57,0,0,0-1.865.347,1.574,1.574,0,0,0-.969.9c.065,0,.133.081.206.242a1.2,1.2,0,0,1,.109.505.779.779,0,0,1-.4.686,1.78,1.78,0,0,1-.957.25,1.646,1.646,0,0,1-1.066-.351,1.27,1.27,0,0,1-.436-1.053,1.994,1.994,0,0,1,.375-1.15,3.474,3.474,0,0,1,1.029-.957,5.461,5.461,0,0,1,1.55-.642,7.787,7.787,0,0,1,1.937-.23q.532,0,1.308.073a32.182,32.182,0,0,1,1.949-2.741,18.839,18.839,0,0,1,2.119-2.268,10.324,10.324,0,0,1,2.2-1.542,4.821,4.821,0,0,1,2.2-.569,6.734,6.734,0,0,1,.9.073,3.556,3.556,0,0,1,.969.266l-3.8,17.824h-3.487Z" fill="#fff"/>
      </g>
    </g>
  </g>
</svg>
