<svg xmlns="http://www.w3.org/2000/svg" width="156.254" height="137.22" viewBox="0 0 156.254 137.22">
  <g id="freepik--Character--inject-31" transform="translate(-332.402 -152.271)">
    <path id="Path_2487" data-name="Path 2487" d="M554.634,252.13s7.093,1.2,7.664,1.35,2.819,1.218,2.933,1.9a20.566,20.566,0,0,1,0,2.7s-.409.33-.66-.33a6.732,6.732,0,0,1-.215-1.965l-1.258-.484.686,1.218.114,2.854s-.879-.079-1.051-.761a6.733,6.733,0,0,1-.167-1.447l-.915-.774.686.928.229,2.053s-.668.22-.879-.237a7.08,7.08,0,0,1-.229-1.816l-2.586-.906-1.711.954-3.2-1.785Z" transform="translate(-124.204 -55.95)" fill="#ffbe9d"/>
    <path id="Path_2488" data-name="Path 2488" d="M494.367,212.26c.035.141,8.548,11.872,8.548,11.872l17.1,5.32-.778,6.424-20.961-4.221-7.44-8.539Z" transform="translate(-88.771 -33.611)" fill="#ff725e"/>
    <g id="Group_1427" data-name="Group 1427" transform="translate(402.069 178.649)" opacity="0.2">
      <path id="Path_2489" data-name="Path 2489" d="M494.367,212.26c.035.141,8.548,11.872,8.548,11.872l17.1,5.32-.778,6.424-20.961-4.221-7.44-8.539Z" transform="translate(-490.84 -212.26)"/>
    </g>
    <rect id="Rectangle_832" data-name="Rectangle 832" width="37.63" height="6.811" rx="3.05" transform="translate(339.511 194.782)" fill="#f5f5f5"/>
    <path id="Path_2490" data-name="Path 2490" d="M384.719,255.565a1.193,1.193,0,0,0,.22-.031,1.319,1.319,0,0,0,1.073-1.156v-4.314a1.319,1.319,0,0,0-.44-.941,1.28,1.28,0,0,0-.5-.259,2.019,2.019,0,0,0-.594-.04h-4.076l-30.608.035a1.231,1.231,0,0,0-.91.4,1.262,1.262,0,0,0-.317.945v3.847a1.838,1.838,0,0,0,.044.5,1.24,1.24,0,0,0,1.051.9h8.645l13.759.026,9.278.035,2.524.022h0l-2.524.022-9.278.035-13.759.026h-8.7a1.5,1.5,0,0,1-.545-.176,1.456,1.456,0,0,1-.695-.879,1.785,1.785,0,0,1-.053-.563v-3.83a1.517,1.517,0,0,1,.383-1.1,1.442,1.442,0,0,1,1.077-.475l30.608.035h4.076a2.531,2.531,0,0,1,.629.053,1.39,1.39,0,0,1,.545.29,1.416,1.416,0,0,1,.488,1.033v2.867c0,.55,0,1.029-.022,1.46a1.39,1.39,0,0,1-.532.919,1.32,1.32,0,0,1-.607.251A.784.784,0,0,1,384.719,255.565Z" transform="translate(-8.914 -53.972)" fill="#263238"/>
    <circle id="Ellipse_209" data-name="Ellipse 209" cx="17.98" cy="17.98" r="17.98" transform="translate(451.013 253.571) rotate(-2.75)" fill="#263238"/>
    <path id="Path_2491" data-name="Path 2491" d="M604.078,420.84v.048a17.98,17.98,0,1,0,35.956.519s0-.031,0-.048Z" transform="translate(-152.216 -150.476)" fill="#263238"/>
    <path id="Path_2492" data-name="Path 2492" d="M616.248,405.268a12.624,12.624,0,1,0,12.8-12.439A12.624,12.624,0,0,0,616.248,405.268Z" transform="translate(-159.035 -134.781)" fill="#fafafa"/>
    <path id="Path_2493" data-name="Path 2493" d="M629.054,392.828a12.624,12.624,0,0,0-12.8,12.439l25.244.365a12.624,12.624,0,0,0-12.439-12.8Z" transform="translate(-159.037 -134.781)" fill="#e0e0e0"/>
    <path id="Path_2494" data-name="Path 2494" d="M627.469,411.625a7.691,7.691,0,1,0,7.8-7.576,7.691,7.691,0,0,0-7.8,7.576Z" transform="translate(-165.322 -141.068)" fill="#263238"/>
    <path id="Path_2495" data-name="Path 2495" d="M609.621,360.673s18.406-5.567,26.018,14.431L597.12,387.038Z" transform="translate(-148.319 -116.367)" fill="#ff725e"/>
    <circle id="Ellipse_210" data-name="Ellipse 210" cx="17.98" cy="17.98" r="17.98" transform="translate(340.083 253.573) rotate(-2.75)" fill="#263238"/>
    <path id="Path_2496" data-name="Path 2496" d="M351.788,420.84v.048a17.98,17.98,0,1,0,35.956.519v-.057Z" transform="translate(-10.86 -150.476)" fill="#263238"/>
    <path id="Path_2497" data-name="Path 2497" d="M364,405.268a12.624,12.624,0,1,0,12.8-12.439A12.624,12.624,0,0,0,364,405.268Z" transform="translate(-17.702 -134.781)" fill="#fafafa"/>
    <path id="Path_2498" data-name="Path 2498" d="M376.787,392.829A12.624,12.624,0,0,0,364,405.268l25.244.365a12.624,12.624,0,0,0-12.457-12.8Z" transform="translate(-17.704 -134.781)" fill="#e0e0e0"/>
    <path id="Path_2499" data-name="Path 2499" d="M375.179,411.625a7.691,7.691,0,1,0,7.8-7.576,7.69,7.69,0,0,0-7.8,7.576Z" transform="translate(-23.967 -141.068)" fill="#263238"/>
    <path id="Path_2500" data-name="Path 2500" d="M411.7,403.277c-.1.053-9.463-1.447-9.463-1.447h0a5.716,5.716,0,0,1-4.27,2.234c-4.045.193-8,.374-11.432.528a5.8,5.8,0,0,0-5.54,6.037h0a5.809,5.809,0,0,0,5.571,5.558l19.932.787a13.3,13.3,0,0,0,9.674-4.424h0Z" transform="translate(-27.223 -139.825)" fill="#455a64"/>
    <path id="Path_2501" data-name="Path 2501" d="M339.57,326.349s-.853-17.522,15.614-21.172V302.93h57.681v5.391s-8.464,10.2-5.716,18.661,3.628,9.331,3.628,9.331h32.829a22.425,22.425,0,0,0,4.146-12.439c.176-7.431-2.911-20.134-5.219-28.256-2.084-7.409-3.4-13.583-3.4-13.583l9.85-3.285s18.226,23.854,18.969,25.173,3.276,4.467,2.682,11.318-16.99,27.983-21.291,30.366-8.187,2.533-12.061,3.126c-3.359.519-28.212.176-34.715.075a12.752,12.752,0,0,1-6.42-1.781c-1.944-1.178-3.4-3.131-5.017-6.332l-3.443-6.7Z" transform="translate(-4.012 -70.865)" fill="#fc8019"/>
    <path id="Path_2502" data-name="Path 2502" d="M339.973,384.26l-7.264,11.38a1.759,1.759,0,0,0,2.159,2.6,8.46,8.46,0,0,0,2.44-1.653c3.32-3.162,9.234-11.49,9.234-11.49Z" transform="translate(0 -129.981)" fill="#455a64"/>
    <path id="Path_2503" data-name="Path 2503" d="M404.719,363.639a.511.511,0,0,1,.044-.167l.145-.479a12.646,12.646,0,0,0,.383-1.878,13.253,13.253,0,0,0-1.126-6.868,14.388,14.388,0,0,0-2.678-4.023,17.563,17.563,0,0,0-4.4-3.368,22.258,22.258,0,0,0-5.76-2.146,30.34,30.34,0,0,0-6.6-.682,49.686,49.686,0,0,0-6.6.488c-2.128.286-4.168.638-6.094,1.077a36.092,36.092,0,0,0-9.784,3.619,24.209,24.209,0,0,0-5.589,4.27c-.58.6-1,1.095-1.275,1.433l-.312.391a.786.786,0,0,1-.114.128,14.782,14.782,0,0,1,1.636-2.014,23.745,23.745,0,0,1,5.576-4.349A35.776,35.776,0,0,1,372,345.387c1.926-.44,3.957-.8,6.108-1.095a50.027,50.027,0,0,1,6.648-.492,30.257,30.257,0,0,1,6.631.69,22.525,22.525,0,0,1,5.813,2.2,17.681,17.681,0,0,1,4.454,3.421,14.475,14.475,0,0,1,2.687,4.089,13.191,13.191,0,0,1,1.064,6.947,11.222,11.222,0,0,1-.44,1.878c-.07.2-.123.356-.167.475A.931.931,0,0,1,404.719,363.639Z" transform="translate(-12.645 -107.311)" fill="#263238"/>
    <path id="Path_2504" data-name="Path 2504" d="M444.16,364.307c-.026,0,.092-.277.215-.778a5.69,5.69,0,0,0,.066-2.2,9.037,9.037,0,0,0-1.073-3.052,10.419,10.419,0,0,0-1.064-1.6,9.646,9.646,0,0,0-1.429-1.482,12.481,12.481,0,0,0-3.43-2.005,16.143,16.143,0,0,0-3.148-.879,20.612,20.612,0,0,0-2.2-.251,6.456,6.456,0,0,1-.809-.062.71.71,0,0,1,.211,0h.6a16.445,16.445,0,0,1,2.2.18,15.209,15.209,0,0,1,3.2.822,12.536,12.536,0,0,1,3.518,2.027,10.072,10.072,0,0,1,1.46,1.517,10.99,10.99,0,0,1,1.068,1.64,8.749,8.749,0,0,1,1.047,3.131,5.417,5.417,0,0,1-.136,2.225,3.161,3.161,0,0,1-.211.567A.774.774,0,0,1,444.16,364.307Z" transform="translate(-55.406 -111.902)" fill="#f5f5f5"/>
    <g id="Group_1428" data-name="Group 1428" transform="translate(377.458 237.025)" opacity="0.4">
      <path id="Path_2505" data-name="Path 2505" d="M434.87,345.038a23.1,23.1,0,0,1,8.684,3.518,15.35,15.35,0,0,1,5.817,7.229,12.679,12.679,0,0,1-.233,9.344l4.076.339A14.967,14.967,0,0,0,449.8,351.69a20.227,20.227,0,0,0-14.928-6.67" transform="translate(-434.87 -345.02)"/>
    </g>
    <rect id="Rectangle_833" data-name="Rectangle 833" width="43.202" height="30.828" rx="8.58" transform="translate(336.728 201.25)" fill="#455a64"/>
    <path id="Path_2506" data-name="Path 2506" d="M385.206,279.154c0,.066-9.713.114-21.691.114s-21.7-.048-21.7-.114,9.709-.114,21.7-.114S385.206,279.093,385.206,279.154Z" transform="translate(-5.277 -71.027)" fill="#263238"/>
    <path id="Path_2507" data-name="Path 2507" d="M432.42,338.264c0,.062-12.967.114-28.955.114s-28.955-.053-28.955-.114,12.963-.114,28.955-.114S432.42,338.2,432.42,338.264Z" transform="translate(-23.593 -104.146)" fill="#263238"/>
    <path id="Path_2508" data-name="Path 2508" d="M472.059,326.324a4.986,4.986,0,0,0,1.047-2.586c.088-1.447-.572-3.258-2.133-3.258H451.054a5.844,5.844,0,0,0-5.844,5.844Z" transform="translate(-63.205 -94.246)" fill="#455a64"/>
    <path id="Path_2509" data-name="Path 2509" d="M561.059,261.31l-3.465-7.224a4.4,4.4,0,0,1,1.759-5.65l10.36-6.178a3.474,3.474,0,0,1,1.79-.5h2.238l.879,14.6-3.447,1.332,2.2,3.553Z" transform="translate(-125.941 -50.14)" fill="#ff725e"/>
    <path id="Path_2510" data-name="Path 2510" d="M594.91,243s3.544.813,3.988,6.275-3.126,7.167-3.126,7.167Z" transform="translate(-147.08 -50.835)" fill="#ebebeb"/>
    <path id="Path_2511" data-name="Path 2511" d="M557.443,262.637s-7.163,3.395-8.038,3.957a1.668,1.668,0,0,0-.651,2.256c.809,2.027,4.16.119,4.16.119l6.67-3.333s2.563-1.209,1.614-2.726C560.138,261.212,557.443,262.637,557.443,262.637Z" transform="translate(-121.116 -61.524)" fill="#263238"/>
    <path id="Path_2512" data-name="Path 2512" d="M545.169,260.54s6.732,1.152,7.3,1.319,2.814,1.218,2.928,1.9a20.588,20.588,0,0,1,0,2.7s-.4.33-.66-.33a6.931,6.931,0,0,1-.215-1.97l-1.258-.484.686,1.218.114,2.858s-.879-.079-1.047-.765a6.677,6.677,0,0,1-.167-1.442l-.919-.778.686.928.233,2.058s-.668.215-.879-.242a7.06,7.06,0,0,1-.229-1.816l-2.586-.9-1.711.954-2.691-1.5Z" transform="translate(-118.982 -60.662)" fill="#ffbe9d"/>
    <path id="Path_2513" data-name="Path 2513" d="M562.4,232.934c0,2.726-1.253,4.934-2.8,4.934s-2.8-2.2-2.8-4.934,1.249-4.934,2.8-4.934S562.4,230.2,562.4,232.934Z" transform="translate(-125.733 -42.43)" fill="#263238"/>
    <path id="Path_2514" data-name="Path 2514" d="M564.21,245.678l1.539,5.329a1.381,1.381,0,0,0,.717-1.574c-.387-1.825-.607-3.122-1.029-4.723-.053-.158-1.227.967-1.227.967" transform="translate(-129.879 -51.785)" fill="#263238"/>
    <g id="Group_1429" data-name="Group 1429" transform="translate(401.857 208.742)" opacity="0.4">
      <path id="Path_2515" data-name="Path 2515" d="M492.4,330.33c-.15-.44-.308-.879-.44-1.35s-.3-.879-.413-1.319a14.162,14.162,0,0,1-.387-2.009c-2.594,10.553,1.367,18,8.165,18.521,9.937.765,22.052,1.319,26.95.035,8.931-2.344,12.206-9.792,12.989-11.019s7.884-14.211,3.518-26.712A183.323,183.323,0,0,0,530.843,280.7l-7.224,2.427s1.319,6.156,3.417,13.561c2.308,8.121,5.4,20.825,5.219,28.256a22.425,22.425,0,0,1-4.146,12.439H495.283s-.7-.7-2.871-7.035" transform="translate(-490.357 -280.7)"/>
    </g>
    <path id="Path_2516" data-name="Path 2516" d="M336.58,377.586l.233-2.506,59.924,6.9a5.918,5.918,0,0,1,5.136,6.912l-.268,1.517-62-9.01A3.518,3.518,0,0,1,336.58,377.586Z" transform="translate(-2.332 -124.838)" fill="#ff725e"/>
    <g id="Group_1430" data-name="Group 1430" transform="translate(334.232 250.242)" opacity="0.6">
      <path id="Path_2517" data-name="Path 2517" d="M336.58,377.586l.233-2.506,59.924,6.9a5.918,5.918,0,0,1,5.136,6.912l-.268,1.517-62-9.01A3.518,3.518,0,0,1,336.58,377.586Z" transform="translate(-336.564 -375.08)"/>
    </g>
    <g id="Group_1431" data-name="Group 1431" transform="translate(450.763 243.594)" opacity="0.3">
      <path id="Path_2518" data-name="Path 2518" d="M601.58,385.876s13.191-14.51,15.913-25.917a25.65,25.65,0,0,1,4.085.3S613.778,381.47,601.58,385.876Z" transform="translate(-601.58 -359.959)"/>
    </g>
    <path id="Path_2519" data-name="Path 2519" d="M616.431,348.34a2.12,2.12,0,0,1,.07.365c.035.242.105.6.149,1.06a16.152,16.152,0,0,1-.1,3.957,19.987,19.987,0,0,1-1.759,5.576,63.186,63.186,0,0,1-3.491,6.244,83.371,83.371,0,0,1-7.721,10.439c-1.073,1.271-1.961,2.282-2.577,2.977l-.712.8a3.062,3.062,0,0,1-.259.268,1.958,1.958,0,0,1,.224-.295l.682-.827,2.52-3.021a90.651,90.651,0,0,0,7.651-10.456,67.035,67.035,0,0,0,3.518-6.213,20.409,20.409,0,0,0,1.759-5.514,17.59,17.59,0,0,0,.171-3.9c-.031-.462-.088-.818-.106-1.064a1.948,1.948,0,0,1-.018-.387Z" transform="translate(-149.949 -109.856)" fill="#263238"/>
    <path id="Path_2520" data-name="Path 2520" d="M580.287,413.589a17.631,17.631,0,0,1-2.115-1.908,18.1,18.1,0,0,1-1.952-2.071A35.245,35.245,0,0,1,580.287,413.589Z" transform="translate(-136.609 -144.184)" fill="#263238"/>
    <path id="Path_2521" data-name="Path 2521" d="M496.43,413.224a6.107,6.107,0,0,1,.972-1.878,6.187,6.187,0,0,1,1.385-1.6c.048.048-.554.769-1.2,1.724S496.492,413.25,496.43,413.224Z" transform="translate(-91.903 -144.263)" fill="#263238"/>
    <path id="Path_2522" data-name="Path 2522" d="M430.789,419.657a8.856,8.856,0,0,0,1.8-2.287,7.871,7.871,0,0,0,.879-3.012,7,7,0,0,0-3.157-6.6,7.857,7.857,0,0,0-2.893-1.209,8.844,8.844,0,0,0-2.906-.04.85.85,0,0,1,.193-.057,4.791,4.791,0,0,1,.58-.114,6.9,6.9,0,0,1,2.163.053,7.867,7.867,0,0,1,2.981,1.192,7.106,7.106,0,0,1,3.249,6.811,7.865,7.865,0,0,1-.95,3.078,6.815,6.815,0,0,1-1.319,1.715,4.516,4.516,0,0,1-.44.383.823.823,0,0,1-.18.084Z" transform="translate(-51.607 -142.319)" fill="#263238"/>
    <path id="Path_2523" data-name="Path 2523" d="M388.653,420.849a9.443,9.443,0,0,1-.215-2.111,9.984,9.984,0,0,1,0-2.128,19.732,19.732,0,0,1,.2,4.239Z" transform="translate(-31.364 -148.106)" fill="#263238"/>
    <path id="Path_2524" data-name="Path 2524" d="M391.951,420.848a20.357,20.357,0,0,1-.541-4.248,10.338,10.338,0,0,1,.383,2.111,10.235,10.235,0,0,1,.158,2.137Z" transform="translate(-33.061 -148.101)" fill="#263238"/>
    <path id="Path_2525" data-name="Path 2525" d="M407.389,333.624c0,.062-7.286.114-16.269.114s-16.269-.053-16.269-.114,7.286-.114,16.269-.114S407.389,333.558,407.389,333.624Z" transform="translate(-23.783 -101.546)" fill="#263238"/>
    <path id="Path_2526" data-name="Path 2526" d="M395.044,286.252c-.066,0-.114-8.354-.114-18.635s.031-18.617.114-18.617.114,8.355.114,18.639S395.106,286.252,395.044,286.252Z" transform="translate(-35.034 -54.196)" fill="#263238"/>
    <path id="Path_2527" data-name="Path 2527" d="M384.99,286.193c-.062,0,.251-8.354.7-18.626s.879-18.622.923-18.617-.246,8.354-.695,18.626S385.074,286.2,384.99,286.193Z" transform="translate(-29.46 -54.168)" fill="#263238"/>
    <path id="Path_2528" data-name="Path 2528" d="M356.055,418.007a1.43,1.43,0,0,1-.193-.2c-.114-.132-.3-.321-.51-.589a16.882,16.882,0,0,1-1.622-2.383A18.217,18.217,0,0,1,353.8,396.6a16.556,16.556,0,0,1,1.64-2.37c.211-.268.4-.44.519-.589s.189-.2.193-.189a1.108,1.108,0,0,1-.158.22c-.105.145-.286.339-.484.616a18.822,18.822,0,0,0-.092,22.878c.193.277.369.475.475.62S356.064,418,356.055,418.007Z" transform="translate(-10.599 -135.129)" fill="#455a64"/>
    <path id="Path_2529" data-name="Path 2529" d="M497.063,373.11l-.136.255-2.656,4.973-3.711,3.57,7.418,9.876,6.178-1.025s-.69-1.411-3.795-1.684l-1.174-5.9,4.357-6.754" transform="translate(-88.614 -123.734)" fill="#455a64"/>
    <path id="Path_2530" data-name="Path 2530" d="M490.58,392.181,498,402.057l6.178-1.025-.849-.813-5.07.554-6.886-9.353Z" transform="translate(-88.625 -133.993)" fill="#e0e0e0"/>
    <path id="Path_2531" data-name="Path 2531" d="M509.533,402.934c-.035.07-.44-.075-.879.022s-.8.347-.853.295.22-.466.8-.567S509.581,402.877,509.533,402.934Z" transform="translate(-98.27 -140.292)" fill="#263238"/>
    <path id="Path_2532" data-name="Path 2532" d="M508.695,399.293c-.053.053-.391-.264-.879-.281s-.879.277-.919.22.031-.136.189-.264a1.192,1.192,0,0,1,.739-.229,1.157,1.157,0,0,1,.721.277A.488.488,0,0,1,508.695,399.293Z" transform="translate(-97.761 -138.093)" fill="#263238"/>
    <path id="Path_2533" data-name="Path 2533" d="M508.2,394.839c-.062.048-.334-.273-.787-.352s-.818.128-.879.062.04-.128.2-.22a1.086,1.086,0,0,1,1.319.237C508.208,394.707,508.234,394.822,508.2,394.839Z" transform="translate(-97.556 -135.552)" fill="#263238"/>
    <path id="Path_2534" data-name="Path 2534" d="M511.566,390.636c-.066.035-.3-.286-.726-.47s-.813-.158-.831-.233.44-.255.945,0S511.641,390.614,511.566,390.636Z" transform="translate(-99.511 -133.085)" fill="#263238"/>
    <path id="Path_2535" data-name="Path 2535" d="M512.742,385.591c-.031.022-.273-.189-.646-.558l-.633-.655a2.022,2.022,0,0,1-.369-.44.5.5,0,0,1-.026-.383.382.382,0,0,1,.339-.255,1.125,1.125,0,0,1,.629.2,2.316,2.316,0,0,1,.44.365,2.141,2.141,0,0,1,.47.84,1.156,1.156,0,0,1,0,.879,6.6,6.6,0,0,0-.185-.8,2.2,2.2,0,0,0-.47-.726,2.017,2.017,0,0,0-.4-.308,1.025,1.025,0,0,0-.466-.163.114.114,0,0,0-.106.075.237.237,0,0,0,0,.18,1.945,1.945,0,0,0,.308.387l.6.7A2.635,2.635,0,0,1,512.742,385.591Z" transform="translate(-100.089 -129.443)" fill="#263238"/>
    <path id="Path_2536" data-name="Path 2536" d="M515.385,386.984c-.031,0-.062-.325.211-.752a1.565,1.565,0,0,1,1.759-.638.3.3,0,0,1,.132.207.371.371,0,0,1-.044.207.881.881,0,0,1-.189.233,2.941,2.941,0,0,1-.4.321,2.739,2.739,0,0,1-.774.361,1.266,1.266,0,0,1-.774.057c0-.044.286-.07.712-.242a3.078,3.078,0,0,0,.69-.383,2.8,2.8,0,0,0,.352-.308.7.7,0,0,0,.136-.163c.022-.062,0-.044,0-.057a.488.488,0,0,0-.189-.04,1.363,1.363,0,0,0-.233,0,1.539,1.539,0,0,0-.44.106,1.508,1.508,0,0,0-.611.44,5.448,5.448,0,0,0-.343.651Z" transform="translate(-102.481 -130.692)" fill="#263238"/>
    <path id="Path_2537" data-name="Path 2537" d="M499.839,390.069a.743.743,0,1,1-.853-.611A.743.743,0,0,1,499.839,390.069Z" transform="translate(-92.986 -132.888)" fill="#e0e0e0"/>
    <path id="Path_2538" data-name="Path 2538" d="M556.55,382.42l1.983,12.875,16.036-2.383c-.325-1.517-9.076-3.359-9.076-3.359l-.932-8.3Z" transform="translate(-125.588 -128.295)" fill="#455a64"/>
    <path id="Path_2539" data-name="Path 2539" d="M564.9,400.154a.66.66,0,0,0-.343.813.642.642,0,0,0,.8.347.7.7,0,0,0,.356-.879.66.66,0,0,0-.879-.268" transform="translate(-130.051 -138.853)" fill="#e0e0e0"/>
    <path id="Path_2540" data-name="Path 2540" d="M560.87,409.218l-.15-1.319,15.429-1.8s.761.207.756.721Z" transform="translate(-127.924 -142.218)" fill="#e0e0e0"/>
    <path id="Path_2541" data-name="Path 2541" d="M575.747,399.8c0,.079-.374.172-.726.479s-.5.668-.58.651-.026-.492.4-.857S575.755,399.73,575.747,399.8Z" transform="translate(-135.594 -138.666)" fill="#263238"/>
    <path id="Path_2542" data-name="Path 2542" d="M580.339,400.844c.031.075-.29.255-.506.629s-.242.73-.321.739-.193-.44.084-.879S580.326,400.769,580.339,400.844Z" transform="translate(-138.402 -139.261)" fill="#263238"/>
    <path id="Path_2543" data-name="Path 2543" d="M584.175,403.286c-.07.031-.237-.347-.1-.8s.479-.686.523-.624-.15.325-.259.7S584.25,403.269,584.175,403.286Z" transform="translate(-140.98 -139.835)" fill="#263238"/>
    <path id="Path_2544" data-name="Path 2544" d="M574.381,395.374c0,.075-.4.022-.836.114s-.761.29-.813.229.242-.391.756-.5S574.412,395.3,574.381,395.374Z" transform="translate(-134.651 -136.104)" fill="#263238"/>
    <path id="Path_2545" data-name="Path 2545" d="M571.692,390.151a1.526,1.526,0,0,1-.8.114,3.682,3.682,0,0,1-.879-.132,3.771,3.771,0,0,1-.514-.163.877.877,0,0,1-.268-.154.334.334,0,0,1-.1-.409.44.44,0,0,1,.317-.233,1,1,0,0,1,.3,0,2.494,2.494,0,0,1,.528.1,2.915,2.915,0,0,1,.813.374c.44.29.594.563.567.585s-.251-.189-.668-.418a3.133,3.133,0,0,0-.778-.295,2.369,2.369,0,0,0-.484-.075c-.176,0-.321,0-.352.084s0,.04.031.088a.813.813,0,0,0,.2.11,4.73,4.73,0,0,0,.462.18,4.523,4.523,0,0,0,.822.18A5.657,5.657,0,0,1,571.692,390.151Z" transform="translate(-132.617 -132.729)" fill="#263238"/>
    <path id="Path_2546" data-name="Path 2546" d="M574.324,388.357a1.375,1.375,0,0,1-.33-.743,2.718,2.718,0,0,1,0-.879,3.005,3.005,0,0,1,.132-.519.668.668,0,0,1,.44-.479.382.382,0,0,1,.369.171,1.148,1.148,0,0,1,.128.286,1.789,1.789,0,0,1,.079.541,1.868,1.868,0,0,1-.22.879c-.251.44-.563.6-.572.576a3.315,3.315,0,0,0,.4-.66,1.834,1.834,0,0,0,.141-.791,1.549,1.549,0,0,0-.084-.462c-.048-.167-.132-.295-.193-.268a.575.575,0,0,0-.242.3,2.658,2.658,0,0,0-.136.466,2.966,2.966,0,0,0-.035.822C574.236,388.049,574.364,388.339,574.324,388.357Z" transform="translate(-135.342 -130.806)" fill="#263238"/>
    <path id="Path_2547" data-name="Path 2547" d="M510.34,314.318l-13.75,29.962,9.08,5.452,19.013-36.052" transform="translate(-91.993 -90.436)" fill="#263238"/>
    <path id="Path_2548" data-name="Path 2548" d="M510.53,336.967l-9.863,1.583-5.905-35.238-29.175,2.115a7.107,7.107,0,0,1-2.3-.215c-8.192-2.247-7.084-12.694-6.292-14.37l40.37-1.156a8.592,8.592,0,0,1,8.759,7.4Z" transform="translate(-69.507 -76.99)" fill="#263238"/>
    <path id="Path_2549" data-name="Path 2549" d="M453.029,242.4l.145-14.9s-1.922-9.674-2.493-13.495c-.879-5.91-2.093-8.719,7.589-12.919l2.119-.818,3.276.044c3.9.295,8.02,3.825,8.117,6.156l3.777,33.581Z" transform="translate(-65.946 -26.893)" fill="#fc8019"/>
    <path id="Path_2550" data-name="Path 2550" d="M455.25,210s-2.735,5.883-2.2,11.243l10.188,9.779c2.282,2.542,5.14,3.623,8.794,3.843l21.08,2.3.585-5.514-20.042-5.681c-.8-.149-1.2-.981-1.812-1.517L455.25,210" transform="translate(-67.559 -32.345)" fill="#ff725e"/>
    <path id="Path_2551" data-name="Path 2551" d="M454.39,212.907a1.442,1.442,0,0,1,.4-.273,5.026,5.026,0,0,1,1.363-.383,7.036,7.036,0,0,1,2.278,0,2.361,2.361,0,0,1,.668.229,6.715,6.715,0,0,1,.62.44c.4.317.813.682,1.231,1.077.844.787,1.645,1.785,2.581,2.8s1.961,2.1,3.078,3.236,2.317,2.33,3.6,3.562c.646.616,1.319,1.24,2.018,1.851.356.29.708.633,1.047.954a2.532,2.532,0,0,0,1.165.686h0l20.082,5.672.092.026v.1c-.04.391-.088.809-.132,1.236-.154,1.464-.308,2.915-.44,4.278v.114h-.114L485,237.513l-4.221-.462-4.041-.409c-1.319-.145-2.59-.295-3.826-.475a17.225,17.225,0,0,1-3.544-.822,13.05,13.05,0,0,1-2.981-1.6c-.879-.62-1.706-1.266-2.467-1.9-3.012-2.568-5.224-4.868-6.758-6.433-.761-.787-1.346-1.407-1.737-1.829l-.44-.484-.145-.171s.057.048.163.154.259.268.44.471l1.759,1.8c1.552,1.543,3.781,3.826,6.8,6.371.761.629,1.574,1.271,2.458,1.882a13.147,13.147,0,0,0,2.955,1.574,17.207,17.207,0,0,0,3.518.8c1.236.176,2.511.325,3.821.466l4.041.4,4.221.462,8.926.972-.128.1c.145-1.363.3-2.814.44-4.283.048-.44.092-.844.132-1.236l.084.123-20.051-5.694h0a2.673,2.673,0,0,1-1.284-.743c-.356-.339-.677-.655-1.042-.959-.708-.616-1.372-1.244-2.018-1.86-1.284-1.236-2.48-2.436-3.592-3.579s-2.133-2.234-3.078-3.258-1.719-2.018-2.555-2.805A14.65,14.65,0,0,0,459.631,213a5.2,5.2,0,0,0-.607-.44,2.124,2.124,0,0,0-.638-.224,6.82,6.82,0,0,0-2.247-.035,5.079,5.079,0,0,0-1.359.347A3.076,3.076,0,0,0,454.39,212.907Z" transform="translate(-68.349 -33.555)" fill="#263238"/>
    <path id="Path_2552" data-name="Path 2552" d="M466.329,161.91l1.02,14.51a4.52,4.52,0,0,0,4.511,4.2h0a4.52,4.52,0,0,0,4.511-4.815c-.092-1.381-.172-2.511-.172-2.511a4.206,4.206,0,0,0,3.553-4.059c.026-2.027-.325-6.626-.624-10.153a4.6,4.6,0,0,0-4.6-4.212H472.4a6.49,6.49,0,0,0-6.072,7.04Z" transform="translate(-75.024 -1.456)" fill="#ffbe9d"/>
    <path id="Path_2553" data-name="Path 2553" d="M482.987,194.987a8.183,8.183,0,0,1-4.577-1.3s1.082,2.524,4.586,2.2Z" transform="translate(-81.807 -23.207)" fill="#eb996e"/>
    <path id="Path_2554" data-name="Path 2554" d="M492.4,174.132a.5.5,0,0,1-.484.506.475.475,0,0,1-.519-.44.506.506,0,0,1,.484-.51A.484.484,0,0,1,492.4,174.132Z" transform="translate(-89.085 -11.999)" fill="#263238"/>
    <path id="Path_2555" data-name="Path 2555" d="M491.555,171.778c-.066.066-.44-.215-.985-.215s-.932.273-.994.207.035-.149.211-.273a1.354,1.354,0,0,1,.791-.246,1.319,1.319,0,0,1,.783.255C491.511,171.628,491.581,171.747,491.555,171.778Z" transform="translate(-88.053 -10.634)" fill="#263238"/>
    <path id="Path_2556" data-name="Path 2556" d="M480.883,174.132a.5.5,0,0,1-.484.506.475.475,0,0,1-.519-.44.506.506,0,0,1,.484-.51A.484.484,0,0,1,480.883,174.132Z" transform="translate(-82.63 -11.999)" fill="#263238"/>
    <path id="Path_2557" data-name="Path 2557" d="M479.462,172.008c-.062.066-.44-.215-.985-.215s-.932.273-.989.207.031-.15.207-.273a1.354,1.354,0,0,1,.791-.246,1.319,1.319,0,0,1,.783.251C479.462,171.858,479.511,171.977,479.462,172.008Z" transform="translate(-81.28 -10.763)" fill="#263238"/>
    <path id="Path_2558" data-name="Path 2558" d="M486.171,176.054a3.6,3.6,0,0,1,.879-.158c.136,0,.268-.044.29-.136a.659.659,0,0,0-.092-.409l-.413-1.046a17.711,17.711,0,0,1-.915-2.744,18.661,18.661,0,0,1,1.134,2.66l.387,1.055a.8.8,0,0,1,.075.541.347.347,0,0,1-.229.2.972.972,0,0,1-.233.031A3.518,3.518,0,0,1,486.171,176.054Z" transform="translate(-86.014 -10.808)" fill="#263238"/>
    <path id="Path_2559" data-name="Path 2559" d="M482.78,182.63c.088,0,.088.58.589.994s1.126.352,1.13.44-.141.11-.4.119a1.46,1.46,0,0,1-.941-.33,1.266,1.266,0,0,1-.44-.835C482.675,182.793,482.741,182.626,482.78,182.63Z" transform="translate(-84.212 -17.01)" fill="#263238"/>
    <path id="Path_2560" data-name="Path 2560" d="M479.192,167.355c-.053.145-.589.079-1.222.154s-1.148.251-1.231.119.053-.2.259-.343a2.128,2.128,0,0,1,1.869-.207C479.1,167.17,479.218,167.285,479.192,167.355Z" transform="translate(-80.856 -8.225)" fill="#263238"/>
    <path id="Path_2561" data-name="Path 2561" d="M491.275,168.2c-.092.123-.466,0-.91,0s-.827.079-.915-.048.022-.185.189-.3a1.244,1.244,0,0,1,.743-.2,1.271,1.271,0,0,1,.726.246C491.266,168.013,491.319,168.136,491.275,168.2Z" transform="translate(-87.975 -8.615)" fill="#263238"/>
    <path id="Path_2562" data-name="Path 2562" d="M466.072,176.738c-.062-.026-2.414-.717-2.335,1.684a1.8,1.8,0,0,0,2.471,1.759C466.213,180.11,466.072,176.738,466.072,176.738Z" transform="translate(-73.585 -13.646)" fill="#ffbe9d"/>
    <path id="Path_2563" data-name="Path 2563" d="M466.2,180.279a.717.717,0,0,1-.11.066.44.44,0,0,1-.312,0,1.033,1.033,0,0,1-.506-.91,1.389,1.389,0,0,1,.1-.6.488.488,0,0,1,.3-.334.215.215,0,0,1,.251.11c.035.066.022.114.035.119s.048-.044.026-.141a.26.26,0,0,0-.1-.149.312.312,0,0,0-.233-.053.58.58,0,0,0-.44.387,1.394,1.394,0,0,0-.123.673,1.077,1.077,0,0,0,.642,1.016.44.44,0,0,0,.378-.075C466.2,180.337,466.207,180.284,466.2,180.279Z" transform="translate(-74.34 -14.629)" fill="#eb996e"/>
    <path id="Path_2564" data-name="Path 2564" d="M465.443,163.842a1.266,1.266,0,0,1,1.156.594c.154.343.189.73.343,1.073a.88.88,0,0,0,.879.567.739.739,0,0,0,.5-.55,1.989,1.989,0,0,0,0-.774c-.141-1.121-.374-2.229-.418-3.359a5.717,5.717,0,0,1,.708-3.263,3.14,3.14,0,0,1,2.805-1.579c.747.062,1.429.44,2.172.554a2.937,2.937,0,0,0,2.436-.813,4.874,4.874,0,0,1,.44-.33,1.359,1.359,0,0,0-.251-.739,7.1,7.1,0,0,0-10.659,2.427c-.835,1.82-.589,4.349-.128,6.191" transform="translate(-74.297 -0.834)" fill="#263238"/>
    <path id="Path_2565" data-name="Path 2565" d="M477.989,157.081s-9.208-2.964-13.191,5a14.851,14.851,0,0,1-.6-3.078,6.851,6.851,0,0,1,4.8-6.3C469,152.723,475.593,150.208,477.989,157.081Z" transform="translate(-73.845)" fill="#ff725e"/>
    <path id="Path_2566" data-name="Path 2566" d="M477.314,161.572a2.005,2.005,0,0,0,3.192.29,1.178,1.178,0,0,0,2.229-.114,2.73,2.73,0,0,0,.879.655.915.915,0,0,0,1.024-.215.879.879,0,0,0-.066-1.055,2.145,2.145,0,0,0-.932-.629,6.749,6.749,0,0,0-3.474-.528,4.692,4.692,0,0,0-3.047,1.658" transform="translate(-81.084 -4.293)" fill="#263238"/>
    <g id="Group_1432" data-name="Group 1432" transform="translate(390.355 152.272)" opacity="0.4">
      <path id="Path_2567" data-name="Path 2567" d="M477.989,157.083a4.278,4.278,0,0,0-2.929-1.319A11.567,11.567,0,0,0,464.8,162.1a14.851,14.851,0,0,1-.6-3.078,6.851,6.851,0,0,1,4.8-6.3C469,152.725,475.593,150.21,477.989,157.083Z" transform="translate(-464.2 -152.275)"/>
    </g>
    <path id="Path_2568" data-name="Path 2568" d="M466.43,161.42a17.337,17.337,0,0,1,5.364-5.136,33.783,33.783,0,0,1,8.029-3.271,5.241,5.241,0,0,1,2.221-.233,2,2,0,0,1,1.645,1.346c.229.91-1.385,2.313-2.146,2.863a24.278,24.278,0,0,1-2.3,1.363s.022-1.688-2.678-2.036C472.889,155.844,466.43,161.42,466.43,161.42Z" transform="translate(-75.094 -0.267)" fill="#ff725e"/>
    <g id="Group_1433" data-name="Group 1433" transform="translate(388.095 191.075)" opacity="0.3">
      <path id="Path_2569" data-name="Path 2569" d="M459.06,240.52a43.118,43.118,0,0,0,3.285,7.18,12.664,12.664,0,0,0,5.5,4.837,11.877,11.877,0,0,0,9.133.167c.233-.1.69-.229.646-.479,0,0-.945-.11-1.24-.158-5.773-.959-6.4-1.662-9.168-3.861-1.724-1.359-5.545-5.479-8.157-7.686" transform="translate(-459.06 -240.52)"/>
    </g>
    <path id="Path_2570" data-name="Path 2570" d="M484.23,278.46a2.413,2.413,0,0,1-.242.536,6.709,6.709,0,0,1-.932,1.319,10.113,10.113,0,0,1-4.463,2.722,20.462,20.462,0,0,1-5.206.778c-.673.026-1.218.031-1.592.031a3.406,3.406,0,0,1-.585-.026,2.575,2.575,0,0,1,.58-.066l1.587-.1a22.782,22.782,0,0,0,5.149-.835,10.465,10.465,0,0,0,4.424-2.638A11.275,11.275,0,0,0,484.23,278.46Z" transform="translate(-77.773 -70.702)" fill="#263238"/>
    <path id="Path_2571" data-name="Path 2571" d="M527.291,356.829a.442.442,0,0,1-.035-.136,2.545,2.545,0,0,0-.079-.4c-.066-.369-.163-.879-.281-1.557-.242-1.372-.58-3.329-1-5.743-.822-4.863-1.957-11.56-3.21-18.956-.558-3.351-1.09-6.552-1.579-9.476l.114.092-12.624.91-3.623.246-.967.057h-.251l.251-.031.963-.088,3.619-.308L521.2,320.43h.1v.1c.492,2.924,1.033,6.125,1.6,9.471,1.227,7.4,2.335,14.1,3.144,18.969.387,2.418.7,4.4.928,5.751l.237,1.57c.026.167.044.3.057.4A.568.568,0,0,1,527.291,356.829Z" transform="translate(-95.96 -94.218)" fill="#455a64"/>
    <path id="Path_2572" data-name="Path 2572" d="M546.255,313.54c.04.053-.73.712-1.6,1.6s-1.521,1.667-1.574,1.623A10.475,10.475,0,0,1,546.255,313.54Z" transform="translate(-118.041 -90.357)" fill="#455a64"/>
    <path id="Path_2573" data-name="Path 2573" d="M477.109,203.052a.735.735,0,0,1,.053.145,2.061,2.061,0,0,1,.084.44,3.61,3.61,0,0,1-.211,1.6,4.1,4.1,0,0,1-1.451,1.9,4.4,4.4,0,0,1-2.819.756,5.092,5.092,0,0,1-2.739-1.029,5.818,5.818,0,0,1-1.557-1.816,6.28,6.28,0,0,1-.6-1.5,4.221,4.221,0,0,1-.088-.44.432.432,0,0,1,0-.154,9.98,9.98,0,0,0,.831,2,6.029,6.029,0,0,0,1.543,1.728,4.982,4.982,0,0,0,2.638.967,4.27,4.27,0,0,0,2.687-.7,4.054,4.054,0,0,0,1.416-1.785,3.733,3.733,0,0,0,.277-1.535C477.144,203.263,477.109,203.061,477.109,203.052Z" transform="translate(-75.849 -28.401)" fill="#263238"/>
    <path id="Path_2574" data-name="Path 2574" d="M501.37,231.858a1.842,1.842,0,0,1-.1-.44c-.048-.347-.106-.77-.176-1.258-.145-1.121-.334-2.564-.541-4.16s-.356-3.078-.44-4.168c-.048-.532-.079-.967-.1-1.266a1.727,1.727,0,0,1,0-.466,2.168,2.168,0,0,1,.092.44c.048.347.106.765.172,1.258.141,1.121.321,2.564.519,4.16s.369,3.078.475,4.164c.048.536.084.967.106,1.271A2,2,0,0,1,501.37,231.858Z" transform="translate(-93.906 -38.004)" fill="#263238"/>
  </g>
</svg>
