<svg xmlns="http://www.w3.org/2000/svg" width="114" height="130.286" viewBox="0 0 114 130.286">
  <g id="stopwatch" transform="translate(-32)">
    <path id="Path_2575" data-name="Path 2575" d="M134.465,38.913c.021-.021.047-.034.068-.055l4.25-4.25a6.413,6.413,0,0,0-9.069-9.069l-4.085,4.086A56.733,56.733,0,0,0,93.071,16.446v-8.3h8.143a4.071,4.071,0,0,0,0-8.143H76.786a4.071,4.071,0,1,0,0,8.143h8.143v8.3A56.736,56.736,0,0,0,52.77,29.28l-3.74-3.742a6.413,6.413,0,0,0-9.069,9.069l3.9,3.9a57,57,0,1,0,90.608.409ZM89,122.143a48.857,48.857,0,1,1,48.857-48.857A48.857,48.857,0,0,1,89,122.143Z" fill="#282c3f"/>
    <circle id="Ellipse_211" data-name="Ellipse 211" cx="49" cy="49" r="49" transform="translate(40 24.286)" fill="#fff"/>
    <path id="Path_2576" data-name="Path 2576" d="M169.587,171.051a2.036,2.036,0,0,1,0-4.071h8.04A40.644,40.644,0,0,0,139.051,128.4v8.04a2.036,2.036,0,0,1-4.071,0V128.4A40.644,40.644,0,0,0,96.4,166.98h8.04a2.036,2.036,0,1,1,0,4.071H96.4a40.644,40.644,0,0,0,38.576,38.576v-8.04a2.036,2.036,0,1,1,4.071,0v8.04a40.644,40.644,0,0,0,38.576-38.576Z" transform="translate(-48.015 -95.73)" fill="#fc8019"/>
    <path id="Path_2577" data-name="Path 2577" d="M265.414,177.193a4.07,4.07,0,0,0-5.757,0l-21.232,21.232c-.108-.006-.209-.032-.318-.032a6.107,6.107,0,1,0,6.107,6.107c0-.109-.026-.21-.032-.318l21.232-21.232A4.07,4.07,0,0,0,265.414,177.193Z" transform="translate(-149.107 -131.214)" fill="#003953"/>
  </g>
</svg>
