<svg xmlns="http://www.w3.org/2000/svg" width="145.353" height="135.55" viewBox="0 0 145.353 135.55">
  <g id="basket" transform="translate(-8 -25.45)">
    <g id="Group_1436" data-name="Group 1436" transform="translate(10.344 26.177)">
      <g id="Group_1435" data-name="Group 1435" transform="translate(0 0)">
        <path id="Path_2578" data-name="Path 2578" d="M16,168H156.664v9.378H16Z" transform="translate(-16 -126.953)" fill="#3e3d42"/>
        <path id="Path_2579" data-name="Path 2579" d="M146.468,200h23.441l-8.2,60.318a11.72,11.72,0,0,1-11.6,10.013H67.543a11.725,11.725,0,0,1-11.6-10.061L48,200H71.441" transform="translate(-38.622 -149.575)" fill="#fc8019"/>
        <g id="Group_1434" data-name="Group 1434" transform="translate(30.389)">
          <rect id="Rectangle_834" data-name="Rectangle 834" width="9.378" height="56.265" rx="4.689" transform="translate(45.397 4.361) rotate(-27.719)" fill="#d8d7da"/>
          <rect id="Rectangle_835" data-name="Rectangle 835" width="9.378" height="56.265" rx="4.689" transform="translate(8.299 54.156) rotate(-152.281)" fill="#d8d7da"/>
          <path id="Path_2580" data-name="Path 2580" d="M144,240h9.378v46.888H144Z" transform="translate(-136.879 -177.853)" fill="#fff"/>
          <path id="Path_2581" data-name="Path 2581" d="M336,240h9.378v46.888H336Z" transform="translate(-272.613 -177.853)" fill="#fff"/>
          <path id="Path_2582" data-name="Path 2582" d="M280,240h9.378v46.888H280Z" transform="translate(-233.024 -177.853)" fill="#fff"/>
          <path id="Path_2583" data-name="Path 2583" d="M208,240h9.378v46.888H208Z" transform="translate(-182.124 -177.853)" fill="#fff"/>
        </g>
      </g>
      <path id="Path_2584" data-name="Path 2584" d="M414.184,380.133l-13.773,9.378-14.066-9.378L384,356.689,400.411,352l16.411,4.689Z" transform="translate(-276.158 -257.032)" fill="#ffda44"/>
      <path id="Path_2585" data-name="Path 2585" d="M411.3,393.77l-1.429-14.288,8.828-2.522,8.756,2.5-1.611,14.32-7.187,4.893Z" transform="translate(-294.451 -274.677)" fill="#fc8019"/>
    </g>
    <g id="Group_1437" data-name="Group 1437" transform="translate(8 25.45)">
      <path id="Path_2586" data-name="Path 2586" d="M151.008,78.946a2.344,2.344,0,0,0,2.344-2.344V67.224a2.344,2.344,0,0,0-2.344-2.344H117.454L98.708,29.213a7.033,7.033,0,1,0-12.452,6.544L101.562,64.88H59.791L75.1,35.757a7.033,7.033,0,1,0-12.452-6.544L43.9,64.88H10.344A2.344,2.344,0,0,0,8,67.224V76.6a2.344,2.344,0,0,0,2.344,2.344h7.32L25.34,137.2a14.136,14.136,0,0,0,13.926,12.077h78.909l.023.234a2.349,2.349,0,0,0,1.032,1.717l14.066,9.378a2.359,2.359,0,0,0,1.3.393,2.331,2.331,0,0,0,1.319-.407l13.773-9.378a2.341,2.341,0,0,0,1.011-1.676l2.637-23.444a2.34,2.34,0,0,0-1.685-2.514l-13.515-3.862,5.542-40.772Zm-60.6-45.37a2.344,2.344,0,1,1,4.15-2.183L116.37,72.9a2.344,2.344,0,0,1-4,2.421.712.712,0,0,0-.041-.059c-.035-.059-.073-.117-.105-.182Zm13.621,35.992,2.465,4.689H54.862l2.465-4.689ZM44.983,72.9,66.8,31.393a2.344,2.344,0,1,1,4.15,2.183l-21.815,41.5c-.032.064-.07.123-.105.182a.713.713,0,0,0-.041.059,2.344,2.344,0,0,1-4-2.421Zm-32.294,1.36V69.569H41.434l-.6,1.149a7.023,7.023,0,0,0-.8,3.54Zm135.767,53.285-2.295,20.405-11.578,7.88-11.83-7.886-.123-1.243v-.009l-1.917-19.139,13.885-3.968ZM133.5,119.021l-15.959,4.56a2.343,2.343,0,0,0-1.688,2.488l1.852,18.521H39.265a9.42,9.42,0,0,1-9.281-8.024l-7.59-57.619H42.067a7.034,7.034,0,0,0,9.981,0H109.3a7.031,7.031,0,0,0,8.264,1.269,7.11,7.11,0,0,0,1.717-1.269h19.661ZM121.325,74.257a7.023,7.023,0,0,0-.8-3.54l-.6-1.149h28.745v4.689Z" transform="translate(-8 -25.45)"/>
      <path id="Path_2587" data-name="Path 2587" d="M153.378,232h-7.033A2.344,2.344,0,0,0,144,234.344v46.888a2.344,2.344,0,0,0,2.344,2.344h7.033a2.344,2.344,0,0,0,2.344-2.344V234.344A2.344,2.344,0,0,0,153.378,232Zm-2.344,46.888h-2.344v-42.2h2.344Z" transform="translate(-104.145 -171.471)"/>
      <path id="Path_2588" data-name="Path 2588" d="M217.378,232h-7.033A2.344,2.344,0,0,0,208,234.344v46.888a2.344,2.344,0,0,0,2.344,2.344h7.033a2.344,2.344,0,0,0,2.344-2.344V234.344A2.344,2.344,0,0,0,217.378,232Zm-2.344,46.888h-2.344v-42.2h2.344Z" transform="translate(-149.39 -171.471)"/>
      <path id="Path_2589" data-name="Path 2589" d="M281.378,232h-7.033A2.344,2.344,0,0,0,272,234.344v46.888a2.344,2.344,0,0,0,2.344,2.344h7.033a2.344,2.344,0,0,0,2.344-2.344V234.344A2.344,2.344,0,0,0,281.378,232Zm-2.344,46.888h-2.344v-42.2h2.344Z" transform="translate(-194.635 -171.471)"/>
      <path id="Path_2590" data-name="Path 2590" d="M337.378,232h-7.033A2.344,2.344,0,0,0,328,234.344v46.888a2.344,2.344,0,0,0,2.344,2.344h7.033a2.344,2.344,0,0,0,2.344-2.344V234.344A2.344,2.344,0,0,0,337.378,232Zm-2.344,46.888h-2.344v-42.2h2.344Z" transform="translate(-234.224 -171.471)"/>
      <path id="Path_2591" data-name="Path 2591" d="M412.4,369.049l-8.828,2.522a2.344,2.344,0,0,0-1.689,2.487l1.429,14.288a2.344,2.344,0,0,0,1.032,1.717l7.358,4.905a2.344,2.344,0,0,0,2.62-.013l7.187-4.894a2.346,2.346,0,0,0,1.01-1.676l1.612-14.32a2.344,2.344,0,0,0-1.686-2.516l-8.756-2.5a2.341,2.341,0,0,0-1.289,0Zm6.849,6.465-1.269,11.279-4.991,3.4-5.121-3.414-1.124-11.237,6.3-1.8Z" transform="translate(-286.449 -268.293)"/>
    </g>
  </g>
</svg>
