<?xml version="1.0" encoding="utf-8"?>
<!-- Generator: Adobe Illustrator 17.0.0, SVG Export Plug-In . SVG Version: 6.00 Build 0)  -->
<!DOCTYPE svg PUBLIC "-//W3C//DTD SVG 1.1//EN" "http://www.w3.org/Graphics/SVG/1.1/DTD/svg11.dtd">
<svg version="1.1" id="Layer_1" xmlns="http://www.w3.org/2000/svg" xmlns:xlink="http://www.w3.org/1999/xlink" x="0px" y="0px"
	 width="110px" height="71.167px" viewBox="0 0 110 71.167" enable-background="new 0 0 110 71.167" xml:space="preserve">
<g>
	<g>
		<g>
			<path fill="#F29F5C" d="M82.636,34.111L80.404,15.98l-4.183,0.515l0.002-0.003l-8.109-4.563
				c-0.865-0.487-1.858-0.698-2.846-0.607l-12.803,1.184c-1.574,0.146-2.98,1.044-3.774,2.41l-9.024,15.532
				c-0.666,1.147-0.143,2.618,1.098,3.086l0.369,0.139c0.71,0.268,1.44,0.424,2.17,0.484l-1.143,0.996l-2.288,1.993l-6.506,5.55
				c-1.158,1.009-1.279,2.765-0.27,3.923l0.66,0.756c1.296,1.486,3.551,1.64,5.039,0.344l2.487,2.852
				c0.808,0.928,1.993,1.339,3.131,1.199c0.684-0.084,1.351-0.368,1.908-0.855l2.484,2.852c0.811,0.931,1.996,1.339,3.134,1.199
				c0.684-0.084,1.351-0.365,1.909-0.852l1.35,1.167c1.296,1.488,3.554,1.642,5.042,0.346l1.835-1.601l15.427-12.015l0.017-0.015
				l6.087-0.006L82.636,34.111z"/>
			<path fill="#D37D42" d="M76.024,37.326l-0.017,0.015L60.58,49.356l-1.835,1.601c-1.488,1.296-3.746,1.142-5.042-0.346
				l-1.35-1.167c-0.557,0.487-1.225,0.768-1.909,0.852c-1.138,0.14-2.322-0.268-3.134-1.199l-2.484-2.852
				c-0.557,0.487-1.225,0.771-1.908,0.855c-1.138,0.14-2.322-0.27-3.131-1.199l-2.487-2.852c-1.274,1.11-3.109,1.153-4.424,0.211
				c-0.674,1.017-0.621,2.395,0.22,3.361l0.66,0.756c1.296,1.486,3.551,1.64,5.039,0.344l2.487,2.852
				c0.808,0.928,1.993,1.339,3.131,1.199c0.684-0.084,1.351-0.368,1.908-0.855l2.484,2.853c0.811,0.931,1.996,1.339,3.134,1.199
				c0.684-0.084,1.351-0.365,1.909-0.852l1.35,1.167c1.296,1.488,3.554,1.642,5.042,0.346l1.835-1.601l15.427-12.015l0.017-0.015
				l6.087-0.006l-0.673-5.47L76.024,37.326z"/>
		</g>
		<g>
			<path fill="#F9C295" d="M78.833,45.168l-8.266-7.127l-2.299-1.98l-1.645-1.416l-7.072-6.096l0.817-6.952
				c0.276-2.351-1.204-4.553-3.486-5.184l-15.415-4.265c-1.631-0.451-3.355,0.305-4.126,1.812l-1.939,3.784l-8.321-0.565
				l-2.131,18.144l-0.926,7.885l8.1,0.539l0.017,0.015l16.921,14.586l1.844,1.591c1.496,1.288,3.752,1.121,5.04-0.374l2.468-2.864
				c0.56,0.484,1.229,0.761,1.913,0.842c1.139,0.134,2.321-0.281,3.127-1.216l2.468-2.866c0.56,0.484,1.229,0.764,1.913,0.844
				c1.139,0.134,2.321-0.283,3.124-1.216l2.471-2.866c1.496,1.288,3.75,1.121,5.037-0.372l0.656-0.76
				C80.127,47.926,79.997,46.171,78.833,45.168z"/>
			<path fill="#E59F6A" d="M78.833,45.168l-2.518-2.171c0.818,1.085,0.801,2.629-0.122,3.701l-0.696,0.806
				c-1.367,1.585-3.76,1.762-5.347,0.395l-2.623,3.042c-0.853,0.99-2.108,1.433-3.317,1.291c-0.726-0.085-1.436-0.382-2.031-0.896
				l-2.62,3.043c-0.856,0.993-2.111,1.433-3.319,1.291c-0.726-0.085-1.437-0.38-2.031-0.894l-2.62,3.04
				c-0.494,0.573-1.122,0.96-1.797,1.159l1.115,0.962c1.496,1.288,3.752,1.121,5.04-0.374l2.468-2.864
				c0.56,0.484,1.229,0.761,1.913,0.842c1.139,0.134,2.321-0.281,3.127-1.216l2.468-2.866c0.56,0.484,1.229,0.764,1.913,0.844
				c1.139,0.134,2.321-0.283,3.124-1.216l2.471-2.866c1.496,1.288,3.75,1.121,5.037-0.372l0.656-0.76
				C80.127,47.926,79.997,46.171,78.833,45.168z"/>
		</g>
		<g>
			<g>
				<path fill="#F29F5C" d="M32.547,43.727l-0.98,1.295c-1.068,1.41-0.79,3.418,0.62,4.486l0,0c1.41,1.068,3.418,0.79,4.486-0.62
					l0.98-1.295c1.068-1.41,0.79-3.418-0.62-4.486l0,0C35.623,42.04,33.614,42.317,32.547,43.727z"/>
				<path fill="#F29F5C" d="M38.518,46.45l-1.846,2.438c-1.068,1.41-0.79,3.418,0.62,4.486l0,0c1.41,1.068,3.418,0.79,4.486-0.62
					l1.846-2.438c1.068-1.41,0.79-3.418-0.62-4.486l0,0C41.594,44.763,39.586,45.04,38.518,46.45z"/>
				<path fill="#F29F5C" d="M44.293,49.432l-2.516,3.323c-1.068,1.41-0.79,3.418,0.62,4.486l0,0c1.41,1.068,3.418,0.79,4.486-0.62
					l2.516-3.323c1.068-1.41,0.79-3.418-0.62-4.486l0,0C47.369,47.745,45.361,48.022,44.293,49.432z"/>
				<path fill="#F29F5C" d="M49.545,53.105l-2.662,3.515c-1.068,1.41-0.79,3.418,0.62,4.486l0,0c1.41,1.068,3.418,0.79,4.486-0.62
					l2.662-3.515c1.068-1.41,0.79-3.418-0.62-4.486l0,0C52.621,51.418,50.612,51.696,49.545,53.105z"/>
			</g>
		</g>
		<path fill="#F29F5C" d="M76.223,16.492l-8.109-4.563c-0.865-0.487-1.858-0.698-2.846-0.607l-12.803,1.184
			c-1.574,0.146-2.98,1.044-3.774,2.41l-9.024,15.532c-0.666,1.147-0.143,2.618,1.098,3.086l0.369,0.139
			c3.308,1.249,7.044,0.186,9.198-2.617l3.457-4.5c0,0,8.311,9.623,17.461-1.615"/>
		<path fill="#5C9CEE" d="M93.195,10.121l4.241,34.452l-9.917,1.221c-1.874,0.231-3.581-1.102-3.812-2.976l-3.405-27.664
			c-0.231-1.874,1.102-3.581,2.976-3.812L93.195,10.121z"/>
		<path fill="#3580D3" d="M87.353,41.905c-1.929,0.238-3.695-1.035-4.114-2.892l0.468,3.803c0.231,1.874,1.937,3.207,3.812,2.976
			l9.917-1.221l-0.474-3.85L87.353,41.905z"/>
		<path fill="#ED5575" d="M16.386,10.121l-4.241,34.452l9.917,1.221c1.874,0.231,3.581-1.102,3.812-2.976l3.405-27.664
			c0.231-1.874-1.102-3.581-2.976-3.812L16.386,10.121z"/>
		<path fill="#CC3A60" d="M22.295,41.82l-9.665-1.19l-0.485,3.943l9.917,1.221c1.874,0.231,3.581-1.102,3.812-2.976l0.36-2.922
			C25.441,41.217,23.922,42.02,22.295,41.82z"/>
		<g>
			<circle fill="#EBEEF2" cx="90.486" cy="38.899" r="2.488"/>
			<circle fill="#EBEEF2" cx="18.956" cy="38.899" r="2.488"/>
		</g>
	</g>
	<g>
		<path fill="#53433F" d="M54.808,51.46c-1.048-0.794-2.334-1.056-3.535-0.832c-0.189-1.137-0.794-2.143-1.717-2.842
			c-0.956-0.724-2.136-1.032-3.324-0.868c-0.294,0.041-0.58,0.109-0.855,0.204c-0.261-0.893-0.799-1.714-1.596-2.317
			c-1.313-0.994-3.001-1.154-4.424-0.568c-0.283-0.853-0.816-1.6-1.547-2.155c-0.956-0.724-2.137-1.032-3.324-0.868
			c-0.963,0.133-1.837,0.564-2.52,1.231l-4.711-0.313l2.888-23.457l5.174,0.352c0.029,0.002,0.059,0.003,0.088,0.003
			c0.48,0,0.924-0.268,1.145-0.7l1.939-3.784c0.491-0.958,1.6-1.445,2.638-1.158l2.88,0.796c0.685,0.189,1.394-0.212,1.584-0.898
			c0.189-0.685-0.212-1.394-0.898-1.584l-2.879-0.796c-2.207-0.611-4.568,0.425-5.614,2.464L34.644,16.4l-4.188-0.285l0.099-0.806
			c0.317-2.576-1.52-4.929-4.096-5.246l-9.917-1.22c-0.707-0.086-1.348,0.415-1.435,1.12c-0.087,0.706,0.415,1.348,1.12,1.435
			l9.917,1.221c0.565,0.07,1.07,0.355,1.42,0.804c0.35,0.449,0.505,1.008,0.436,1.573L24.596,42.66
			c-0.144,1.167-1.21,1.999-2.377,1.856l-9.917-1.221c-0.706-0.086-1.348,0.415-1.435,1.12c-0.087,0.706,0.415,1.348,1.12,1.435
			l9.917,1.221c0.194,0.024,0.387,0.036,0.578,0.036c1.738,0,3.307-0.966,4.119-2.438l3.524,0.234
			c-0.421,0.816-0.583,1.739-0.455,2.667c0.164,1.188,0.781,2.241,1.737,2.965c0.788,0.597,1.729,0.911,2.701,0.911
			c0.207,0,0.415-0.014,0.623-0.043c0.013-0.002,0.026-0.004,0.04-0.007c0.002,0.013,0.003,0.027,0.004,0.04
			c0.164,1.188,0.781,2.241,1.737,2.965c0.809,0.613,1.761,0.909,2.705,0.909c0.221,0,0.442-0.018,0.661-0.05
			c0.148,1.155,0.741,2.251,1.74,3.008c0.809,0.613,1.761,0.909,2.705,0.909c0.221,0,0.441-0.018,0.659-0.05
			c0.002,0.014,0.003,0.029,0.005,0.043c0.164,1.188,0.781,2.241,1.737,2.965c0.788,0.597,1.729,0.911,2.701,0.911
			c0.207,0,0.415-0.014,0.623-0.043c1.188-0.164,2.241-0.781,2.965-1.737l2.662-3.515C57.171,55.776,56.781,52.954,54.808,51.46z
			 M34.381,48.852c-0.506,0.07-1.01-0.062-1.418-0.371c-0.408-0.309-0.671-0.758-0.741-1.265c-0.07-0.507,0.062-1.01,0.371-1.418
			l0.98-1.295c0.309-0.408,0.758-0.671,1.265-0.741c0.507-0.07,1.01,0.062,1.418,0.371c0.408,0.309,0.671,0.758,0.741,1.265
			c0.07,0.507-0.062,1.01-0.37,1.418l-0.981,1.295C35.337,48.519,34.887,48.782,34.381,48.852z M38.068,52.348
			c-0.408-0.309-0.671-0.758-0.741-1.265c-0.07-0.507,0.062-1.01,0.371-1.418l0.98-1.294l0,0l0.866-1.143
			c0.376-0.497,0.949-0.758,1.529-0.758c0.403,0,0.809,0.126,1.154,0.388c0.842,0.638,1.008,1.841,0.371,2.683l-1.846,2.438
			C40.113,52.819,38.91,52.986,38.068,52.348z M43.174,56.214c-0.408-0.309-0.671-0.758-0.741-1.265
			c-0.07-0.506,0.061-1.01,0.37-1.418l0-0.001l1.846-2.438l0,0l0.67-0.885c0.309-0.408,0.758-0.671,1.265-0.741
			c0.507-0.07,1.01,0.062,1.418,0.371c0.841,0.637,1.008,1.84,0.371,2.682l-2.517,3.324c0,0,0,0,0,0
			C45.218,56.686,44.015,56.852,43.174,56.214z M53.624,56.195l-2.662,3.515c-0.309,0.408-0.758,0.671-1.265,0.741
			c-0.507,0.07-1.01-0.062-1.418-0.37c-0.408-0.309-0.671-0.758-0.741-1.265c-0.07-0.507,0.062-1.01,0.371-1.418l2.517-3.323
			c0.001-0.001,0.001-0.001,0.001-0.001l0.145-0.192c0.309-0.408,0.758-0.671,1.265-0.741c0.507-0.07,1.01,0.062,1.418,0.371
			C54.095,54.149,54.262,55.353,53.624,56.195z"/>
		<path fill="#53433F" d="M98.714,44.415c-0.087-0.705-0.729-1.206-1.435-1.12l-9.917,1.221c-1.169,0.144-2.233-0.689-2.377-1.856
			l-0.102-0.826l0,0l-0.024-0.191l-3.28-26.647c-0.07-0.565,0.085-1.124,0.436-1.573c0.35-0.449,0.855-0.735,1.42-0.804l9.917-1.221
			c0.705-0.087,1.207-0.729,1.12-1.435c-0.087-0.705-0.728-1.206-1.435-1.12l-9.917,1.221c-2.424,0.298-4.193,2.4-4.129,4.793
			l-2.501,0.308l-7.744-4.358c-1.097-0.618-2.34-0.883-3.595-0.768c-0.003,0-0.005,0.001-0.008,0.001l-2.331,0.216
			c-0.708,0.065-1.229,0.692-1.163,1.4c0.065,0.708,0.691,1.228,1.4,1.163l2.338-0.216c0.731-0.068,1.456,0.087,2.096,0.447
			l8.029,4.519c0.251,0.166,0.557,0.242,0.866,0.204l2.905-0.357l2.131,17.306l0.737,5.985l-4.633,0.004
			c-0.309,0-0.607,0.112-0.84,0.313l-0.358,0.279L64.687,31.277c2.658-0.764,5.192-2.613,7.561-5.522
			c0.449-0.551,0.366-1.362-0.185-1.811c-0.551-0.449-1.362-0.366-1.811,0.185c-2.648,3.252-5.432,4.926-8.276,4.975
			c-4.142,0.078-7.186-3.357-7.214-3.389c-0.253-0.293-0.624-0.455-1.011-0.445c-0.387,0.011-0.748,0.196-0.984,0.502l-3.457,4.5
			c-1.822,2.371-4.925,3.254-7.722,2.198l-0.369-0.14c-0.324-0.123-0.456-0.376-0.506-0.516c-0.05-0.14-0.107-0.42,0.067-0.72
			l9.024-15.532c0.584-1.005,1.623-1.668,2.78-1.775l5.343-0.494c0.708-0.066,1.229-0.692,1.163-1.4
			c-0.066-0.708-0.692-1.228-1.4-1.163l-5.343,0.494c-1.985,0.184-3.767,1.322-4.769,3.045l-9.024,15.532
			c-0.508,0.875-0.605,1.923-0.266,2.876c0.339,0.953,1.076,1.704,2.022,2.062l0.369,0.14c1.089,0.411,2.211,0.61,3.317,0.61
			c2.824,0,5.547-1.293,7.356-3.647l2.58-3.357c1.382,1.191,3.961,2.956,7.253,3.173l16.809,14.487
			c0.302,0.26,0.485,0.623,0.514,1.021c0.03,0.398-0.097,0.783-0.357,1.085l-0.655,0.76c-0.823,0.953-2.269,1.059-3.224,0.236
			c-0.053-0.046-0.11-0.085-0.168-0.121l-4.363-3.762c-0.538-0.464-1.351-0.404-1.815,0.134c-0.464,0.538-0.404,1.351,0.134,1.815
			l3.546,3.057l-1.617,1.877c-0.497,0.576-1.245,0.868-2,0.779c-0.452-0.053-0.875-0.24-1.223-0.541
			c-0.006-0.005-0.013-0.01-0.019-0.015l-4.054-3.496c-0.538-0.464-1.351-0.404-1.815,0.134c-0.464,0.538-0.404,1.351,0.134,1.815
			l3.098,2.672l-1.627,1.89c-0.497,0.577-1.247,0.868-2.002,0.779c-0.706-0.083-1.346,0.422-1.429,1.128
			c-0.083,0.706,0.422,1.346,1.128,1.429c0.191,0.022,0.381,0.033,0.57,0.033c1.406,0,2.751-0.609,3.682-1.689l1.739-2.02
			c0.475,0.227,0.986,0.375,1.516,0.437c1.606,0.189,3.194-0.43,4.25-1.655l1.742-2.022c1.927,0.914,4.307,0.476,5.766-1.214
			l0.656-0.761c0.709-0.823,1.055-1.873,0.975-2.957c-0.08-1.084-0.578-2.071-1.401-2.779l-1.056-0.91l3.861-0.003
			c0.422,2.224,2.379,3.827,4.619,3.827c0.191,0,0.384-0.012,0.578-0.036l9.917-1.221C98.299,45.763,98.801,45.121,98.714,44.415z"
			/>
		<path fill="#53433F" d="M90.486,35.124c-2.082,0-3.775,1.693-3.775,3.775c0,2.082,1.694,3.775,3.775,3.775
			c2.082,0,3.775-1.694,3.775-3.775S92.568,35.124,90.486,35.124z M90.486,40.1c-0.662,0-1.201-0.539-1.201-1.201
			c0-0.662,0.539-1.201,1.201-1.201c0.662,0,1.201,0.539,1.201,1.201C91.687,39.561,91.148,40.1,90.486,40.1z"/>
		<path fill="#53433F" d="M22.731,38.899c0-2.082-1.693-3.775-3.775-3.775s-3.775,1.693-3.775,3.775s1.693,3.775,3.775,3.775
			S22.731,40.98,22.731,38.899z M17.755,38.899c0-0.662,0.539-1.201,1.201-1.201s1.201,0.539,1.201,1.201
			c0,0.662-0.539,1.201-1.201,1.201S17.755,39.561,17.755,38.899z"/>
	</g>
</g>
</svg>
