<svg xmlns="http://www.w3.org/2000/svg" width="133" height="124.688" viewBox="0 0 133 124.688">
  <g id="love" transform="translate(0 -16)">
    <g id="Group_1438" data-name="Group 1438" transform="translate(2.598 18.598)">
      <path id="Path_2593" data-name="Path 2593" d="M319.121,157.616V133.793a7.793,7.793,0,1,1,15.586,0V169.08a31.174,31.174,0,0,1-17.23,27.881l-13.942,6.969v15.586H276V185.6a12.831,12.831,0,0,1,11.549-12.767c.03-.009,11.907-1.826,17.63-7.549l5.834-5.832a7.79,7.79,0,0,1,8.107-1.839Z" transform="translate(-206.902 -100.023)" fill="#fce8d0"/>
      <path id="Path_2594" data-name="Path 2594" d="M171.073,26c14.23,0,19.189,13.105,19.189,20.781,0,15.586-12.812,24.441-35.541,44.16-22.729-19.719-35.541-28.574-35.541-44.16,0-7.676,4.959-20.781,19.189-20.781,8.736,0,13.578,6.377,16.352,11.453C157.5,32.377,162.337,26,171.073,26Z" transform="translate(-90.819 -26)" fill="#fc8019"/>
      <path id="Path_2595" data-name="Path 2595" d="M25.586,157.616a7.79,7.79,0,0,1,8.107,1.839l5.834,5.832c5.609,5.609,17.6,7.541,17.63,7.549A12.831,12.831,0,0,1,68.707,185.6v33.912H41.172V203.93L27.23,196.96A31.174,31.174,0,0,1,10,169.08V133.793a7.793,7.793,0,1,1,15.586,0Z" transform="translate(-10 -100.023)" fill="#fce8d0"/>
    </g>
    <g id="Group_1439" data-name="Group 1439" transform="translate(0 16)">
      <path id="Path_2596" data-name="Path 2596" d="M185.458,39.379c0-9.039-5.915-23.379-21.787-23.379-6.521,0-12.007,3.074-16.352,9.151C142.973,19.074,137.487,16,130.967,16c-15.872,0-21.787,14.34-21.787,23.379,0,15.584,12.163,25.332,28.779,39.541,2.442,2.087,4.966,4.246,7.658,6.582a2.6,2.6,0,0,0,3.4,0c2.692-2.335,5.216-4.494,7.658-6.582,17.4-14.875,28.779-24.286,28.779-39.541ZM147.319,80.1c-2.076-1.791-4.055-3.484-5.984-5.133-17.384-14.865-26.96-23.053-26.96-35.592,0-8.506,5.564-18.184,16.591-18.184,5.755,0,10.358,3.3,14.073,10.1a2.6,2.6,0,0,0,4.558,0c3.715-6.8,8.318-10.1,14.073-10.1,10.873,0,16.591,9.534,16.591,18.184,0,12.539-9.576,20.727-26.96,35.592C151.374,76.62,149.395,78.313,147.319,80.1Z" transform="translate(-80.819 -16)"/>
      <path id="Path_2597" data-name="Path 2597" d="M18.666,191.881l12.506,6.252v13.98a2.6,2.6,0,0,0,2.6,2.6H61.3a2.6,2.6,0,0,0,2.6-2.6V178.2a15.375,15.375,0,0,0-13.868-15.35l-.212-.023c-4.571-.458-12.665-3.585-15.861-6.78l-5.834-5.831a10.323,10.323,0,0,0-7.346-3.044V126.391a10.391,10.391,0,1,0-20.781,0v35.287a33.771,33.771,0,0,0,18.666,30.2ZM5.2,126.391a5.2,5.2,0,1,1,10.391,0v22.174a10.388,10.388,0,0,0-2.151,16.344l13.3,13.305a2.6,2.6,0,0,0,3.674-3.673l-13.3-13.305a5.195,5.195,0,0,1,1.94-8.572h0a5.187,5.187,0,0,1,5.4,1.228l5.834,5.831c6.023,6.023,19.182,8.289,19.208,8.3A10.2,10.2,0,0,1,58.707,178.2v31.315H36.367V196.527a2.6,2.6,0,0,0-1.436-2.323L20.99,187.235A28.421,28.421,0,0,1,5.2,161.677Z" transform="translate(0 -90.023)"/>
      <ellipse id="Ellipse_212" data-name="Ellipse 212" cx="3.219" cy="2.146" rx="3.219" ry="2.146" transform="translate(115.895 93.567)"/>
      <path id="Path_2598" data-name="Path 2598" d="M319.512,116a10.4,10.4,0,0,0-10.391,10.391v20.781a10.321,10.321,0,0,0-7.346,3.044l-5.835,5.832c-3.2,3.2-11.289,6.322-15.88,6.782l-.172.019A15.381,15.381,0,0,0,266,178.2v33.912a2.6,2.6,0,0,0,2.6,2.6h27.535a2.6,2.6,0,0,0,2.6-2.6v-13.98l8.5-4.25a2.6,2.6,0,1,0-2.323-4.647l-9.938,4.968a2.6,2.6,0,0,0-1.436,2.323v12.988H271.2V178.2a10.206,10.206,0,0,1,9.231-10.185L280.6,168c5.635-.565,14.964-4.224,19.015-8.275l5.835-5.832a5.19,5.19,0,0,1,5.4-1.228h0a5.2,5.2,0,0,1,1.941,8.573l-13.3,13.305a2.6,2.6,0,1,0,3.674,3.673l13.3-13.3a10.389,10.389,0,0,0-2.151-16.345V126.391a5.2,5.2,0,0,1,10.391,0v35.287a28.651,28.651,0,0,1-3.469,13.645A2.6,2.6,0,0,0,325.8,177.8a33.862,33.862,0,0,0,4.1-16.127V126.391A10.4,10.4,0,0,0,319.512,116Z" transform="translate(-196.902 -90.023)"/>
    </g>
  </g>
</svg>
