<svg xmlns="http://www.w3.org/2000/svg" width="157.606" height="106.654" viewBox="0 0 157.606 106.654">
  <g id="dollar" transform="translate(0 -78.624)">
    <path id="Path_2641" data-name="Path 2641" d="M335.25,317.919v17.944c0,6.094-16.251,11.173-36.227,11.173s-35.888-4.909-35.888-11V334l-.339-14.22h.169c2.708,5.248,17.606,9.311,35.55,9.311s36.4-5.078,36.4-11.173h.339Z" transform="translate(-177.644 -161.758)" fill="#e2a63b"/>
    <path id="Path_2642" data-name="Path 2642" d="M218.9,112.074v17.775h-.339c0,6.264-16.759,11.173-36.566,11.173a86.879,86.879,0,0,1-22.854-2.539l-.339.339a39.554,39.554,0,0,0-12.527-6.941v-.339l-.508-18.791c1.185,5.756,16.929,10.326,36.058,10.326s36.735-4.909,36.735-11Z" transform="translate(-98.535 -22.611)" fill="#f4b844"/>
    <path id="Path_2643" data-name="Path 2643" d="M218.9,89.8h0c0,6.094-16.759,11-36.735,11s-35.042-4.571-36.227-10.326c0-.169-.169-.508-.169-.677,0-6.094,16.251-11.173,36.4-11.173C202.309,78.459,218.9,83.538,218.9,89.8Z" transform="translate(-98.536)" fill="#fedb41"/>
    <path id="Path_2644" data-name="Path 2644" d="M262.259,283.052h0l-.169-3.724-.339-15.236c1.185,5.756,16.929,10.326,36.058,10.326s36.058-4.909,36.566-10.834h.169V281.19h-.339c0,6.094-16.421,11.173-36.4,11.173S264.968,288.3,262.259,283.052Z" transform="translate(-176.938 -125.028)" fill="#f4b844"/>
    <path id="Path_2645" data-name="Path 2645" d="M188.608,326.179a36.323,36.323,0,0,0,9.988-15.574h.846c3.724.339,7.449.508,11.512.508h1.693v3.724l.339,14.22h-1.862a87.716,87.716,0,0,1-22.007-2.37Z" transform="translate(-127.495 -156.814)" fill="#e2a63b"/>
    <path id="Path_2646" data-name="Path 2646" d="M234.006,256.381v.846l.339,15.744h-1.693c-4.232,0-8.126-.169-11.85-.508h-.846a34.741,34.741,0,0,0,1.693-11,34.261,34.261,0,0,0-.846-7.279h.846c3.555.339,7.11.508,11,.508l1.524.846A1.841,1.841,0,0,0,234.006,256.381Z" transform="translate(-148.685 -118.672)" fill="#f4b844"/>
    <path id="Path_2647" data-name="Path 2647" d="M186.335,175.565a86.878,86.878,0,0,0,22.854,2.539c19.806,0,36.566-4.909,36.566-11.173h.339v19.976c-18.452,0-33.519,4.4-35.381,9.988l-1.524-.846q-5.587,0-10.665-.508h-.846A34.169,34.169,0,0,0,186,175.734Z" transform="translate(-125.73 -59.693)" fill="#e2a63b"/>
    <g id="Group_1457" data-name="Group 1457" transform="translate(0 106.898)">
      <path id="Path_2648" data-name="Path 2648" d="M72.286,194.832h0a37.053,37.053,0,0,0-12.019-20.145,32.167,32.167,0,0,0-12.866-7.11,32.7,32.7,0,0,0-10.665-1.693,36.4,36.4,0,1,0-.677,72.792,37.133,37.133,0,0,0,25.054-9.649A36.762,36.762,0,0,0,71.27,212.945a33.713,33.713,0,0,0,1.693-10.834C72.963,199.741,72.286,197.2,72.286,194.832Z" transform="translate(0 -165.883)" fill="#fedb41"/>
      <path id="Path_2649" data-name="Path 2649" d="M334.375,239.584v.339c-.508,5.925-16.929,10.834-36.566,10.834s-34.873-4.571-36.058-10.326v-.846a2.149,2.149,0,0,1,.169-1.016c1.862-5.586,16.929-9.988,35.381-9.988h.508C317.785,228.581,334.375,233.49,334.375,239.584Z" transform="translate(-176.938 -208.265)" fill="#fedb41"/>
    </g>
    <path id="Path_2650" data-name="Path 2650" d="M87.583,217.841a5.586,5.586,0,1,1,5.586-5.586,3.386,3.386,0,0,0,6.771,0,12.5,12.5,0,0,0-8.972-11.85v-1.354a3.386,3.386,0,1,0-6.771,0v1.354a11.822,11.822,0,0,0-8.972,11.85,12.427,12.427,0,0,0,12.358,12.358,5.586,5.586,0,0,1,0,11.173h0A5.636,5.636,0,0,1,82,230.2a3.386,3.386,0,1,0-6.771,0,12.34,12.34,0,0,0,8.972,11.85v2.709a3.386,3.386,0,0,0,6.771,0v-2.709a12.207,12.207,0,0,0,8.295-15.405A12.344,12.344,0,0,0,87.583,217.841Z" transform="translate(-50.847 -79.117)" fill="#e2a63b"/>
  </g>
</svg>
