<svg xmlns="http://www.w3.org/2000/svg" width="188.247" height="165.072" viewBox="0 0 188.247 165.072">
  <g id="Group_1468" data-name="Group 1468" transform="translate(-283.908 -2027.907)">
    <g id="tag" transform="translate(334.957 1979.992) rotate(16)">
      <path id="Path_2592" data-name="Path 2592" d="M41.7,170.51a11.881,11.881,0,0,0,16.8,0l57.5-57.5a16.838,16.838,0,0,0,3.747-5.715A60.454,60.454,0,0,0,136.1,109.74c12.256-.063,16.32-5.429,17.653-8.636,1.334-3.175,2.286-9.843-6.318-18.606l-.286-.286c-5.334-5.334-13.081-10.255-21.876-13.907-1.619-.667-3.239-1.27-4.826-1.842v-.1a13,13,0,0,0-12.827-12.827l-34.449-.476a16.754,16.754,0,0,0-12.16,4.953l-57.532,57.5a11.881,11.881,0,0,0,0,16.8ZM86.028,73.64A9.822,9.822,0,0,1,102.7,82.022a68.537,68.537,0,0,0,13.113,7.144c1.715.7,3.366,1.334,4.953,1.873L120.572,77.2c.286.127.54.222.826.349,7.525,3.143,14.288,7.4,18.637,11.748l.191.19c4.128,4.223,4.572,6.922,4.223,7.747-1.08,2.572-12.668,4.858-30.258-2.477a67.906,67.906,0,0,1-13.875-7.715c-.127.159-.286.317-.413.476A9.811,9.811,0,1,1,86.028,73.64Z" transform="translate(0)" fill="#fc8019" stroke="#202020" stroke-width="5"/>
    </g>
    <path id="Path_2692" data-name="Path 2692" d="M13.69-2.008A6.081,6.081,0,0,1,8.557.452a6.081,6.081,0,0,1-5.133-2.46,11.094,11.094,0,0,1-1.862-6.83,10.962,10.962,0,0,1,1.862-6.793,6.1,6.1,0,0,1,5.133-2.435,6.1,6.1,0,0,1,5.127,2.441,10.963,10.963,0,0,1,1.868,6.8A11.072,11.072,0,0,1,13.69-2.008ZM6.158-4.175a2.641,2.641,0,0,0,2.4,1.624,2.641,2.641,0,0,0,2.4-1.617,10.153,10.153,0,0,0,.861-4.669,9.928,9.928,0,0,0-.861-4.62,2.643,2.643,0,0,0-2.4-1.593,2.647,2.647,0,0,0-2.393,1.6A9.874,9.874,0,0,0,5.3-8.838,10.159,10.159,0,0,0,6.158-4.175ZM25.8-13.33h2.842v2.666h2.236v2.236H28.638v4.844a1.4,1.4,0,0,0,.337,1.035,1.461,1.461,0,0,0,1.06.332,7.917,7.917,0,0,0,.84-.039V-.088a7.493,7.493,0,0,1-1.426.127,4.5,4.5,0,0,1-2.808-.684A2.752,2.752,0,0,1,25.8-2.91V-8.428h-1.68v-2.236H25.8ZM37.935-2.09a2.043,2.043,0,0,0,1.758-.864,4.1,4.1,0,0,0,.625-2.437,4.065,4.065,0,0,0-.63-2.422,2.043,2.043,0,0,0-1.753-.869,2.04,2.04,0,0,0-1.758.869,4.089,4.089,0,0,0-.625,2.422,4.128,4.128,0,0,0,.62,2.437A2.04,2.04,0,0,0,37.935-2.09Zm3.892.83A5.1,5.1,0,0,1,37.935.234,5.1,5.1,0,0,1,34.043-1.26a5.776,5.776,0,0,1-1.411-4.131,5.741,5.741,0,0,1,1.421-4.116,5.093,5.093,0,0,1,3.882-1.5,5.093,5.093,0,0,1,3.882,1.5,5.741,5.741,0,0,1,1.421,4.116A5.776,5.776,0,0,1,41.826-1.26ZM8.435,28.452A6.966,6.966,0,0,1,3.778,26.92,5.166,5.166,0,0,1,1.88,23H5.286a2.618,2.618,0,0,0,1.038,1.77,3.416,3.416,0,0,0,2.136.671,3.14,3.14,0,0,0,2.313-.879,3.108,3.108,0,0,0,.885-2.307,3.169,3.169,0,0,0-.891-2.344,3.106,3.106,0,0,0-2.295-.891A3.292,3.292,0,0,0,5.457,20.6h-3.3L3.04,10.385H14.111v3.064H5.9l-.391,4.529h.22A4.233,4.233,0,0,1,9.46,16.257a5.465,5.465,0,0,1,4.108,1.66,5.859,5.859,0,0,1,1.605,4.248,5.945,5.945,0,0,1-1.855,4.547A6.85,6.85,0,0,1,8.435,28.452Zm22.974-2.966a1.2,1.2,0,0,0,2.051,0,2.809,2.809,0,0,0,.378-1.562,2.808,2.808,0,0,0-.372-1.562,1.219,1.219,0,0,0-2.057.006,2.778,2.778,0,0,0-.378,1.556A2.809,2.809,0,0,0,31.409,25.485ZM32.434,28.4a3.859,3.859,0,0,1-2.979-1.233,4.587,4.587,0,0,1-1.135-3.235A4.587,4.587,0,0,1,29.456,20.7a4.236,4.236,0,0,1,5.969-.006,4.582,4.582,0,0,1,1.135,3.241,4.587,4.587,0,0,1-1.135,3.235A3.873,3.873,0,0,1,32.434,28.4ZM21.509,18.918a3.878,3.878,0,0,1-2.985-1.233,4.59,4.59,0,0,1-1.141-3.247,4.55,4.55,0,0,1,1.141-3.229,3.887,3.887,0,0,1,2.985-1.227A3.883,3.883,0,0,1,24.5,11.209a4.565,4.565,0,0,1,1.135,3.229A4.6,4.6,0,0,1,24.5,17.685,3.873,3.873,0,0,1,21.509,18.918ZM22.766,28H19.324l6.653-9.229,5.3-8.386H34.7l-6.763,9.3ZM20.483,16a1.2,1.2,0,0,0,2.051,0,2.809,2.809,0,0,0,.378-1.562,2.84,2.84,0,0,0-.372-1.569,1.212,1.212,0,0,0-2.057.006,2.809,2.809,0,0,0-.378,1.563A2.809,2.809,0,0,0,20.483,16Z" transform="translate(331.555 2112.312) rotate(-28)" fill="#fff"/>
  </g>
</svg>
