<svg xmlns="http://www.w3.org/2000/svg" width="188.247" height="165.072" viewBox="0 0 188.247 165.072">
  <g id="Group_1488" data-name="Group 1488" transform="translate(-125.908 -2430.907)">
    <g id="tag" transform="translate(176.957 2382.992) rotate(16)">
      <path id="Path_2592" data-name="Path 2592" d="M41.7,170.51a11.881,11.881,0,0,0,16.8,0l57.5-57.5a16.838,16.838,0,0,0,3.747-5.715A60.454,60.454,0,0,0,136.1,109.74c12.256-.063,16.32-5.429,17.653-8.636,1.334-3.175,2.286-9.843-6.318-18.606l-.286-.286c-5.334-5.334-13.081-10.255-21.876-13.907-1.619-.667-3.239-1.27-4.826-1.842v-.1a13,13,0,0,0-12.827-12.827l-34.449-.476a16.754,16.754,0,0,0-12.16,4.953l-57.532,57.5a11.881,11.881,0,0,0,0,16.8ZM86.028,73.64A9.822,9.822,0,0,1,102.7,82.022a68.537,68.537,0,0,0,13.113,7.144c1.715.7,3.366,1.334,4.953,1.873L120.572,77.2c.286.127.54.222.826.349,7.525,3.143,14.288,7.4,18.637,11.748l.191.19c4.128,4.223,4.572,6.922,4.223,7.747-1.08,2.572-12.668,4.858-30.258-2.477a67.906,67.906,0,0,1-13.875-7.715c-.127.159-.286.317-.413.476A9.811,9.811,0,1,1,86.028,73.64Z" transform="translate(0)" fill="#fc8019" stroke="#202020" stroke-width="5"/>
    </g>
    <path id="Path_2698" data-name="Path 2698" d="M12.425-11.925c0-2.5-1.325-4.475-5.4-4.475s-5.4,1.975-5.4,4.475v7.7c0,2.5,1.325,4.475,5.4,4.475s5.4-1.975,5.4-4.475Zm-7.75.3c0-1.45.425-2.1,2.35-2.1s2.35.65,2.35,2.1v7.1c0,1.45-.425,2.1-2.35,2.1s-2.35-.65-2.35-2.1ZM28.1-2.04a4.7,4.7,0,0,1-1.22.2A.768.768,0,0,1,26-2.7V-7.8h2.34l.16-1.94H26V-12.5l-2.44.34v2.42H22.1V-7.8h1.46v5.42c0,1.74.9,2.58,2.68,2.58a6.768,6.768,0,0,0,2.14-.38Zm11.24-1.6V-6.1c0-2-.9-3.84-4.24-3.84S30.86-8.1,30.86-6.1v2.46c0,2,.9,3.84,4.24,3.84S39.34-1.64,39.34-3.64ZM36.9-6.18v2.62c0,1.1-.5,1.68-1.8,1.68s-1.8-.58-1.8-1.68V-6.18c0-1.1.5-1.68,1.8-1.68S36.9-7.28,36.9-6.18ZM4.55,12.225V25H7.6V8.85H4.85L.25,11.5l1.275,2.4Zm18.725.85c0-2.5-1.325-4.475-5.4-4.475s-5.4,1.975-5.4,4.475v7.7c0,2.5,1.325,4.475,5.4,4.475s5.4-1.975,5.4-4.475Zm-7.75.3c0-1.45.425-2.1,2.35-2.1s2.35.65,2.35,2.1v7.1c0,1.45-.425,2.1-2.35,2.1s-2.35-.65-2.35-2.1Zm25.8-4.5L39.4,8.1,32.675,24.475l1.925.775ZM35.2,13.65v-2c0-2.075-.9-3.55-3.9-3.55s-3.9,1.475-3.9,3.55v2c0,2.075.9,3.55,3.9,3.55S35.2,15.725,35.2,13.65Zm-2.4-2.175v2.35c0,.9-.35,1.3-1.5,1.3s-1.5-.4-1.5-1.3v-2.35c0-.9.35-1.3,1.5-1.3S32.8,10.575,32.8,11.475ZM46.7,21.7v-2c0-2.075-.9-3.55-3.9-3.55s-3.9,1.475-3.9,3.55v2c0,2.075.9,3.55,3.9,3.55S46.7,23.775,46.7,21.7Zm-2.4-2.175v2.35c0,.9-.35,1.3-1.5,1.3s-1.5-.4-1.5-1.3v-2.35c0-.9.35-1.3,1.5-1.3S44.3,18.625,44.3,19.525Z" transform="translate(176.555 2517.312) rotate(-28)" fill="#fff"/>
  </g>
</svg>
