<svg xmlns="http://www.w3.org/2000/svg" width="113.997" height="113.996" viewBox="0 0 113.997 113.996">
  <g id="surface1" transform="translate(0 -0.301)">
    <path id="Path_2651" data-name="Path 2651" d="M469.666,82.143,449.1,61.543v82.549h27.516V98.869A23.589,23.589,0,0,0,469.666,82.143Zm0,0" transform="translate(-362.625 -49.449)" fill="#ffb782"/>
    <path id="Path_2652" data-name="Path 2652" d="M16.07,79.607.527,39.256A7.861,7.861,0,0,1,5.038,29.095L78.4.836A7.86,7.86,0,0,1,88.563,5.347L104.107,45.7A7.861,7.861,0,0,1,99.6,55.859L26.233,84.118A7.864,7.864,0,0,1,16.07,79.607Zm0,0" transform="translate(0 -0.006)" fill="#de4c3c"/>
    <path id="Path_2653" data-name="Path 2653" d="M120.161,101.961,32.2,136.058l5.857,15.2,87.969-34.081Zm0,0" transform="translate(-25.996 -82.084)" fill="#7a4930"/>
    <path id="Path_2654" data-name="Path 2654" d="M0,51.4V8.163A7.862,7.862,0,0,1,7.866.3H86.484a7.863,7.863,0,0,1,7.862,7.862V51.4a7.863,7.863,0,0,1-7.862,7.862H7.866A7.862,7.862,0,0,1,0,51.4Zm0,0" transform="translate(-0.003)" fill="#4398d1"/>
    <path id="Path_2655" data-name="Path 2655" d="M166.837.3h-8.353L99.52,59.265h67.317A7.863,7.863,0,0,0,174.7,51.4V8.163A7.863,7.863,0,0,0,166.837.3Zm0,0" transform="translate(-80.356)" fill="#3e8cc7"/>
    <path id="Path_2656" data-name="Path 2656" d="M40.832,163.609h7.862v3.931H40.832Zm0,0" transform="translate(-32.97 -131.861)" fill="#5eb3d1"/>
    <path id="Path_2657" data-name="Path 2657" d="M40.832,224.852h7.862v3.931H40.832Zm0,0" transform="translate(-32.97 -181.311)" fill="#5eb3d1"/>
    <path id="Path_2658" data-name="Path 2658" d="M224.555,224.852h7.862v3.931h-7.862Zm0,0" transform="translate(-181.314 -181.311)" fill="#5eb3d1"/>
    <path id="Path_2659" data-name="Path 2659" d="M102.074,163.609h7.861v3.931h-7.861Zm0,0" transform="translate(-82.419 -131.861)" fill="#5eb3d1"/>
    <path id="Path_2660" data-name="Path 2660" d="M163.313,163.609h7.862v3.931h-7.862Zm0,0" transform="translate(-131.865 -131.861)" fill="#5eb3d1"/>
    <path id="Path_2661" data-name="Path 2661" d="M224.555,163.609h7.862v3.931h-7.862Zm0,0" transform="translate(-181.314 -131.861)" fill="#5eb3d1"/>
    <path id="Path_2662" data-name="Path 2662" d="M418.484,41.129h3.931v5.9h-3.931Zm0,0" transform="translate(-337.9 -32.966)" fill="#5eb3d1"/>
    <path id="Path_2663" data-name="Path 2663" d="M377.656,41.129h3.931v5.9h-3.931Zm0,0" transform="translate(-304.934 -32.966)" fill="#5eb3d1"/>
    <path id="Path_2664" data-name="Path 2664" d="M336.828,41.129h3.931v5.9h-3.931Zm0,0" transform="translate(-271.968 -32.966)" fill="#5eb3d1"/>
    <path id="Path_2665" data-name="Path 2665" d="M296,41.129h3.93v5.9H296Zm0,0" transform="translate(-239.005 -32.966)" fill="#5eb3d1"/>
    <path id="Path_2666" data-name="Path 2666" d="M408.277,490.23h35.378v19.654H408.277Zm0,0" transform="translate(-329.659 -395.587)" fill="#88b337"/>
    <path id="Path_2667" data-name="Path 2667" d="M317.375,174.268a8.52,8.52,0,0,0-12.3,11.783l16.107,17.571a26.507,26.507,0,0,0,.536,27.2l1.429,2.286h25.551V205.588Zm0,0" transform="translate(-244.525 -138.461)" fill="#ffb782"/>
    <path id="Path_2668" data-name="Path 2668" d="M438.9,520.852h3.931v3.931H438.9Zm0,0" transform="translate(-354.383 -420.313)" fill="#6b962a"/>
    <path id="Path_2669" data-name="Path 2669" d="M40.832,53.708V44.274a3.144,3.144,0,0,1,3.145-3.145h9.434a3.143,3.143,0,0,1,3.144,3.145v9.434a3.143,3.143,0,0,1-3.144,3.145H43.977A3.144,3.144,0,0,1,40.832,53.708Zm0,0" transform="translate(-32.97 -32.966)" fill="#fdb62f"/>
    <path id="Path_2670" data-name="Path 2670" d="M40.832,71.75h5.9v3.931h-5.9Zm0,0" transform="translate(-32.97 -57.691)" fill="#fd7b2f"/>
    <path id="Path_2671" data-name="Path 2671" d="M91.867,71.75h5.9v3.931h-5.9Zm0,0" transform="translate(-74.177 -57.691)" fill="#fd7b2f"/>
    <path id="Path_2672" data-name="Path 2672" d="M489.653,297.989a1.962,1.962,0,0,1-1.389-.576l-7.862-7.862a1.966,1.966,0,0,1,2.779-2.779l7.862,7.862a1.966,1.966,0,0,1-1.39,3.356Zm0,0" transform="translate(-387.449 -230.862)" fill="#f2a46f"/>
  </g>
</svg>
