<svg xmlns="http://www.w3.org/2000/svg" xmlns:xlink="http://www.w3.org/1999/xlink" width="669.064" height="226.859" viewBox="0 0 669.064 226.859">
  <defs>
    <linearGradient id="linear-gradient" x1="1.173" y1="2.842" x2="0.634" y2="2.974" gradientUnits="objectBoundingBox">
      <stop offset="0" stop-color="#f39c12"/>
      <stop offset="1" stop-color="#f4d03f"/>
    </linearGradient>
    <linearGradient id="linear-gradient-2" x1="0.265" y1="3.204" x2="0.936" y2="3.063" xlink:href="#linear-gradient"/>
    <linearGradient id="linear-gradient-3" x1="0.817" y1="2.126" x2="0.817" y2="1.017" gradientUnits="objectBoundingBox">
      <stop offset="0" stop-color="#16a085"/>
      <stop offset="1" stop-color="#2ecc71"/>
    </linearGradient>
    <linearGradient id="linear-gradient-4" x1="2.111" y1="6.192" x2="2.111" y2="4.276" xlink:href="#linear-gradient"/>
    <linearGradient id="linear-gradient-5" x1="-2.043" y1="-0.513" x2="-0.972" y2="-0.513" xlink:href="#linear-gradient-3"/>
    <linearGradient id="linear-gradient-6" y1="0.5" x2="1" y2="0.5" gradientUnits="objectBoundingBox">
      <stop offset="0" stop-color="#f39c12"/>
      <stop offset="1" stop-color="#f1c40f"/>
    </linearGradient>
    <linearGradient id="linear-gradient-7" x1="0.5" y1="1.769" x2="0.5" y2="0.435" gradientUnits="objectBoundingBox">
      <stop offset="0" stop-color="#f1c40f"/>
      <stop offset="1" stop-color="#ffe199"/>
    </linearGradient>
    <linearGradient id="linear-gradient-8" x1="0.5" y1="0.912" x2="0.5" y2="-0.422" xlink:href="#linear-gradient-6"/>
    <linearGradient id="linear-gradient-9" x1="0" y1="0.5" x2="1" y2="0.5" xlink:href="#linear-gradient-3"/>
    <linearGradient id="linear-gradient-11" x1="0.321" y1="0.73" x2="1.171" y2="-0.049" gradientUnits="objectBoundingBox">
      <stop offset="0" stop-color="#62e1fb"/>
      <stop offset="1" stop-color="#00a2f3"/>
    </linearGradient>
    <linearGradient id="linear-gradient-12" x1="0.816" y1="0.507" x2="-0.329" y2="0.507" gradientUnits="objectBoundingBox">
      <stop offset="0" stop-color="#00a2f3" stop-opacity="0"/>
      <stop offset="1" stop-color="#0075cd"/>
    </linearGradient>
    <linearGradient id="linear-gradient-13" x1="0.305" y1="0.745" x2="0.832" y2="0.262" gradientUnits="objectBoundingBox">
      <stop offset="0" stop-color="#a7f3ce"/>
      <stop offset="1" stop-color="#61db99"/>
    </linearGradient>
    <linearGradient id="linear-gradient-14" x1="0.832" y1="0.508" x2="-0.466" y2="0.508" gradientUnits="objectBoundingBox">
      <stop offset="0" stop-color="#61db99" stop-opacity="0"/>
      <stop offset="1" stop-color="#009e74"/>
    </linearGradient>
    <linearGradient id="linear-gradient-15" x1="0.774" y1="-0.028" x2="0.445" y2="0.325" xlink:href="#linear-gradient-14"/>
    <linearGradient id="linear-gradient-16" x1="0.494" y1="0.849" x2="0.494" y2="0.05" gradientUnits="objectBoundingBox">
      <stop offset="0" stop-color="#fff465"/>
      <stop offset="1" stop-color="#ffe600"/>
    </linearGradient>
    <linearGradient id="linear-gradient-18" x1="0.5" y1="0.839" x2="0.5" y2="-0.294" xlink:href="#linear-gradient-6"/>
    <linearGradient id="linear-gradient-19" x1="1.003" y1="0.377" x2="0.441" y2="0.515" xlink:href="#linear-gradient"/>
    <linearGradient id="linear-gradient-20" x1="0.012" y1="0.601" x2="0.713" y2="0.453" xlink:href="#linear-gradient"/>
  </defs>
  <g id="Group_1533" data-name="Group 1533" transform="translate(-126 -730)">
    <g id="Group_1500" data-name="Group 1500" transform="translate(126 863)">
      <path id="Path_2720" data-name="Path 2720" d="M182.959,270.97h133.8a7.488,7.488,0,0,1,7.375,8.789l-2.153,12.207H420.2a7.488,7.488,0,0,1,7.375,8.789L421.34,336.09a7.49,7.49,0,0,1-7.375,6.189H170.386Z" transform="translate(-118.89 -262.44)" fill="#dfd"/>
      <path id="Path_2772" data-name="Path 2772" d="M11.52,0,11.5-6.72l-3.3,5.536H7.04L3.76-6.576V0H1.328V-11.2H3.472L7.664-4.24l4.128-6.96H13.92L13.952,0ZM21.584.192a5.068,5.068,0,0,1-3.736-1.328,5.112,5.112,0,0,1-1.336-3.792V-11.2H19.1v6.176q0,3.008,2.5,3.008a2.34,2.34,0,0,0,1.856-.728,3.394,3.394,0,0,0,.64-2.28V-11.2h2.56v6.272A5.112,5.112,0,0,1,25.32-1.136,5.068,5.068,0,0,1,21.584.192ZM29.216-11.2h2.592v9.088h5.616V0H29.216ZM40.16-9.088H36.576V-11.2h9.76v2.112H42.752V0H40.16ZM47.728-11.2H50.32V0H47.728Zm10.1,0a6.222,6.222,0,0,1,2.584.5A3.839,3.839,0,0,1,62.1-9.3a3.879,3.879,0,0,1,.592,2.16A3.889,3.889,0,0,1,62.1-4.984a3.77,3.77,0,0,1-1.688,1.408,6.311,6.311,0,0,1-2.584.488H55.568V0H52.976V-11.2Zm-.144,6a2.722,2.722,0,0,0,1.776-.5,1.755,1.755,0,0,0,.608-1.432,1.774,1.774,0,0,0-.608-1.448,2.722,2.722,0,0,0-1.776-.5H55.568V-5.2Zm6.848-6H67.12v9.088h5.616V0H64.528ZM82.864-2.08V0H74.192V-11.2h8.464v2.08H76.768v2.432h5.2v2.016h-5.2V-2.08Z" transform="translate(90.205 31.198)" fill="#e67e22"/>
      <path id="Path_2773" data-name="Path 2773" d="M5.93-20.468a4.7,4.7,0,0,1,3.594,1.421,4.929,4.929,0,0,1,1.241,3.463v2.973A4.762,4.762,0,0,1,9.352-9.148,4.621,4.621,0,0,1,5.93-7.71H4.149V0H1.062V-20.468Zm1.846,4.933a1.761,1.761,0,0,0-.482-1.29,1.717,1.717,0,0,0-1.282-.49H4.149v6.55H6.011a1.688,1.688,0,0,0,1.25-.523,1.728,1.728,0,0,0,.515-1.258ZM16.853-4.7,16.1,0H12.888l3.48-20.468h4.247L24.045,0H20.8l-.722-4.7ZM18.475-15.78,17.332-7.71h2.287ZM30.3-8.576,26.169-20.484h3.4l2.287,7.351,2.271-7.351h3.414L33.389-8.576V0H30.3ZM42.749,0H39.662V-20.484h4.43L46.97-5.769l2.762-14.715h4.256V0H50.9V-12.872L48.222,0H45.739l-2.99-12.839ZM56.112,0V-20.484H64.9v3.1H59.2v5.587h4.165v3.1H59.2V-3.1h5.7V0ZM70.49-20.484l4.1,13.767V-20.484h3.087V0H74.358L70.111-13.117V0H67.023V-20.484Zm12.591,3.12H79.8v-3.1h9.638v3.1H86.168V0H83.081Zm15.486-3.365a4.712,4.712,0,0,1,3.471,1.438,4.734,4.734,0,0,1,1.429,3.463V-4.656a4.712,4.712,0,0,1-1.437,3.471A4.734,4.734,0,0,1,98.567.245,4.686,4.686,0,0,1,95.1-1.192a4.748,4.748,0,0,1-1.421-3.463V-15.829A4.712,4.712,0,0,1,95.12-19.3,4.715,4.715,0,0,1,98.567-20.729Zm1.683,4.835a1.7,1.7,0,0,0-.515-1.25,1.7,1.7,0,0,0-1.25-.515,1.728,1.728,0,0,0-1.258.515,1.688,1.688,0,0,0-.523,1.25V-4.688a1.688,1.688,0,0,0,.523,1.25,1.728,1.728,0,0,0,1.258.515,1.7,1.7,0,0,0,1.25-.515,1.7,1.7,0,0,0,.515-1.25Zm10.21-4.574a4.7,4.7,0,0,1,3.594,1.421,4.929,4.929,0,0,1,1.241,3.463v2.973a4.762,4.762,0,0,1-1.413,3.463,4.621,4.621,0,0,1-3.422,1.437h-1.781V0h-3.087V-20.468Zm1.846,4.933a1.761,1.761,0,0,0-.482-1.29,1.717,1.717,0,0,0-1.282-.49h-1.862v6.55h1.862a1.688,1.688,0,0,0,1.25-.523,1.728,1.728,0,0,0,.515-1.258Zm8.4-1.83h-3.283v-3.1h9.638v3.1h-3.267V0H120.7ZM132.266,0h-3.087V-20.468h3.087Zm7.008-20.729a4.712,4.712,0,0,1,3.471,1.438,4.734,4.734,0,0,1,1.429,3.463V-4.656a4.712,4.712,0,0,1-1.437,3.471A4.734,4.734,0,0,1,139.274.245a4.686,4.686,0,0,1-3.463-1.438,4.748,4.748,0,0,1-1.421-3.463V-15.829a4.712,4.712,0,0,1,1.438-3.471A4.715,4.715,0,0,1,139.274-20.729Zm1.683,4.835a1.7,1.7,0,0,0-.515-1.25,1.7,1.7,0,0,0-1.25-.515,1.728,1.728,0,0,0-1.258.515,1.688,1.688,0,0,0-.523,1.25V-4.688a1.688,1.688,0,0,0,.523,1.25,1.728,1.728,0,0,0,1.258.515,1.7,1.7,0,0,0,1.25-.515,1.7,1.7,0,0,0,.515-1.25Zm8.808-4.59,4.1,13.767V-20.484h3.087V0h-3.316l-4.247-13.117V0H146.3V-20.484ZM169.282-5.1a5.757,5.757,0,0,1-1.111,3.659A4,4,0,0,1,166.048.016a5.789,5.789,0,0,1-1.715.229,4.855,4.855,0,0,1-3.006-.9,5.025,5.025,0,0,1-1.576-2,8.074,8.074,0,0,1-.678-2.9l2.94-.212a4.469,4.469,0,0,0,.947,2.594,1.58,1.58,0,0,0,1.274.575,1.915,1.915,0,0,0,1.617-1,2.476,2.476,0,0,0,.31-1.357A3.767,3.767,0,0,0,165-7.486l-2.744-2.6a11.726,11.726,0,0,1-2.173-2.665,6.163,6.163,0,0,1-.686-2.878,5,5,0,0,1,1.879-4.235,4.668,4.668,0,0,1,2.875-.867,5.225,5.225,0,0,1,2.826.735,4.246,4.246,0,0,1,1.478,1.6,5.924,5.924,0,0,1,.678,2.369l-2.957.539a3.564,3.564,0,0,0-.719-1.96,1.509,1.509,0,0,0-1.225-.506,1.411,1.411,0,0,0-1.29.751,2.9,2.9,0,0,0-.359,1.5,4.51,4.51,0,0,0,1.209,2.859,10.213,10.213,0,0,0,1.372,1.307q1.078.9,1.421,1.258a10.475,10.475,0,0,1,1.764,2.254,8.639,8.639,0,0,1,.474.964A5.612,5.612,0,0,1,169.282-5.1Z" transform="translate(89.841 63.871)" fill="#2c3e50"/>
      <g id="Group_1499" data-name="Group 1499" transform="translate(0 0)">
        <path id="Path_2722" data-name="Path 2722" d="M212.35,313.96l-.978-2.881a42.885,42.885,0,0,0-9.43-27.79l-.989-2.916a10.526,10.526,0,0,0-9.971-7.148c-.191,0-.381.006-.571.015a42.714,42.714,0,0,0-24.172-6.063,5.6,5.6,0,0,0-8.959-2.6l-8.733,7.387a43.487,43.487,0,0,0-20.175,22.326,10.544,10.544,0,0,0-4.019,12.075l.977,2.881a42.887,42.887,0,0,0,9.429,27.789l.989,2.918a10.526,10.526,0,0,0,9.971,7.147c.19,0,.381-.005.57-.016a42.773,42.773,0,0,0,24.173,6.064,5.6,5.6,0,0,0,8.958,2.6l8.733-7.387a42.948,42.948,0,0,0,17.728-17.188c.008-.014.017-.029.025-.043.293-.523.572-1.052.851-1.6l.111-.225c.232-.465.458-.935.67-1.4l.123-.281c.209-.467.41-.938.6-1.419l.066-.167a10.545,10.545,0,0,0,4.02-12.075Z" transform="translate(-123.789 -263.251)" fill="#dfd"/>
        <g id="Group_1498" data-name="Group 1498" transform="translate(5.603 5.598)">
          <g id="Group_1496" data-name="Group 1496" transform="translate(1.52)">
            <path id="Path_2723" data-name="Path 2723" d="M156.091,281.723l-8.841-3.178,3.741-3.164a37.432,37.432,0,0,0,23.331,70.346h0l.807,4.471,12.97-10.971-15.986-5.747.807,4.471h0a29.532,29.532,0,0,1-16.828-56.229Z" transform="translate(-130.234 -267.574)" fill="url(#linear-gradient)"/>
            <path id="Path_2724" data-name="Path 2724" d="M159.408,272.788l-.807-4.471-12.97,10.971,15.986,5.747-.807-4.471a29.532,29.532,0,0,1,16.827,56.228l8.841,3.178-3.741,3.164a37.431,37.431,0,0,0-23.329-70.345Z" transform="translate(-128.616 -268.317)" fill="url(#linear-gradient-2)"/>
            <path id="Path_2725" data-name="Path 2725" d="M194.175,324.744a37.487,37.487,0,0,0,4.785-11.969l-1.013-1.562L190.6,313.64a29.743,29.743,0,0,1-9.475,14.237Z" transform="translate(-124.884 -263.807)" fill="#b6750e"/>
            <path id="Path_2726" data-name="Path 2726" d="M160.163,332.266A29.654,29.654,0,0,1,149,327.121L140.266,330a37.739,37.739,0,0,0,6.882,5.388Z" transform="translate(-129.18 -262.135)" fill="#b6750e"/>
          </g>
          <g id="Group_1497" data-name="Group 1497" transform="translate(0 9.974)">
            <path id="Path_2727" data-name="Path 2727" d="M188.866,277.605l-56.659,19.224a4.93,4.93,0,0,0-3.084,6.253l11.4,33.587a4.93,4.93,0,0,0,6.253,3.084L203.43,320.53a4.93,4.93,0,0,0,3.084-6.253l-11.4-33.587A4.93,4.93,0,0,0,188.866,277.605Z" transform="translate(-128.859 -277.342)" fill="url(#linear-gradient-3)"/>
            <rect id="Rectangle_872" data-name="Rectangle 872" width="69.692" height="7.85" transform="translate(8.616 50.361) rotate(-18.741)" fill="#084e37"/>
            <path id="Path_2728" data-name="Path 2728" d="M184.675,282.315l-12.374,4.2a1.8,1.8,0,0,0-1.123,2.277l2.484,7.32a1.8,1.8,0,0,0,2.277,1.123l12.374-4.2a1.8,1.8,0,0,0,1.123-2.277l-2.483-7.32A1.8,1.8,0,0,0,184.675,282.315Z" transform="translate(-124.42 -276.829)" fill="url(#linear-gradient-4)"/>
            <ellipse id="Ellipse_414" data-name="Ellipse 414" cx="2.298" cy="2.298" rx="2.298" ry="2.298" transform="translate(53.589 10.648)" fill="none" stroke="#e67e22" stroke-miterlimit="10" stroke-width="1.039"/>
            <line id="Line_22" data-name="Line 22" x1="1.081" y1="3.184" transform="translate(54.068 7.586)" fill="none" stroke="#e67e22" stroke-miterlimit="10" stroke-width="1.039"/>
            <line id="Line_23" data-name="Line 23" x2="1.08" y2="3.184" transform="translate(56.625 15.121)" fill="none" stroke="#e67e22" stroke-miterlimit="10" stroke-width="1.039"/>
            <line id="Line_24" data-name="Line 24" y1="1.938" x2="5.711" transform="translate(58.062 10.269)" fill="none" stroke="#e67e22" stroke-miterlimit="10" stroke-width="1.039"/>
            <line id="Line_25" data-name="Line 25" x1="5.711" y2="1.937" transform="translate(47.999 13.684)" fill="none" stroke="#e67e22" stroke-miterlimit="10" stroke-width="1.039"/>
            <path id="Path_2729" data-name="Path 2729" d="M148.509,311.309l-8.3,2.815a1.794,1.794,0,0,0-1.123,2.277h0a1.8,1.8,0,0,0,2.277,1.123l8.3-2.815a1.8,1.8,0,0,0,1.123-2.277h0A1.8,1.8,0,0,0,148.509,311.309Z" transform="translate(-127.793 -273.781)" fill="#fff"/>
            <path id="Path_2730" data-name="Path 2730" d="M158.533,302.8l-19.99,6.782a1.8,1.8,0,0,0-1.123,2.277h0a1.793,1.793,0,0,0,2.277,1.123l19.99-6.782a1.794,1.794,0,0,0,1.123-2.277h0A1.793,1.793,0,0,0,158.533,302.8Z" transform="translate(-127.969 -274.676)" fill="#fff"/>
          </g>
        </g>
      </g>
    </g>
    <g id="Group_1505" data-name="Group 1505" transform="translate(493 730)">
      <path id="Path_2731" data-name="Path 2731" d="M398.684,397.264H177.807l-8.359,47.4-1.918,10.878-3.22,18.264h150.8a7.488,7.488,0,0,0,7.373-6.187l2.13-12.077h66.439a7.488,7.488,0,0,0,7.374-6.187l7.637-43.309A7.486,7.486,0,0,0,398.684,397.264Z" transform="translate(-111.845 -380.048)" fill="#dfd"/>
      <path id="Path_2732" data-name="Path 2732" d="M196.181,397.172c-1.057-.768-2.2-1.523-3.491-2.306q-.559-.34-1.125-.663a21.186,21.186,0,0,0-19.294-12.517,20.515,20.515,0,0,0-2.554.162,20.515,20.515,0,0,0-2.554-.162,21.025,21.025,0,0,0-17.22,8.891,50.061,50.061,0,0,0-9.889,4.82l-.32.2c-.466.3-.928.607-1.377.917l-.466.328c-.432.306-.862.615-1.271.925-.124.093-.246.189-.368.285l-.092.073c-.68.527-1.359,1.084-2.012,1.649l-.165.141c-.221.189-.442.379-.669.584-.2.185-.406.375-.607.565l-.177.167c-.307.29-.612.58-.912.877-.243.241-.482.486-.712.724-.318.328-.632.663-.943,1-.216.235-.431.472-.633.7q-.511.58-1.007,1.184l-.123.147q-.194.232-.383.465c-.534.666-1,1.281-1.439,1.878a49.971,49.971,0,0,0,72.48,67.705h1.921a7.11,7.11,0,0,0,5.382-2.453,7.24,7.24,0,0,0,3.076-.613,7.131,7.131,0,0,0,4.192-5.768l2.164-20.541c.021-.2.033-.395.038-.592a7.1,7.1,0,0,0,.776-2.505A50.086,50.086,0,0,0,196.181,397.172Z" transform="translate(-116.836 -381.686)" fill="#dfd"/>
      <path id="Path_2770" data-name="Path 2770" d="M10.847-4.656a4.8,4.8,0,0,1-.653,2.45,1.468,1.468,0,0,0,1.176.474V1.143A3.354,3.354,0,0,1,8.2-.31,4.638,4.638,0,0,1,5.962.245,4.712,4.712,0,0,1,2.491-1.192,4.734,4.734,0,0,1,1.062-4.656V-15.829A4.712,4.712,0,0,1,2.5-19.3a4.734,4.734,0,0,1,3.463-1.429,4.672,4.672,0,0,1,3.463,1.446,4.756,4.756,0,0,1,1.421,3.455Zm-3.2-11.239a1.688,1.688,0,0,0-.523-1.25,1.728,1.728,0,0,0-1.258-.515,1.7,1.7,0,0,0-1.25.515,1.7,1.7,0,0,0-.515,1.25V-4.688a1.7,1.7,0,0,0,.515,1.25,1.7,1.7,0,0,0,1.25.515,1.728,1.728,0,0,0,1.258-.515,1.688,1.688,0,0,0,.523-1.25ZM18.377.229a4.713,4.713,0,0,1-3.463-1.421,4.693,4.693,0,0,1-1.421-3.447V-20.468h3.022v15.8a1.688,1.688,0,0,0,.523,1.25,1.728,1.728,0,0,0,1.258.515,1.7,1.7,0,0,0,1.25-.515,1.7,1.7,0,0,0,.515-1.25v-15.8h3.218V-4.639A4.651,4.651,0,0,1,21.84-1.176,4.776,4.776,0,0,1,18.377.229ZM28.489,0H25.4V-20.468h3.087Zm7.024.261a4.726,4.726,0,0,1-3.471-1.429,4.707,4.707,0,0,1-1.429-3.455V-15.8a4.712,4.712,0,0,1,1.438-3.471A4.734,4.734,0,0,1,35.513-20.7a4.686,4.686,0,0,1,3.463,1.438A4.748,4.748,0,0,1,40.4-15.8v2.336H37.2v-2.4a1.715,1.715,0,0,0-.523-1.258,1.715,1.715,0,0,0-1.258-.523,1.688,1.688,0,0,0-1.25.523,1.728,1.728,0,0,0-.515,1.258V-4.656a1.7,1.7,0,0,0,.515,1.25,1.7,1.7,0,0,0,1.25.515,1.728,1.728,0,0,0,1.258-.515,1.688,1.688,0,0,0,.523-1.25V-7.482h3.2v2.859A4.686,4.686,0,0,1,38.96-1.16,4.728,4.728,0,0,1,35.513.261Zm10.1-6.755V0H42.521V-20.484h3.087v7.3l3.773-7.3h3.292l-4.226,8.355L53.4,0H49.773L46.532-8.317ZM69.686-9.638a20.635,20.635,0,0,1-1.993,5.521,3.357,3.357,0,0,0,2.075,1.094V-.163A5.8,5.8,0,0,1,66.06-1.8,5.379,5.379,0,0,1,62.139.131a4.118,4.118,0,0,1-3.692-1.993,5.239,5.239,0,0,1-.8-2.875,8.065,8.065,0,0,1,.768-3.3q.131-.278.866-1.5.408-.653.817-1.258l-.637-1.454q-.457-1.013-.621-1.437a8.793,8.793,0,0,1-.457-1.5,7.32,7.32,0,0,1-.147-1.437,5.3,5.3,0,0,1,.6-2.516,4.076,4.076,0,0,1,1.8-1.813,4.237,4.237,0,0,1,2.058-.506,4.384,4.384,0,0,1,2.3.629,4.154,4.154,0,0,1,1.6,1.74,4.351,4.351,0,0,1,.441,1.944,5.65,5.65,0,0,1-1.29,3.512l-.67.866q-.915,1.192-1.683,2.238a29.323,29.323,0,0,0,2.32,4,18.581,18.581,0,0,0,1.176-3.724Zm-8.609-7.008a9.935,9.935,0,0,0,.947,3.169l.392-.49.408-.539.653-.866a2.992,2.992,0,0,0,.719-1.764,2.13,2.13,0,0,0-.163-.931A1.4,1.4,0,0,0,62.695-19.1a1.393,1.393,0,0,0-1.258.866A3.366,3.366,0,0,0,61.077-16.646ZM62.139-2.712a2.838,2.838,0,0,0,1.977-1.176,29.391,29.391,0,0,1-2.532-3.953q-.294.49-.588,1.013a5.277,5.277,0,0,0-.49,2.091,2.376,2.376,0,0,0,.376,1.388A1.439,1.439,0,0,0,62.139-2.712ZM77.1-8.674V0H74.015V-20.468H77.1v8.69h3.724v-8.69h3.087V0H80.827V-8.674Zm13.068.1L86.038-20.484h3.4l2.287,7.351,2.271-7.351h3.414L93.258-8.576V0H90.17ZM104.431.261a4.712,4.712,0,0,1-3.471-1.438,4.715,4.715,0,0,1-1.429-3.447V-15.8a4.712,4.712,0,0,1,1.438-3.471,4.734,4.734,0,0,1,3.463-1.429,4.686,4.686,0,0,1,3.463,1.438,4.748,4.748,0,0,1,1.421,3.463v2.336h-3.2v-2.4a1.715,1.715,0,0,0-.523-1.258,1.715,1.715,0,0,0-1.258-.523,1.688,1.688,0,0,0-1.25.523,1.728,1.728,0,0,0-.515,1.258V-4.656a1.7,1.7,0,0,0,.515,1.25,1.7,1.7,0,0,0,1.25.515,1.731,1.731,0,0,0,1.258-.513,1.681,1.681,0,0,0,.523-1.246V-8.674H104.4v-3.1h4.917v7.155a4.686,4.686,0,0,1-1.437,3.463A4.729,4.729,0,0,1,104.431.261ZM114.526,0h-3.087V-20.468h3.087Zm2.124,0V-20.484h8.788v3.1h-5.7v5.587H123.9v3.1h-4.165V-3.1h5.7V0Zm14.378-20.484,4.1,13.767V-20.484h3.087V0H134.9l-4.247-13.117V0h-3.087V-20.484ZM143.423,0h-3.087V-20.468h3.087Zm7.024.261a4.726,4.726,0,0,1-3.471-1.429,4.707,4.707,0,0,1-1.429-3.455V-15.8a4.712,4.712,0,0,1,1.438-3.471,4.734,4.734,0,0,1,3.463-1.429,4.686,4.686,0,0,1,3.463,1.438,4.748,4.748,0,0,1,1.421,3.463v2.336h-3.2v-2.4a1.715,1.715,0,0,0-.523-1.258,1.715,1.715,0,0,0-1.258-.523,1.688,1.688,0,0,0-1.25.523,1.729,1.729,0,0,0-.515,1.258V-4.656a1.7,1.7,0,0,0,.515,1.25,1.7,1.7,0,0,0,1.25.515,1.729,1.729,0,0,0,1.258-.515,1.688,1.688,0,0,0,.523-1.25V-7.482h3.2v2.859a4.686,4.686,0,0,1-1.437,3.463A4.728,4.728,0,0,1,150.447.261Z" transform="translate(95.88 54.492)" fill="#2c3e50"/>
      <path id="Path_2771" data-name="Path 2771" d="M1.328-11.2H6.416a7.151,7.151,0,0,1,3.224.7,5.211,5.211,0,0,1,2.176,1.96A5.513,5.513,0,0,1,12.592-5.6a5.513,5.513,0,0,1-.776,2.944A5.211,5.211,0,0,1,9.64-.7,7.151,7.151,0,0,1,6.416,0H1.328Zm4.96,9.072a3.764,3.764,0,0,0,2.68-.936,3.306,3.306,0,0,0,1-2.536,3.306,3.306,0,0,0-1-2.536,3.764,3.764,0,0,0-2.68-.936H3.92v6.944Zm16.928.048V0H14.544V-11.2h8.464v2.08H17.12v2.432h5.2v2.016h-5.2V-2.08ZM25.28-11.2h2.592v9.088h5.616V0H25.28Zm9.664,0h2.592V0H34.944Zm15.952,0L46.048,0h-2.56L38.656-11.2h2.8l3.408,8,3.456-8Zm9.6,9.12V0H51.824V-11.2h8.464v2.08H54.4v2.432h5.2v2.016H54.4V-2.08ZM69.7,0l-2.16-3.12H65.152V0H62.56V-11.2h4.848a6.222,6.222,0,0,1,2.584.5A3.839,3.839,0,0,1,71.68-9.3a3.879,3.879,0,0,1,.592,2.16,3.8,3.8,0,0,1-.6,2.152,3.8,3.8,0,0,1-1.7,1.384L72.48,0Zm-.048-7.136a1.774,1.774,0,0,0-.608-1.448,2.722,2.722,0,0,0-1.776-.5H65.152v3.9h2.112A2.692,2.692,0,0,0,69.04-5.7,1.779,1.779,0,0,0,69.648-7.136Zm9.888,3.168V0H76.944V-4l-4.336-7.2H75.36l2.992,4.976L81.344-11.2h2.544Z" transform="translate(100.633 82.176)" fill="#e67e22"/>
      <g id="Group_1504" data-name="Group 1504" transform="translate(7.139 8.912)">
        <path id="Path_2733" data-name="Path 2733" d="M207.825,444.548l-18.871,8.4,4.916,3.573a34.342,34.342,0,0,1-47.918,7.578,63.333,63.333,0,0,1-5.025-4.465c-10.34-9.175-17.194-31.026-2.3-47.551,12.42-13.774,29.072-18.531,48.384-7.546,19.03,10.825,21.562,36.1,21.633,36.837a42.81,42.81,0,1,0-7.873,20.164l4.888,3.553Z" transform="translate(-123.296 -389.353)" fill="url(#linear-gradient-5)"/>
        <g id="Group_1502" data-name="Group 1502" transform="translate(30.948 4.181)">
          <path id="Path_2734" data-name="Path 2734" d="M177.631,396.785a8.733,8.733,0,0,1,.413,3.108c-.028.773-.045,1.647-.055,2.562,1.1.531,2.2,1.105,3.313,1.74.485.276.954.568,1.418.862,0-1.66-.033-3.667-.119-5.682A42.684,42.684,0,0,0,177.631,396.785Z" transform="translate(-148.532 -393.192)" fill="#107864"/>
          <path id="Path_2735" data-name="Path 2735" d="M151.3,395.216v5.553a32.339,32.339,0,0,1,11.254-2.29,23.376,23.376,0,0,1,2.892-4.889A43.193,43.193,0,0,0,151.3,395.216Z" transform="translate(-151.3 -393.534)" fill="#107864"/>
        </g>
        <g id="Group_1503" data-name="Group 1503" transform="translate(13.804)">
          <path id="Path_2736" data-name="Path 2736" d="M180.4,408.208v-6.217a12.241,12.241,0,0,0-12.24-12.241h0a12.241,12.241,0,0,0-12.24,12.241v6.217" transform="translate(-133.67 -389.75)" fill="none" stroke="#ad5f1a" stroke-linecap="round" stroke-miterlimit="10" stroke-width="3.226"/>
          <path id="Path_2737" data-name="Path 2737" d="M143.315,403.292h46.53l8.138,63.223h-46.53Z" transform="translate(-134.996 -388.326)" fill="url(#linear-gradient-6)"/>
          <path id="Path_2738" data-name="Path 2738" d="M190.456,403.292H143.925l-8.138,63.223h46.531Z" transform="translate(-135.787 -388.326)" fill="url(#linear-gradient-7)"/>
          <path id="Path_2739" data-name="Path 2739" d="M193.573,466.515h-8.318V403.292Z" transform="translate(-130.586 -388.326)" fill="url(#linear-gradient-8)"/>
          <path id="Path_2740" data-name="Path 2740" d="M175.781,408.208v-6.217a12.241,12.241,0,0,0-12.24-12.241h0a12.241,12.241,0,0,0-12.24,12.241v6.217" transform="translate(-134.156 -389.75)" fill="none" stroke="#e67e22" stroke-linecap="round" stroke-miterlimit="10" stroke-width="3.226"/>
          <path id="Path_2741" data-name="Path 2741" d="M173.638,422.584a8.32,8.32,0,0,0-11.766,0,8.319,8.319,0,1,0-11.765,11.765l11.765,11.766,11.765-11.766A8.318,8.318,0,0,0,173.638,422.584Z" transform="translate(-134.538 -386.554)" fill="#e74c3c"/>
        </g>
        <path id="Path_2742" data-name="Path 2742" d="M188.953,452.777l4.916,3.573a34.342,34.342,0,0,1-47.918,7.578,63.355,63.355,0,0,1-5.025-4.465c-10.34-9.175-17.194-31.026-2.3-47.551a43.365,43.365,0,0,1,13.833-10.534,13.915,13.915,0,0,1,1.506-6.245,42.827,42.827,0,1,0,46.8,66.235l4.888,3.553,2.164-20.541Z" transform="translate(-123.296 -389.184)" fill="url(#linear-gradient-9)"/>
      </g>
    </g>
    <g id="Group_1509" data-name="Group 1509" transform="translate(493 851)">
      <path id="Path_2731-2" data-name="Path 2731" d="M406.42,397.264H177.807l-8.359,47.4-1.918,10.878-3.22,18.264H374.783a7.488,7.488,0,0,0,7.373-6.187l2.13-12.077h14.5a7.488,7.488,0,0,0,7.373-6.187l7.636-43.309A7.486,7.486,0,0,0,406.42,397.264Z" transform="translate(-111.845 -380.048)" fill="#dfd"/>
      <path id="Path_2732-2" data-name="Path 2732" d="M196.181,397.172c-1.057-.768-2.2-1.523-3.491-2.306q-.559-.34-1.125-.663a21.186,21.186,0,0,0-19.294-12.517,20.515,20.515,0,0,0-2.554.162,20.515,20.515,0,0,0-2.554-.162,21.025,21.025,0,0,0-17.22,8.891,50.061,50.061,0,0,0-9.889,4.82l-.32.2c-.466.3-.928.607-1.377.917l-.466.328c-.432.306-.862.615-1.271.925-.124.093-.246.189-.368.285l-.092.073c-.68.527-1.359,1.084-2.012,1.649l-.165.141c-.221.189-.442.379-.669.584-.2.185-.406.375-.607.565l-.177.167c-.307.29-.612.58-.912.877-.243.241-.482.486-.712.724-.318.328-.632.663-.943,1-.216.235-.431.472-.633.7q-.511.58-1.007,1.184l-.123.147q-.194.232-.383.465c-.534.666-1,1.281-1.439,1.878a49.971,49.971,0,0,0,72.48,67.705h1.921a7.11,7.11,0,0,0,5.382-2.453,7.24,7.24,0,0,0,3.076-.613,7.131,7.131,0,0,0,4.192-5.768l2.164-20.541c.021-.2.033-.395.038-.592a7.1,7.1,0,0,0,.776-2.505A50.086,50.086,0,0,0,196.181,397.172Z" transform="translate(-116.836 -381.686)" fill="#dfd"/>
      <path id="Path_2774" data-name="Path 2774" d="M11.271-5.1a5.757,5.757,0,0,1-1.111,3.659A4,4,0,0,1,8.037.016,5.79,5.79,0,0,1,6.322.245a4.855,4.855,0,0,1-3.006-.9,5.025,5.025,0,0,1-1.576-2,8.074,8.074,0,0,1-.678-2.9L4-5.766A4.469,4.469,0,0,0,4.95-3.172,1.58,1.58,0,0,0,6.224-2.6a1.915,1.915,0,0,0,1.617-1,2.476,2.476,0,0,0,.31-1.357,3.768,3.768,0,0,0-1.16-2.534l-2.744-2.6a11.725,11.725,0,0,1-2.173-2.665,6.163,6.163,0,0,1-.686-2.878,5,5,0,0,1,1.879-4.235,4.668,4.668,0,0,1,2.875-.867,5.225,5.225,0,0,1,2.826.735,4.246,4.246,0,0,1,1.478,1.6,5.925,5.925,0,0,1,.678,2.369l-2.957.539a3.564,3.564,0,0,0-.719-1.96,1.509,1.509,0,0,0-1.225-.506,1.411,1.411,0,0,0-1.29.751,2.9,2.9,0,0,0-.359,1.5,4.51,4.51,0,0,0,1.209,2.859,10.214,10.214,0,0,0,1.372,1.307q1.078.9,1.421,1.258A10.475,10.475,0,0,1,10.34-8.021a8.639,8.639,0,0,1,.474.964A5.612,5.612,0,0,1,11.271-5.1ZM17.36-4.7,16.61,0H13.395l3.48-20.468h4.247L24.552,0H21.305l-.722-4.7ZM18.982-15.78,17.838-7.71h2.287ZM29.763,0H26.675V-20.484h8.788v3.1h-5.7v5.587h4.165v3.1H29.763Zm7.825,0V-20.484h8.788v3.1h-5.7v5.587H44.84v3.1H40.675V-3.1h5.7V0Zm27.2-9.638a20.635,20.635,0,0,1-1.993,5.521,3.357,3.357,0,0,0,2.075,1.094V-.163A5.8,5.8,0,0,1,61.159-1.8,5.379,5.379,0,0,1,57.239.131a4.118,4.118,0,0,1-3.692-1.993,5.239,5.239,0,0,1-.8-2.875,8.065,8.065,0,0,1,.768-3.3q.131-.278.866-1.5.408-.653.817-1.258l-.637-1.454q-.457-1.013-.621-1.437a8.792,8.792,0,0,1-.457-1.5,7.32,7.32,0,0,1-.147-1.437,5.3,5.3,0,0,1,.6-2.516,4.076,4.076,0,0,1,1.8-1.813,4.237,4.237,0,0,1,2.058-.506,4.384,4.384,0,0,1,2.3.629,4.154,4.154,0,0,1,1.6,1.74,4.351,4.351,0,0,1,.441,1.944,5.65,5.65,0,0,1-1.29,3.512l-.67.866q-.915,1.192-1.683,2.238a29.322,29.322,0,0,0,2.32,4,18.581,18.581,0,0,0,1.176-3.724Zm-8.609-7.008a9.935,9.935,0,0,0,.947,3.169l.392-.49.408-.539.653-.866a2.992,2.992,0,0,0,.719-1.764,2.13,2.13,0,0,0-.163-.931A1.4,1.4,0,0,0,57.794-19.1a1.393,1.393,0,0,0-1.258.866A3.366,3.366,0,0,0,56.177-16.646ZM57.239-2.712a2.838,2.838,0,0,0,1.977-1.176,29.391,29.391,0,0,1-2.532-3.953q-.294.49-.588,1.013a5.277,5.277,0,0,0-.49,2.091,2.376,2.376,0,0,0,.376,1.388A1.439,1.439,0,0,0,57.239-2.712ZM79.324-5.1a5.757,5.757,0,0,1-1.111,3.659A4,4,0,0,1,76.089.016a5.79,5.79,0,0,1-1.715.229,4.855,4.855,0,0,1-3.006-.9,5.025,5.025,0,0,1-1.576-2,8.073,8.073,0,0,1-.678-2.9l2.94-.212A4.469,4.469,0,0,0,73-3.172a1.58,1.58,0,0,0,1.274.575,1.915,1.915,0,0,0,1.617-1,2.476,2.476,0,0,0,.31-1.357,3.767,3.767,0,0,0-1.16-2.534l-2.744-2.6a11.725,11.725,0,0,1-2.173-2.665,6.163,6.163,0,0,1-.686-2.878,5,5,0,0,1,1.879-4.235,4.668,4.668,0,0,1,2.875-.867,5.225,5.225,0,0,1,2.826.735,4.246,4.246,0,0,1,1.478,1.6,5.925,5.925,0,0,1,.678,2.369l-2.957.539a3.564,3.564,0,0,0-.719-1.96,1.509,1.509,0,0,0-1.225-.506,1.411,1.411,0,0,0-1.29.751,2.9,2.9,0,0,0-.359,1.5,4.51,4.51,0,0,0,1.209,2.859,10.214,10.214,0,0,0,1.372,1.307q1.078.9,1.421,1.258a10.475,10.475,0,0,1,1.764,2.254,8.639,8.639,0,0,1,.474.964A5.613,5.613,0,0,1,79.324-5.1ZM81.447,0V-20.484h8.788v3.1h-5.7v5.587H88.7v3.1H84.535V-3.1h5.7V0ZM97.26.261a4.726,4.726,0,0,1-3.471-1.429,4.707,4.707,0,0,1-1.429-3.455V-15.8A4.712,4.712,0,0,1,93.8-19.267,4.734,4.734,0,0,1,97.26-20.7a4.686,4.686,0,0,1,3.463,1.438,4.748,4.748,0,0,1,1.421,3.463v2.336h-3.2v-2.4a1.715,1.715,0,0,0-.523-1.258,1.715,1.715,0,0,0-1.258-.523,1.688,1.688,0,0,0-1.25.523,1.728,1.728,0,0,0-.515,1.258V-4.656a1.7,1.7,0,0,0,.515,1.25,1.7,1.7,0,0,0,1.25.515,1.728,1.728,0,0,0,1.258-.515,1.688,1.688,0,0,0,.523-1.25V-7.482h3.2v2.859a4.686,4.686,0,0,1-1.437,3.463A4.729,4.729,0,0,1,97.26.261ZM109.152.229a4.713,4.713,0,0,1-3.463-1.421,4.693,4.693,0,0,1-1.421-3.447V-20.468h3.022v15.8a1.688,1.688,0,0,0,.523,1.25,1.728,1.728,0,0,0,1.258.515,1.7,1.7,0,0,0,1.25-.515,1.7,1.7,0,0,0,.515-1.25v-15.8h3.218V-4.639a4.651,4.651,0,0,1-1.437,3.463A4.776,4.776,0,0,1,109.152.229Zm11.892-20.7a4.707,4.707,0,0,1,3.79,1.421,5.164,5.164,0,0,1,1.062,3.463v2.973a4.783,4.783,0,0,1-1.65,3.675L126.532,0h-3.339l-1.872-7.71h-2.058V0h-3.087V-20.468Zm1.846,4.933a1.567,1.567,0,0,0-1.764-1.781h-1.862v6.55h1.862a1.688,1.688,0,0,0,1.25-.523,1.728,1.728,0,0,0,.515-1.258ZM128.656,0V-20.484h8.788v3.1h-5.7v5.587h4.165v3.1h-4.165V-3.1h5.7V0Zm20.615-4.9a4.748,4.748,0,0,1-1.421,3.463A4.648,4.648,0,0,1,144.42,0h-4.852V-20.484h4.852a4.64,4.64,0,0,1,3.439,1.438,4.742,4.742,0,0,1,1.413,3.447Zm-6.616,1.846h1.862a1.649,1.649,0,0,0,1.241-.531,1.751,1.751,0,0,0,.506-1.25V-15.551a1.728,1.728,0,0,0-.515-1.258,1.669,1.669,0,0,0-1.233-.523h-1.862Z" transform="translate(102.511 53.387)" fill="#2c3e50"/>
      <path id="Path_2775" data-name="Path 2775" d="M3.648-9.088H.064V-11.2h9.76v2.112H6.24V0H3.648ZM18.352,0l-2.16-3.12H13.808V0H11.216V-11.2h4.848a6.222,6.222,0,0,1,2.584.5A3.839,3.839,0,0,1,20.336-9.3a3.879,3.879,0,0,1,.592,2.16,3.8,3.8,0,0,1-.6,2.152,3.8,3.8,0,0,1-1.7,1.384L21.136,0ZM18.3-7.136A1.774,1.774,0,0,0,17.7-8.584a2.722,2.722,0,0,0-1.776-.5H13.808v3.9H15.92A2.692,2.692,0,0,0,17.7-5.7,1.779,1.779,0,0,0,18.3-7.136ZM30.352-2.4h-5.2L24.16,0H21.5L26.5-11.2h2.56L34.064,0h-2.72Zm-.816-1.968L27.76-8.656,25.984-4.368ZM45.5-11.2V0H43.376L37.792-6.8V0h-2.56V-11.2h2.144l5.568,6.8v-6.8ZM51.84.192a9.164,9.164,0,0,1-2.568-.36A6.023,6.023,0,0,1,47.28-1.1l.88-1.952a5.972,5.972,0,0,0,1.712.848,6.43,6.43,0,0,0,1.984.32,3.17,3.17,0,0,0,1.632-.328.991.991,0,0,0,.528-.872.834.834,0,0,0-.312-.664,2.365,2.365,0,0,0-.8-.424q-.488-.16-1.32-.352a18.247,18.247,0,0,1-2.1-.608,3.405,3.405,0,0,1-1.4-.976A2.636,2.636,0,0,1,47.5-7.9a3.117,3.117,0,0,1,.528-1.768,3.552,3.552,0,0,1,1.592-1.256,6.5,6.5,0,0,1,2.6-.464,8.609,8.609,0,0,1,2.1.256,6.192,6.192,0,0,1,1.792.736l-.8,1.968a6.245,6.245,0,0,0-3.1-.88A2.91,2.91,0,0,0,50.6-8.96a1.074,1.074,0,0,0-.52.928.907.907,0,0,0,.6.856,9.42,9.42,0,0,0,1.832.552,18.248,18.248,0,0,1,2.1.608,3.471,3.471,0,0,1,1.4.96,2.574,2.574,0,0,1,.584,1.776,3.058,3.058,0,0,1-.536,1.752A3.6,3.6,0,0,1,54.448-.272,6.555,6.555,0,0,1,51.84.192ZM65.744-2.4h-5.2L59.552,0H56.9l4.992-11.2h2.56L69.456,0h-2.72Zm-.816-1.968L63.152-8.656,61.376-4.368Zm10.9,4.56a6.433,6.433,0,0,1-3.1-.744,5.552,5.552,0,0,1-2.176-2.064A5.687,5.687,0,0,1,69.76-5.6a5.687,5.687,0,0,1,.792-2.984,5.552,5.552,0,0,1,2.176-2.064,6.467,6.467,0,0,1,3.112-.744,6.527,6.527,0,0,1,2.632.512,5.272,5.272,0,0,1,1.976,1.472L78.784-7.872a3.578,3.578,0,0,0-2.816-1.312,3.739,3.739,0,0,0-1.856.456A3.242,3.242,0,0,0,72.84-7.456,3.739,3.739,0,0,0,72.384-5.6a3.739,3.739,0,0,0,.456,1.856,3.242,3.242,0,0,0,1.272,1.272,3.739,3.739,0,0,0,1.856.456,3.561,3.561,0,0,0,2.816-1.328l1.664,1.536A5.187,5.187,0,0,1,78.464-.32,6.585,6.585,0,0,1,75.824.192ZM84.4-9.088H80.816V-11.2h9.76v2.112H86.992V0H84.4ZM91.968-11.2H94.56V0H91.968ZM102.64.192A6.537,6.537,0,0,1,99.5-.56,5.581,5.581,0,0,1,97.3-2.632,5.657,5.657,0,0,1,96.512-5.6,5.657,5.657,0,0,1,97.3-8.568,5.581,5.581,0,0,1,99.5-10.64a6.537,6.537,0,0,1,3.144-.752,6.491,6.491,0,0,1,3.136.752,5.654,5.654,0,0,1,2.192,2.072,5.613,5.613,0,0,1,.8,2.968,5.613,5.613,0,0,1-.8,2.968A5.654,5.654,0,0,1,105.776-.56,6.491,6.491,0,0,1,102.64.192Zm0-2.208a3.554,3.554,0,0,0,1.792-.456,3.272,3.272,0,0,0,1.256-1.272,3.739,3.739,0,0,0,.456-1.856,3.739,3.739,0,0,0-.456-1.856,3.272,3.272,0,0,0-1.256-1.272,3.554,3.554,0,0,0-1.792-.456,3.554,3.554,0,0,0-1.792.456,3.272,3.272,0,0,0-1.256,1.272A3.739,3.739,0,0,0,99.136-5.6a3.739,3.739,0,0,0,.456,1.856,3.272,3.272,0,0,0,1.256,1.272A3.554,3.554,0,0,0,102.64-2.016ZM120.992-11.2V0h-2.128L113.28-6.8V0h-2.56V-11.2h2.144l5.568,6.8v-6.8ZM127.328.192a9.164,9.164,0,0,1-2.568-.36,6.023,6.023,0,0,1-1.992-.936l.88-1.952a5.971,5.971,0,0,0,1.712.848,6.43,6.43,0,0,0,1.984.32,3.17,3.17,0,0,0,1.632-.328.991.991,0,0,0,.528-.872.834.834,0,0,0-.312-.664,2.365,2.365,0,0,0-.8-.424q-.488-.16-1.32-.352a18.247,18.247,0,0,1-2.1-.608,3.405,3.405,0,0,1-1.4-.976,2.636,2.636,0,0,1-.584-1.792,3.117,3.117,0,0,1,.528-1.768,3.552,3.552,0,0,1,1.592-1.256,6.5,6.5,0,0,1,2.6-.464,8.609,8.609,0,0,1,2.1.256,6.192,6.192,0,0,1,1.792.736l-.8,1.968a6.245,6.245,0,0,0-3.1-.88,2.91,2.91,0,0,0-1.608.352,1.074,1.074,0,0,0-.52.928.907.907,0,0,0,.6.856A9.42,9.42,0,0,0,128-6.624a18.247,18.247,0,0,1,2.1.608,3.471,3.471,0,0,1,1.4.96,2.574,2.574,0,0,1,.584,1.776,3.058,3.058,0,0,1-.536,1.752,3.6,3.6,0,0,1-1.608,1.256A6.555,6.555,0,0,1,127.328.192Z" transform="translate(101.739 79.966)" fill="#e67e22"/>
      <g id="Group_1504-2" data-name="Group 1504" transform="translate(7.139 9.032)">
        <path id="Path_2733-2" data-name="Path 2733" d="M207.825,444.548l-18.871,8.4,4.916,3.573a34.342,34.342,0,0,1-47.918,7.578,63.333,63.333,0,0,1-5.025-4.465c-10.34-9.175-17.194-31.026-2.3-47.551,12.42-13.774,29.072-18.531,48.384-7.546,19.03,10.825,21.562,36.1,21.633,36.837a42.81,42.81,0,1,0-7.873,20.164l4.888,3.553Z" transform="translate(-123.296 -389.473)" fill="url(#linear-gradient-5)"/>
        <g id="Group_1502-2" data-name="Group 1502" transform="translate(30.948 4.062)">
          <path id="Path_2734-2" data-name="Path 2734" d="M177.631,396.785a8.733,8.733,0,0,1,.413,3.108c-.028.773-.045,1.647-.055,2.562,1.1.531,2.2,1.105,3.313,1.74.485.276.954.568,1.418.862,0-1.66-.033-3.667-.119-5.682A42.684,42.684,0,0,0,177.631,396.785Z" transform="translate(-148.532 -393.192)" fill="#107864"/>
          <path id="Path_2735-2" data-name="Path 2735" d="M151.3,395.216v5.553a32.339,32.339,0,0,1,11.254-2.29,23.376,23.376,0,0,1,2.892-4.889A43.193,43.193,0,0,0,151.3,395.216Z" transform="translate(-151.3 -393.534)" fill="#107864"/>
        </g>
        <g id="protection" transform="translate(3.912 0)">
          <path id="Path_2743" data-name="Path 2743" d="M99.11,20.458a3.808,3.808,0,0,0-3.329-3.717C78.432,14.5,66.386,4.722,62.071.692a2.574,2.574,0,0,0-3.513,0C54.243,4.722,42.2,14.5,24.849,16.741a3.809,3.809,0,0,0-3.329,3.717c-.171,12.411,1.97,55.063,38.8,64.269C97.14,75.521,99.282,32.869,99.11,20.458Z" transform="translate(-21.511 0)" fill="url(#linear-gradient-11)"/>
          <path id="Path_2744" data-name="Path 2744" d="M261.241,83.111q.387-.143.768-.292.493-.192.975-.393.318-.132.631-.268.494-.214.977-.436l.362-.169q.446-.21.882-.428.634-.316,1.249-.647.588-.317,1.161-.647.657-.38,1.292-.777l.029-.018q1.208-.757,2.34-1.575l.171-.122q.827-.6,1.613-1.234l.157-.125q.446-.361.878-.732c.269-.23.537-.462.8-.7.089-.079.176-.16.263-.24s.184-.167.275-.251q.406-.376.8-.76c.083-.081.167-.161.249-.242q.427-.422.84-.854l.168-.174q.487-.513.956-1.039l.014-.015q.594-.665,1.157-1.35.339-.411.67-.827.65-.823,1.26-1.668l.014-.019c.1-.132.189-.265.284-.4l.124-.174c.066-.094.13-.189.2-.283l.2-.293q.327-.481.642-.967.444-.684.866-1.378.518-.854,1-1.723l.041-.073c.072-.129.142-.258.213-.388.04-.072.08-.144.119-.217q.3-.558.59-1.121l.05-.1q.116-.228.23-.457l.078-.156c.042-.084.082-.169.124-.253q.39-.8.756-1.6.645-1.417,1.215-2.849c.119-.3.236-.6.35-.894q.452-1.179.855-2.361l.051-.147c.051-.15.1-.3.151-.451.02-.059.04-.117.059-.176q.286-.865.547-1.729c.015-.05.031-.1.046-.151q.138-.458.269-.914.147-.509.287-1.017.208-.761.4-1.516.114-.45.223-.9c.032-.132.063-.263.094-.4.017-.073.035-.146.052-.218q.126-.539.244-1.074c.011-.049.022-.1.033-.146q.1-.447.189-.89.052-.249.1-.5.1-.5.2-.995c0-.008,0-.016,0-.024q.088-.463.17-.922.077-.426.149-.848.084-.491.161-.976l.03-.185c.009-.054.017-.108.025-.163.021-.137.043-.274.063-.411q.075-.5.144-.991c.007-.048.014-.1.02-.143.017-.122.033-.244.05-.365l.026-.194c.007-.055.014-.109.022-.164q.1-.751.184-1.484c.124-1.066.227-2.1.312-3.094l0-.045q.032-.373.06-.738c.009-.122.019-.245.028-.366q.063-.846.109-1.648c.012-.2.023-.4.034-.6q.033-.621.056-1.21.007-.174.013-.344c.023-.617.039-1.207.05-1.767,0-.01,0-.021,0-.031q.018-.939.018-1.761v-.033q0-.667-.008-1.25a3.809,3.809,0,0,0-3.33-3.718c-.484-.063-.962-.133-1.438-.207l-.316-.05q-.7-.112-1.379-.239l-.2-.04q-.621-.118-1.231-.249l-.263-.056q-.665-.145-1.319-.3l-.273-.068q-.6-.15-1.2-.31l-.154-.041q-.644-.176-1.274-.366l-.286-.086c-.421-.128-.839-.259-1.251-.394l-.067-.023q-.595-.2-1.177-.4l-.264-.093q-.593-.212-1.174-.434L278,13.3q-.525-.2-1.039-.412l-.2-.082q-.564-.232-1.113-.471l-.238-.1q-.519-.228-1.026-.461l-.093-.042q-.539-.25-1.063-.505l-.237-.116q-.519-.255-1.025-.514l-.1-.052q-.471-.243-.929-.489l-.207-.111q-.483-.261-.951-.524l-.176-.1q-.423-.24-.833-.48l-.147-.086q-.451-.266-.887-.533l-.194-.12c-.285-.176-.567-.352-.842-.527l-.028-.018c-.284-.181-.56-.362-.834-.542l-.183-.121q-.4-.265-.783-.528l-.1-.07q-.35-.241-.687-.48l-.149-.105q-.362-.258-.709-.511l-.141-.1q-.315-.232-.617-.459l-.091-.069q-.329-.249-.642-.493l-.142-.111c-.208-.163-.413-.324-.61-.482l-.012-.01c-.2-.157-.384-.311-.568-.462l-.124-.1c-.181-.149-.357-.3-.526-.44l-.079-.068q-.23-.195-.445-.382l-.09-.078q-.234-.2-.45-.4l-.091-.081-.383-.345-.044-.04c-.132-.121-.257-.236-.377-.348l-.039-.036A2.562,2.562,0,0,0,256,0V84.727q1.225-.306,2.4-.662Q259.859,83.624,261.241,83.111Z" transform="translate(-217.196 0)" fill="url(#linear-gradient-12)"/>
          <path id="Path_2745" data-name="Path 2745" d="M117.719,48.39a3.357,3.357,0,0,0-2.934-3.276A55.286,55.286,0,0,1,85.073,30.969a2.269,2.269,0,0,0-3.1,0A55.287,55.287,0,0,1,52.264,45.114,3.357,3.357,0,0,0,49.33,48.39c-.152,10.939,1.736,48.533,34.194,56.648C115.983,96.923,117.87,59.33,117.719,48.39Z" transform="translate(-44.72 -25.334)" fill="url(#linear-gradient-13)"/>
          <path id="Path_2746" data-name="Path 2746" d="M96.365,116.934l-.383-.1a36.459,36.459,0,0,1-17.5-9.868A43.55,43.55,0,0,1,69.1,91.9,73.818,73.818,0,0,1,64.717,65.47a4.552,4.552,0,0,1,3.956-4.424A46.977,46.977,0,0,0,93.927,49.019a3.583,3.583,0,0,1,4.877,0,46.976,46.976,0,0,0,25.254,12.028,4.553,4.553,0,0,1,3.956,4.424c.141,10.182-1.7,43.976-31.266,51.369Zm0-65.722a.416.416,0,0,0-.285.112,50.212,50.212,0,0,1-27,12.851,1.382,1.382,0,0,0-1.205,1.339c-.132,9.55,1.542,41.135,28.493,48.166,26.951-7.031,28.625-38.616,28.493-48.166h0a1.382,1.382,0,0,0-1.205-1.339,50.211,50.211,0,0,1-27-12.851A.417.417,0,0,0,96.365,51.212Z" transform="translate(-57.561 -40.107)" fill="#fff"/>
          <path id="Path_2747" data-name="Path 2747" d="M290.2,48.39a3.357,3.357,0,0,0-2.934-3.276,55.287,55.287,0,0,1-29.712-14.145,2.262,2.262,0,0,0-1.548-.61v74.68C288.459,96.923,290.347,59.329,290.2,48.39Z" transform="translate(-217.197 -25.334)" fill="url(#linear-gradient-14)"/>
          <path id="Path_2748" data-name="Path 2748" d="M214.438,187.726c-2.729,11.034-8.081,23.039-18.446,31.306l-32.117-32.117a3.01,3.01,0,1,1,4.256-4.256l6.461,6.461a2.043,2.043,0,0,0,2.884,0l17.05-17.049a3.008,3.008,0,0,1,4.256,0h0Z" transform="translate(-139.581 -142.86)" fill="url(#linear-gradient-15)"/>
          <path id="Path_2749" data-name="Path 2749" d="M198.783,172.071a3.01,3.01,0,0,1,0,4.257l-17.05,17.048a8.067,8.067,0,0,1-11.4,0l-6.461-6.461a3.01,3.01,0,0,1,0-4.256h0a3.01,3.01,0,0,1,4.257,0l6.46,6.46a2.042,2.042,0,0,0,2.884,0l17.05-17.048a3.01,3.01,0,0,1,4.256,0Z" transform="translate(-139.58 -142.859)" fill="url(#linear-gradient-16)"/>
        </g>
        <path id="Path_2742-2" data-name="Path 2742" d="M188.953,452.777l4.916,3.573a34.342,34.342,0,0,1-47.918,7.578,63.355,63.355,0,0,1-5.025-4.465c-10.34-9.175-17.194-31.026-2.3-47.551a43.365,43.365,0,0,1,13.833-10.534,13.915,13.915,0,0,1,1.506-6.245,42.827,42.827,0,1,0,46.8,66.235l4.888,3.553,2.164-20.541Z" transform="translate(-123.296 -389.304)" fill="url(#linear-gradient-9)"/>
      </g>
    </g>
    <g id="Group_1532" data-name="Group 1532" transform="translate(0 0.045)">
      <path id="Path_2711" data-name="Path 2711" d="M174.119,149.533H320.457a7.488,7.488,0,0,1,7.375,8.789l-2.153,12.207H394.06a7.488,7.488,0,0,1,7.375,8.789L395.2,214.653a7.489,7.489,0,0,1-7.375,6.189H161.546Z" transform="translate(8.951 593.021)" fill="#dfd"/>
      <path id="Path_2767" data-name="Path 2767" d="M1.494-12.6H4.41V0H1.494Zm17.46,0V0H16.56L10.278-7.65V0H7.4V-12.6H9.81l6.264,7.65V-12.6ZM26.082.216a10.309,10.309,0,0,1-2.889-.405,6.776,6.776,0,0,1-2.241-1.053l.99-2.2a6.718,6.718,0,0,0,1.926.954,7.234,7.234,0,0,0,2.232.36,3.566,3.566,0,0,0,1.836-.369,1.115,1.115,0,0,0,.594-.981.938.938,0,0,0-.351-.747,2.661,2.661,0,0,0-.9-.477q-.549-.18-1.485-.4a20.528,20.528,0,0,1-2.358-.684,3.831,3.831,0,0,1-1.575-1.1A2.965,2.965,0,0,1,21.2-8.892a3.507,3.507,0,0,1,.594-1.989,4,4,0,0,1,1.791-1.413,7.308,7.308,0,0,1,2.925-.522,9.685,9.685,0,0,1,2.358.288,6.966,6.966,0,0,1,2.016.828l-.9,2.214a7.026,7.026,0,0,0-3.492-.99,3.274,3.274,0,0,0-1.809.4A1.209,1.209,0,0,0,24.1-9.036a1.021,1.021,0,0,0,.675.963,10.6,10.6,0,0,0,2.061.621,20.528,20.528,0,0,1,2.358.684,3.9,3.9,0,0,1,1.575,1.08,2.9,2.9,0,0,1,.657,2,3.441,3.441,0,0,1-.6,1.971A4.051,4.051,0,0,1,29.016-.306,7.375,7.375,0,0,1,26.082.216Zm9.774-10.44H31.824V-12.6H42.8v2.376H38.772V0H35.856ZM52.038-2.7h-5.85L45.072,0H42.084L47.7-12.6h2.88L56.214,0h-3.06ZM51.12-4.914l-2-4.824-2,4.824ZM69.084-12.6V0H66.69L60.408-7.65V0h-2.88V-12.6H59.94L66.2-4.95V-12.6Zm5.6,2.376H70.65V-12.6H81.63v2.376H77.6V0H74.682Z" transform="translate(223.592 763.122)" fill="#e74c3c"/>
      <path id="Path_2768" data-name="Path 2768" d="M6.74.3A5.342,5.342,0,0,1,2.816-1.32,5.321,5.321,0,0,1,1.2-5.226V-17.857a5.327,5.327,0,0,1,1.625-3.924A5.351,5.351,0,0,1,6.74-23.4a5.3,5.3,0,0,1,3.915,1.625,5.367,5.367,0,0,1,1.607,3.915v2.641H8.642V-17.93a1.938,1.938,0,0,0-.591-1.422,1.938,1.938,0,0,0-1.422-.591,1.908,1.908,0,0,0-1.413.591,1.954,1.954,0,0,0-.582,1.422V-5.263A1.923,1.923,0,0,0,5.217-3.85a1.923,1.923,0,0,0,1.413.582A1.954,1.954,0,0,0,8.051-3.85a1.908,1.908,0,0,0,.591-1.413V-8.457h3.619v3.232a5.3,5.3,0,0,1-1.625,3.915A5.345,5.345,0,0,1,6.74.3Zm12.4-5.614L18.3,0H14.662L18.6-23.138h4.8L27.274,0H23.6l-.817-5.318Zm1.833-12.52L19.685-8.716H22.27ZM41.216-5.761A6.508,6.508,0,0,1,39.96-1.625,4.523,4.523,0,0,1,37.56.018a6.545,6.545,0,0,1-1.939.259,5.488,5.488,0,0,1-3.4-1.016A5.681,5.681,0,0,1,30.441-3a9.127,9.127,0,0,1-.766-3.278L33-6.518A5.052,5.052,0,0,0,34.07-3.586a1.787,1.787,0,0,0,1.44.65,2.165,2.165,0,0,0,1.828-1.128A2.8,2.8,0,0,0,37.689-5.6a4.259,4.259,0,0,0-1.311-2.865l-3.1-2.939a13.255,13.255,0,0,1-2.456-3.013,6.967,6.967,0,0,1-.776-3.253,5.657,5.657,0,0,1,2.124-4.787,5.277,5.277,0,0,1,3.25-.98,5.907,5.907,0,0,1,3.195.831,4.8,4.8,0,0,1,1.671,1.81,6.7,6.7,0,0,1,.766,2.678l-3.342.609a4.029,4.029,0,0,0-.812-2.216,1.706,1.706,0,0,0-1.385-.572,1.6,1.6,0,0,0-1.459.849,3.275,3.275,0,0,0-.406,1.7,5.1,5.1,0,0,0,1.366,3.232,11.546,11.546,0,0,0,1.551,1.477q1.219,1.016,1.607,1.422a11.842,11.842,0,0,1,1.994,2.548A9.766,9.766,0,0,1,40.7-7.977,6.344,6.344,0,0,1,41.216-5.761Zm5.891-4.044V0h-3.49V-23.138h3.49v9.824h4.21v-9.824h3.49V0h-3.49V-9.805ZM57.207,0V-23.156h5.226a6.655,6.655,0,0,1,3.73,1.089A5.07,5.07,0,0,1,68.195-19.2a8.063,8.063,0,0,1,.332,2.456,5.436,5.436,0,0,1-1.237,3.73,3.507,3.507,0,0,1-1.219.9,4.055,4.055,0,0,1,1.976,1.754,6.821,6.821,0,0,1,.794,2.29,9.132,9.132,0,0,1,.129,1.607,7.733,7.733,0,0,1-.831,3.73,4.979,4.979,0,0,1-1.828,1.92A5.035,5.035,0,0,1,63.67,0Zm3.767-3.453h1.459a2.476,2.476,0,0,0,2.456-1.828,4.015,4.015,0,0,0,.24-1.44,4.387,4.387,0,0,0-.739-2.825,2.382,2.382,0,0,0-1.957-.812H60.974Zm0-10.249h1.459a2.138,2.138,0,0,0,2.179-1.588,4.53,4.53,0,0,0,.2-1.459,3.051,3.051,0,0,0-.7-2.179,2.208,2.208,0,0,0-1.68-.683H60.974ZM75.853-5.318,75,0H71.371L75.3-23.138h4.8L83.983,0h-3.67L79.5-5.318Zm1.833-12.52L76.393-8.716h2.585ZM91.923.3A5.342,5.342,0,0,1,88-1.32a5.321,5.321,0,0,1-1.616-3.906V-17.857a5.327,5.327,0,0,1,1.625-3.924A5.351,5.351,0,0,1,91.923-23.4a5.3,5.3,0,0,1,3.915,1.625,5.367,5.367,0,0,1,1.607,3.915v2.641H93.825V-17.93a1.938,1.938,0,0,0-.591-1.422,1.938,1.938,0,0,0-1.422-.591,1.908,1.908,0,0,0-1.413.591,1.954,1.954,0,0,0-.582,1.422V-5.263A1.923,1.923,0,0,0,90.4-3.85a1.923,1.923,0,0,0,1.413.582,1.954,1.954,0,0,0,1.422-.582,1.908,1.908,0,0,0,.591-1.413V-8.457h3.619v3.232A5.3,5.3,0,0,1,95.82-1.311,5.345,5.345,0,0,1,91.923.3ZM103.335-7.34V0h-3.49V-23.156h3.49V-14.9l4.266-8.254h3.721l-4.777,9.445L112.147,0h-4.1L104.38-9.4Z" transform="translate(220.919 799.389)" fill="#2c3e50"/>
      <path id="Path_2713" data-name="Path 2713" d="M207.911,165.574a7.133,7.133,0,0,0,.3-2.028v-2.673a7.13,7.13,0,0,0-5.285-6.887l-11.85-3.176a47.883,47.883,0,0,0-22.159-5.437,47.333,47.333,0,0,0-33.7,13.937A47.834,47.834,0,0,0,121.3,194.493a47.424,47.424,0,0,0,8.648,28.622,7.126,7.126,0,0,0-.3,2.054v2.673a7.128,7.128,0,0,0,5.285,6.887l11.851,3.175a47.875,47.875,0,0,0,22.158,5.437h0a47.333,47.333,0,0,0,33.693-13.937,47.847,47.847,0,0,0,13.916-35.047A47.449,47.449,0,0,0,207.911,165.574Z" transform="translate(4.718 592.583)" fill="#dfd"/>
      <g id="Group_1494" data-name="Group 1494" transform="translate(133.119 745.085)">
        <path id="Path_2714" data-name="Path 2714" d="M196.918,166.092l3.48-3.479v-2.674l-20.908-4.762-.585.487a40.52,40.52,0,0,0-39.882,67.179l-2.923,1.391v2.673l12.646,3.388a40.539,40.539,0,0,0,48.172-64.2Zm-6.051,51.287a32.036,32.036,0,0,1-39.629,4.464L149.11,213.9l-3.48,3.48h0a31.984,31.984,0,0,1,39.629-49.7l2.129,7.944,3.479-3.48A32.024,32.024,0,0,1,190.867,217.379Z" transform="translate(-127.723 -151.569)" fill="#b6750e"/>
        <ellipse id="Ellipse_413" data-name="Ellipse 413" cx="36.266" cy="36.266" rx="36.266" ry="36.266" transform="translate(4.259 4.252)" fill="url(#linear-gradient-18)"/>
        <path id="Path_2715" data-name="Path 2715" d="M204.11,191.937A36.266,36.266,0,1,0,167.844,228.2,36.266,36.266,0,0,0,204.11,191.937Zm-53.276,29.935-2.128-7.944-3.48,3.48h0a31.984,31.984,0,0,1,39.629-49.7l2.128,7.944,3.479-3.48a31.984,31.984,0,0,1-39.628,49.7Z" transform="translate(-127.319 -151.419)" fill="#b6750e"/>
        <g id="Group_1492" data-name="Group 1492" transform="translate(30.917 20.238)">
          <path id="Path_2716" data-name="Path 2716" d="M174.911,201.764q.123,4.98-2.8,7.746a8.362,8.362,0,0,1-4.334,2.09V214.3h-4.918v-2.828a8.417,8.417,0,0,1-5.348-4.118A14.4,14.4,0,0,1,155.7,200.9l5.563-.4a8.258,8.258,0,0,0,1.753,4.857,2.974,2.974,0,0,0,2.4,1.075,3.6,3.6,0,0,0,3.042-1.875,4.653,4.653,0,0,0,.585-2.551,7.208,7.208,0,0,0-2.152-4.764q-1.752-1.63-5.2-4.888a21.26,21.26,0,0,1-3.872-4.671,11.406,11.406,0,0,1-1.506-5.748,10.722,10.722,0,0,1,1.413-5.441,7.771,7.771,0,0,1,5.133-3.872v-2.49h4.918v2.49a8.116,8.116,0,0,1,3.874,1.966,9.668,9.668,0,0,1,3.013,6.609l-5.594,1.014a7.006,7.006,0,0,0-1.353-3.719,2.735,2.735,0,0,0-2.274-.923,2.657,2.657,0,0,0-2.428,1.413,5.454,5.454,0,0,0-.676,2.828,8.6,8.6,0,0,0,2.274,5.41,21.765,21.765,0,0,0,2.551,2.429,35.61,35.61,0,0,1,2.705,2.366,20.86,20.86,0,0,1,3.289,4.243A12.041,12.041,0,0,1,174.911,201.764Z" transform="translate(-155.7 -170.136)" fill="#b6750e"/>
        </g>
        <g id="Group_1493" data-name="Group 1493" transform="translate(30.917 18.433)">
          <path id="Path_2717" data-name="Path 2717" d="M174.911,200.132q.123,4.98-2.8,7.746a8.362,8.362,0,0,1-4.334,2.09v2.705h-4.918v-2.828a8.409,8.409,0,0,1-5.348-4.118,14.4,14.4,0,0,1-1.814-6.455l5.563-.4a8.258,8.258,0,0,0,1.753,4.857,2.978,2.978,0,0,0,2.4,1.075,3.6,3.6,0,0,0,3.042-1.875,4.653,4.653,0,0,0,.585-2.551,7.208,7.208,0,0,0-2.152-4.764q-1.752-1.629-5.2-4.888a21.261,21.261,0,0,1-3.872-4.671,11.407,11.407,0,0,1-1.506-5.749,10.722,10.722,0,0,1,1.413-5.441,7.771,7.771,0,0,1,5.133-3.872V168.5h4.918v2.49a8.108,8.108,0,0,1,3.874,1.967,9.668,9.668,0,0,1,3.013,6.609l-5.594,1.015a7.006,7.006,0,0,0-1.353-3.719,2.735,2.735,0,0,0-2.274-.923,2.657,2.657,0,0,0-2.428,1.413,5.457,5.457,0,0,0-.676,2.828,8.6,8.6,0,0,0,2.274,5.41,21.764,21.764,0,0,0,2.551,2.429,35.619,35.619,0,0,1,2.705,2.366,20.861,20.861,0,0,1,3.289,4.243A12.041,12.041,0,0,1,174.911,200.132Z" transform="translate(-155.7 -168.503)" fill="#f4d03f"/>
        </g>
        <path id="Path_2718" data-name="Path 2718" d="M185.26,165.259l-2.634-9.828,5.126,1.374A40.539,40.539,0,0,0,139.58,221.01h0l-3.48,3.48,17.772,4.762-4.762-17.772-3.48,3.479h0a31.984,31.984,0,0,1,39.63-49.7Z" transform="translate(-127.724 -151.824)" fill="url(#linear-gradient-19)"/>
        <path id="Path_2719" data-name="Path 2719" d="M194.919,163.329l3.48-3.48-17.772-4.762,4.762,17.772,3.479-3.48a31.984,31.984,0,0,1-39.629,49.7l2.633,9.828-5.126-1.374a40.539,40.539,0,0,0,48.172-64.205Z" transform="translate(-125.724 -151.48)" fill="url(#linear-gradient-20)"/>
      </g>
      <path id="Path_2776" data-name="Path 2776" d="M1.3-17.259a6.975,6.975,0,0,1,1.841-5.216,5.653,5.653,0,0,1,4.18-1.592,5.366,5.366,0,0,1,4.056,1.783,5.882,5.882,0,0,1,1.678,4.161,10.84,10.84,0,0,1-1.093,4.737A35.055,35.055,0,0,1,9.185-9.032Q8.591-8.188,7.421-6.4l-.652.978q-.633.959-.959,1.515a1.272,1.272,0,0,0-.153.345h7.114V-.019H1.246V-3.344a8.189,8.189,0,0,1,.791-1.326q.366-.555.828-1.225l.944-1.359Q4.635-8.384,6.4-10.876a23.874,23.874,0,0,0,2.5-4.236,7.324,7.324,0,0,0,.672-2.895,2.882,2.882,0,0,0-.614-1.859,2.145,2.145,0,0,0-1.726-.805,2.234,2.234,0,0,0-2.148,1.745,4.021,4.021,0,0,0-.211,1.381v.92H1.3Zm20.269,2.052a2.863,2.863,0,0,1-.892,2.109,2.91,2.91,0,0,1-2.119.882,2.9,2.9,0,0,1-2.129-.882,2.878,2.878,0,0,1-.882-2.109v-6.865a2.9,2.9,0,0,1,.882-2.129,2.9,2.9,0,0,1,2.129-.882,2.885,2.885,0,0,1,2.129.892,2.91,2.91,0,0,1,.882,2.119Zm-4.161-.038a1.056,1.056,0,0,0,.316.777,1.056,1.056,0,0,0,.777.316,1.056,1.056,0,0,0,.777-.316,1.056,1.056,0,0,0,.316-.777V-22.11a1.056,1.056,0,0,0-.316-.777A1.056,1.056,0,0,0,18.5-23.2a1.056,1.056,0,0,0-.777.316,1.056,1.056,0,0,0-.316.777Zm11.832,2.512a2.854,2.854,0,0,1,2.119.892,2.926,2.926,0,0,1,.873,2.119v6.865a2.838,2.838,0,0,1-.882,2.109,2.911,2.911,0,0,1-2.109.863,2.917,2.917,0,0,1-2.129-.873,2.847,2.847,0,0,1-.882-2.1V-9.722a2.9,2.9,0,0,1,.882-2.129A2.9,2.9,0,0,1,29.244-12.733Zm1.036,2.972a1.056,1.056,0,0,0-.316-.777,1.056,1.056,0,0,0-.777-.316,1.056,1.056,0,0,0-.777.316,1.056,1.056,0,0,0-.316.777V-2.9a1.056,1.056,0,0,0,.316.777,1.056,1.056,0,0,0,.777.316,1.056,1.056,0,0,0,.777-.316,1.056,1.056,0,0,0,.316-.777ZM18.831.4H16.7L28.977-25.025h2.107Z" transform="translate(339.231 800.038)" fill="#d46c04"/>
    </g>
  </g>
</svg>
