<svg xmlns="http://www.w3.org/2000/svg" width="62" height="62" viewBox="0 0 62 62">
  <g id="Group_1527" data-name="Group 1527" transform="translate(0 -0.3)">
    <circle id="Ellipse_415" data-name="Ellipse 415" cx="31" cy="31" r="31" transform="translate(0 0.3)" fill="#767575"/>
    <path id="Path_2761" data-name="Path 2761" d="M38.755,23.65a7.37,7.37,0,0,1,3.527-6.184,7.6,7.6,0,0,0-5.972-3.213c-2.512-.263-4.949,1.5-6.229,1.5-1.307,0-3.275-1.471-5.4-1.427a7.958,7.958,0,0,0-6.692,4.062C15.1,23.371,17.254,30.7,20.026,34.732c1.388,1.975,3.008,4.177,5.129,4.1,2.076-.084,2.85-1.317,5.355-1.317,2.483,0,3.209,1.317,5.373,1.266,2.227-.033,3.63-1.982,4.968-3.975A16.284,16.284,0,0,0,43.123,30.2a7.131,7.131,0,0,1-4.369-6.551ZM34.669,11.6a7.235,7.235,0,0,0,1.667-5.2,7.433,7.433,0,0,0-4.8,2.471,6.876,6.876,0,0,0-1.712,5.006A6.145,6.145,0,0,0,34.669,11.6Z" transform="translate(1.377 8.456)" fill="#fff" fill-rule="evenodd"/>
  </g>
</svg>
