<?xml version="1.0" encoding="utf-8"?>
<!-- Generator: Adobe Illustrator 17.0.0, SVG Export Plug-In . SVG Version: 6.00 Build 0)  -->
<!DOCTYPE svg PUBLIC "-//W3C//DTD SVG 1.0//EN" "http://www.w3.org/TR/2001/REC-SVG-20010904/DTD/svg10.dtd">
<svg version="1.0" id="Layer_1" xmlns="http://www.w3.org/2000/svg" xmlns:xlink="http://www.w3.org/1999/xlink" x="0px" y="0px"
	 width="80px" height="80px" viewBox="0 0 80 80" enable-background="new 0 0 80 80" xml:space="preserve">
<g>
	<path d="M14.241,12.06c0-0.806-0.013-1.512,0.003-2.217c0.04-1.828,1.487-3.26,3.283-3.261c1.798-0.001,3.243,1.426,3.285,3.258
		c0.016,0.706,0.003,1.412,0.003,2.169c1.82,0,3.608,0,5.482,0c0-0.671-0.005-1.348,0.001-2.024c0.018-1.931,1.437-3.4,3.28-3.402
		c1.847-0.003,3.271,1.461,3.293,3.39c0.007,0.661,0.001,1.322,0.001,2.035c2.18,0,4.334,0,6.577,0c0-0.666-0.005-1.342,0.001-2.018
		c0.018-1.933,1.433-3.402,3.275-3.407c1.847-0.005,3.276,1.458,3.298,3.385c0.008,0.661,0.001,1.323,0.001,2.039
		c1.811,0,3.6,0,5.48,0c0-0.637-0.003-1.29,0.001-1.943c0.011-1.993,1.404-3.473,3.271-3.481c1.874-0.008,3.288,1.467,3.303,3.448
		c0.005,0.639,0.001,1.278,0.001,2.03c0.577,0,1.135,0,1.694,0c3.711,0.001,5.977,2.26,5.978,5.962
		c0.001,9.817,0.006,19.634-0.013,29.451c-0.001,0.614,0.143,0.945,0.726,1.254c4.971,2.637,7.696,8.159,6.797,13.66
		c-0.91,5.564-5.29,10.049-10.879,10.86c-5.528,0.802-9.922-1.233-13.106-5.819c-0.302-0.436-0.59-0.578-1.098-0.577
		c-11.963,0.014-23.927,0.013-35.89,0.009c-2.973-0.001-5.194-1.855-5.661-4.715c-0.055-0.335-0.058-0.682-0.058-1.023
		C6.568,46.692,6.566,32.263,6.569,17.834c0.001-3.431,2.333-5.764,5.754-5.774C12.935,12.059,13.547,12.06,14.241,12.06z
		 M63.536,25.262c-18.287,0-36.515,0-54.776,0c0,0.275,0,0.501,0,0.728c0,11.667,0,23.334,0,35.001c0,2.37,1.314,3.678,3.694,3.678
		c11.53,0.001,23.06,0,34.59,0c0.246,0,0.493,0,0.771,0c-1.743-6.238-0.062-11.307,5.085-15.344c-0.826,0-1.525,0.005-2.225-0.001
		c-0.979-0.008-1.359-0.388-1.362-1.376c-0.005-2.009-0.005-4.018,0-6.028c0.003-0.981,0.386-1.359,1.374-1.362
		c1.758-0.005,3.516-0.001,5.274-0.002c2.006,0,2.118,0.113,2.118,2.13c0,1.524,0,3.048,0,4.434
		c1.868,0.083,3.652,0.163,5.455,0.243C63.536,40.094,63.536,32.702,63.536,25.262z M32.872,14.282c0,0.739,0.006,1.4-0.001,2.061
		c-0.022,1.927-1.449,3.391-3.295,3.387c-1.842-0.004-3.26-1.474-3.278-3.404c-0.006-0.676-0.001-1.352-0.001-2.023
		c-1.874,0-3.662,0-5.481,0c0,0.711,0.006,1.371-0.001,2.031c-0.021,1.93-1.442,3.396-3.287,3.396c-1.843,0-3.267-1.469-3.287-3.395
		c-0.007-0.677-0.001-1.354-0.001-2.08c-0.805,0-1.531-0.015-2.256,0.003c-1.605,0.041-3.046,1.183-3.156,2.775
		C8.692,19,8.796,20.985,8.796,22.982c18.262,0,36.485,0,54.745,0c0-1.972,0.065-3.91-0.022-5.841
		c-0.061-1.359-1.114-2.514-2.469-2.76c-0.947-0.172-1.935-0.121-2.969-0.173c0,0.747,0.003,1.381-0.001,2.014
		c-0.011,2.034-1.416,3.52-3.314,3.507c-1.865-0.013-3.251-1.494-3.261-3.49c-0.003-0.652-0.001-1.303-0.001-1.955
		c-1.87,0-3.641,0-5.48,0c0,0.254,0,0.475,0,0.697c-0.007,3.211-1.084,4.758-3.306,4.748c-2.197-0.01-3.266-1.55-3.27-4.714
		c0-0.241,0-0.483,0-0.734C37.22,14.282,35.083,14.282,32.872,14.282z M60.268,49.325c-6.024,0.002-10.944,4.91-10.954,10.929
		c-0.011,6.057,4.912,10.992,10.964,10.99c6.021-0.002,10.945-4.914,10.955-10.931C71.243,54.257,66.321,49.324,60.268,49.325z
		 M55.843,47.1c0-1.47,0-2.891,0-4.299c-1.468,0-2.889,0-4.303,0c0,1.458,0,2.862,0,4.299C52.978,47.1,54.383,47.1,55.843,47.1z
		 M16.432,13.13c0,1.05-0.008,2.1,0.003,3.15c0.008,0.759,0.428,1.239,1.066,1.255c0.664,0.017,1.116-0.479,1.119-1.271
		c0.008-2.077,0.009-4.155,0-6.232c-0.003-0.763-0.425-1.238-1.067-1.254c-0.666-0.016-1.111,0.477-1.119,1.271
		C16.425,11.075,16.432,12.102,16.432,13.13z M30.68,13.224c0-1.05,0.007-2.1-0.002-3.15c-0.007-0.805-0.431-1.297-1.094-1.297
		c-0.663,0-1.09,0.492-1.093,1.297c-0.007,2.055-0.007,4.109,0,6.164c0.003,0.805,0.43,1.297,1.093,1.297
		c0.662,0,1.087-0.494,1.094-1.297C30.687,15.233,30.68,14.229,30.68,13.224z M43.832,13.162c0-1.027,0.006-2.055-0.002-3.082
		c-0.007-0.808-0.425-1.299-1.088-1.303c-0.664-0.004-1.097,0.488-1.099,1.29c-0.007,2.055-0.007,4.109,0,6.164
		c0.003,0.807,0.425,1.299,1.087,1.304c0.662,0.004,1.094-0.49,1.101-1.291C43.839,15.217,43.832,14.19,43.832,13.162z
		 M55.889,13.17c0-1.027,0.006-2.055-0.002-3.082c-0.006-0.81-0.42-1.302-1.08-1.311c-0.664-0.009-1.104,0.484-1.107,1.283
		c-0.008,2.055-0.007,4.109-0.001,6.164c0.002,0.81,0.419,1.302,1.079,1.311c0.663,0.009,1.101-0.486,1.108-1.283
		C55.896,15.224,55.889,14.197,55.889,13.17z"/>
	<path d="M21.912,32.913c0,1.027,0.009,2.055-0.003,3.082c-0.01,0.856-0.41,1.266-1.259,1.27c-2.078,0.01-4.155,0.01-6.233,0
		c-0.856-0.004-1.265-0.409-1.269-1.259c-0.01-2.078-0.01-4.155,0-6.233c0.004-0.857,0.407-1.265,1.258-1.269
		c2.078-0.01,4.155-0.01,6.233,0c0.856,0.004,1.26,0.408,1.271,1.258C21.921,30.812,21.912,31.862,21.912,32.913z M15.362,35.024
		c1.488,0,2.91,0,4.323,0c0-1.458,0-2.862,0-4.291c-1.456,0-2.876,0-4.323,0C15.362,32.178,15.362,33.583,15.362,35.024z"/>
	<path d="M33.968,32.885c0,1.027,0.008,2.055-0.002,3.082c-0.009,0.895-0.406,1.295-1.301,1.299c-2.055,0.008-4.11,0.008-6.165,0
		c-0.895-0.004-1.294-0.404-1.298-1.3c-0.008-2.055-0.008-4.11,0-6.165c0.004-0.896,0.403-1.294,1.299-1.298
		c2.055-0.008,4.11-0.008,6.165,0c0.895,0.004,1.291,0.403,1.299,1.299C33.976,30.83,33.968,31.857,33.968,32.885z M31.729,35.045
		c0-1.471,0-2.892,0-4.299c-1.469,0-2.89,0-4.302,0c0,1.458,0,2.863,0,4.299C28.867,35.045,30.271,35.045,31.729,35.045z"/>
	<path d="M41.662,28.501c1.027,0,2.055-0.008,3.082,0.003c0.859,0.009,1.272,0.406,1.277,1.252c0.011,2.078,0.01,4.155,0.001,6.233
		c-0.004,0.859-0.407,1.272-1.252,1.277c-2.078,0.011-4.155,0.01-6.233,0.001c-0.859-0.004-1.271-0.406-1.276-1.252
		c-0.011-2.078-0.01-4.155-0.001-6.233c0.004-0.884,0.411-1.27,1.32-1.277C39.607,28.495,40.634,28.501,41.662,28.501z
		 M39.506,30.707c0,1.442,0,2.878,0,4.323c1.444,0,2.865,0,4.275,0c0-1.468,0-2.889,0-4.323
		C42.34,30.707,40.952,30.707,39.506,30.707z"/>
	<path d="M53.699,28.501c1.027,0,2.055-0.007,3.082,0.002c0.894,0.008,1.293,0.404,1.297,1.302c0.008,2.055,0.008,4.11,0,6.165
		c-0.004,0.894-0.406,1.293-1.302,1.297c-2.055,0.008-4.11,0.008-6.165,0c-0.894-0.004-1.293-0.405-1.296-1.302
		c-0.008-2.055-0.008-4.11,0-6.165c0.004-0.895,0.403-1.288,1.301-1.296C51.644,28.494,52.672,28.501,53.699,28.501z M51.532,35.025
		c1.485,0,2.907,0,4.323,0c0-1.457,0-2.861,0-4.293c-1.454,0-2.875,0-4.323,0C51.532,32.176,51.532,33.581,51.532,35.025z"/>
	<path d="M17.597,40.557c1.005,0,2.009-0.007,3.014,0.002c0.895,0.008,1.295,0.404,1.299,1.3c0.008,2.055,0.008,4.11,0,6.165
		c-0.004,0.895-0.405,1.295-1.3,1.299c-2.055,0.008-4.11,0.008-6.165,0c-0.895-0.004-1.294-0.404-1.298-1.3
		c-0.008-2.055-0.008-4.11,0-6.165c0.004-0.896,0.402-1.29,1.299-1.298C15.496,40.55,16.546,40.557,17.597,40.557z M15.386,42.778
		c0,1.481,0,2.902,0,4.299c1.472,0,2.893,0,4.296,0c0-1.461,0-2.866,0-4.299C18.24,42.778,16.835,42.778,15.386,42.778z"/>
	<path d="M33.968,44.941c0,1.027,0.008,2.055-0.002,3.082c-0.009,0.895-0.405,1.295-1.3,1.299c-2.055,0.008-4.11,0.008-6.165,0
		c-0.895-0.004-1.295-0.404-1.298-1.3c-0.008-2.055-0.008-4.11,0-6.165c0.004-0.896,0.402-1.295,1.299-1.298
		c2.055-0.008,4.11-0.008,6.165,0c0.895,0.003,1.291,0.403,1.299,1.299C33.976,42.886,33.968,43.913,33.968,44.941z M31.746,42.797
		c-1.476,0-2.897,0-4.299,0c0,1.47,0,2.892,0,4.299c1.46,0,2.865,0,4.299,0C31.746,45.656,31.746,44.251,31.746,42.797z"/>
	<path d="M46.024,44.982c0,1.027,0.01,2.055-0.003,3.082c-0.01,0.849-0.416,1.254-1.272,1.258c-2.078,0.009-4.155,0.01-6.233,0
		c-0.849-0.004-1.253-0.415-1.257-1.271c-0.009-2.078-0.01-4.155,0-6.233c0.004-0.85,0.413-1.253,1.27-1.257
		c2.078-0.009,4.155-0.01,6.233,0c0.849,0.004,1.249,0.414,1.258,1.27C46.033,42.881,46.024,43.931,46.024,44.982z M39.475,47.08
		c1.488,0,2.91,0,4.323,0c0-1.458,0-2.862,0-4.291c-1.456,0-2.876,0-4.323,0C39.475,44.234,39.475,45.639,39.475,47.08z"/>
	<path d="M13.144,56.997c0-1.027-0.007-2.055,0.002-3.082c0.008-0.897,0.402-1.295,1.299-1.299c2.055-0.008,4.11-0.008,6.165,0
		c0.895,0.003,1.296,0.403,1.3,1.298c0.008,2.055,0.008,4.11,0,6.165c-0.004,0.895-0.405,1.296-1.299,1.3
		c-2.055,0.008-4.11,0.008-6.165,0c-0.895-0.004-1.291-0.404-1.299-1.299C13.137,59.052,13.144,58.024,13.144,56.997z
		 M15.385,54.835c0,1.476,0,2.897,0,4.299c1.47,0,2.892,0,4.299,0c0-1.46,0-2.865,0-4.299
		C18.243,54.835,16.838,54.835,15.385,54.835z"/>
	<path d="M25.201,56.939c0-1.027-0.01-2.055,0.003-3.082c0.01-0.815,0.414-1.234,1.218-1.239c2.1-0.012,4.201-0.011,6.302-0.001
		c0.814,0.004,1.235,0.414,1.24,1.218c0.013,2.1,0.012,4.201,0.001,6.302c-0.004,0.814-0.415,1.235-1.219,1.24
		c-2.1,0.013-4.201,0.012-6.302,0c-0.838-0.005-1.233-0.424-1.241-1.287C25.193,59.04,25.201,57.989,25.201,56.939z M31.728,59.158
		c0-1.475,0-2.896,0-4.299c-1.47,0-2.891,0-4.3,0c0,1.459,0,2.864,0,4.299C28.869,59.158,30.274,59.158,31.728,59.158z"/>
	<path d="M41.572,61.381c-1.005,0-2.009,0.007-3.014-0.002c-0.896-0.009-1.296-0.404-1.299-1.299c-0.008-2.055-0.008-4.11,0-6.165
		c0.004-0.897,0.402-1.295,1.298-1.299c2.055-0.008,4.11-0.008,6.165,0c0.896,0.003,1.296,0.403,1.3,1.298
		c0.008,2.055,0.008,4.11,0,6.165c-0.004,0.895-0.404,1.292-1.299,1.3C43.673,61.388,42.622,61.381,41.572,61.381z M39.498,54.834
		c0,1.479,0,2.9,0,4.299c1.471,0,2.893,0,4.297,0c0-1.461,0-2.866,0-4.299C42.353,54.834,40.949,54.834,39.498,54.834z"/>
	<path d="M59.177,51.548c0.771,0,1.446,0,2.192,0c0,1.824,0.01,3.618-0.005,5.412c-0.006,0.769-0.003,1.446,0.65,2.081
		c0.654,0.636,0.601,1.543,0.142,2.353c-0.436,0.769-1.341,1.161-2.21,1.076c-0.293-0.029-0.669,0.048-0.897,0.221
		c-1.194,0.906-2.353,1.858-3.567,2.829c-0.467-0.581-0.904-1.124-1.37-1.702c1.22-0.978,2.401-1.903,3.55-2.866
		c0.209-0.175,0.296-0.502,0.422-0.767c0.229-0.482,0.351-1.055,0.693-1.432c0.313-0.345,0.409-0.648,0.407-1.075
		C59.17,55.653,59.177,53.628,59.177,51.548z"/>
</g>
</svg>
