<svg id="Group_1495" data-name="Group 1495" xmlns="http://www.w3.org/2000/svg" xmlns:xlink="http://www.w3.org/1999/xlink" width="284.502" height="97.97" viewBox="0 0 284.502 97.97">
  <defs>
    <linearGradient id="linear-gradient" y1="0.5" x2="1" y2="0.5" gradientUnits="objectBoundingBox">
      <stop offset="0" stop-color="#16a085"/>
      <stop offset="1" stop-color="#2ecc71"/>
    </linearGradient>
    <linearGradient id="linear-gradient-2" x1="0.5" y1="0.839" x2="0.5" y2="-0.294" gradientUnits="objectBoundingBox">
      <stop offset="0" stop-color="#f39c12"/>
      <stop offset="1" stop-color="#f1c40f"/>
    </linearGradient>
    <linearGradient id="linear-gradient-3" x1="1.003" y1="0.377" x2="0.441" y2="0.515" gradientUnits="objectBoundingBox">
      <stop offset="0" stop-color="#f39c12"/>
      <stop offset="1" stop-color="#f4d03f"/>
    </linearGradient>
    <linearGradient id="linear-gradient-4" x1="0.012" y1="0.601" x2="0.713" y2="0.453" xlink:href="#linear-gradient-3"/>
  </defs>
  <path id="Path_2711" data-name="Path 2711" d="M174.119,149.533H320.457a7.488,7.488,0,0,1,7.375,8.789l-2.153,12.207H394.06a7.488,7.488,0,0,1,7.375,8.789L395.2,214.653a7.489,7.489,0,0,1-7.375,6.189H161.546Z" transform="translate(-117.049 -144.934)" fill="#dfd"/>
  <path id="Path_2767" data-name="Path 2767" d="M1.494-12.6H4.41V0H1.494Zm17.46,0V0H16.56L10.278-7.65V0H7.4V-12.6H9.81l6.264,7.65V-12.6ZM26.082.216a10.309,10.309,0,0,1-2.889-.405,6.776,6.776,0,0,1-2.241-1.053l.99-2.2a6.718,6.718,0,0,0,1.926.954,7.234,7.234,0,0,0,2.232.36,3.566,3.566,0,0,0,1.836-.369,1.115,1.115,0,0,0,.594-.981.938.938,0,0,0-.351-.747,2.661,2.661,0,0,0-.9-.477q-.549-.18-1.485-.4a20.528,20.528,0,0,1-2.358-.684,3.831,3.831,0,0,1-1.575-1.1A2.965,2.965,0,0,1,21.2-8.892a3.507,3.507,0,0,1,.594-1.989,4,4,0,0,1,1.791-1.413,7.308,7.308,0,0,1,2.925-.522,9.685,9.685,0,0,1,2.358.288,6.966,6.966,0,0,1,2.016.828l-.9,2.214a7.026,7.026,0,0,0-3.492-.99,3.274,3.274,0,0,0-1.809.4A1.209,1.209,0,0,0,24.1-9.036a1.021,1.021,0,0,0,.675.963,10.6,10.6,0,0,0,2.061.621,20.528,20.528,0,0,1,2.358.684,3.9,3.9,0,0,1,1.575,1.08,2.9,2.9,0,0,1,.657,2,3.441,3.441,0,0,1-.6,1.971A4.051,4.051,0,0,1,29.016-.306,7.375,7.375,0,0,1,26.082.216Zm9.774-10.44H31.824V-12.6H42.8v2.376H38.772V0H35.856ZM52.038-2.7h-5.85L45.072,0H42.084L47.7-12.6h2.88L56.214,0h-3.06ZM51.12-4.914l-2-4.824-2,4.824ZM69.084-12.6V0H66.69L60.408-7.65V0h-2.88V-12.6H59.94L66.2-4.95V-12.6Zm5.6,2.376H70.65V-12.6H81.63v2.376H77.6V0H74.682Z" transform="translate(97.592 25.166)" fill="#e74c3c"/>
  <path id="Path_2768" data-name="Path 2768" d="M6.74.3A5.342,5.342,0,0,1,2.816-1.32,5.321,5.321,0,0,1,1.2-5.226V-17.857a5.327,5.327,0,0,1,1.625-3.924A5.351,5.351,0,0,1,6.74-23.4a5.3,5.3,0,0,1,3.915,1.625,5.367,5.367,0,0,1,1.607,3.915v2.641H8.642V-17.93a1.938,1.938,0,0,0-.591-1.422,1.938,1.938,0,0,0-1.422-.591,1.908,1.908,0,0,0-1.413.591,1.954,1.954,0,0,0-.582,1.422V-5.263A1.923,1.923,0,0,0,5.217-3.85a1.923,1.923,0,0,0,1.413.582A1.954,1.954,0,0,0,8.051-3.85a1.908,1.908,0,0,0,.591-1.413V-8.457h3.619v3.232a5.3,5.3,0,0,1-1.625,3.915A5.345,5.345,0,0,1,6.74.3Zm12.4-5.614L18.3,0H14.662L18.6-23.138h4.8L27.274,0H23.6l-.817-5.318Zm1.833-12.52L19.685-8.716H22.27ZM41.216-5.761A6.508,6.508,0,0,1,39.96-1.625,4.523,4.523,0,0,1,37.56.018a6.545,6.545,0,0,1-1.939.259,5.488,5.488,0,0,1-3.4-1.016A5.681,5.681,0,0,1,30.441-3a9.127,9.127,0,0,1-.766-3.278L33-6.518A5.052,5.052,0,0,0,34.07-3.586a1.787,1.787,0,0,0,1.44.65,2.165,2.165,0,0,0,1.828-1.128A2.8,2.8,0,0,0,37.689-5.6a4.259,4.259,0,0,0-1.311-2.865l-3.1-2.939a13.255,13.255,0,0,1-2.456-3.013,6.967,6.967,0,0,1-.776-3.253,5.657,5.657,0,0,1,2.124-4.787,5.277,5.277,0,0,1,3.25-.98,5.907,5.907,0,0,1,3.195.831,4.8,4.8,0,0,1,1.671,1.81,6.7,6.7,0,0,1,.766,2.678l-3.342.609a4.029,4.029,0,0,0-.812-2.216,1.706,1.706,0,0,0-1.385-.572,1.6,1.6,0,0,0-1.459.849,3.275,3.275,0,0,0-.406,1.7,5.1,5.1,0,0,0,1.366,3.232,11.546,11.546,0,0,0,1.551,1.477q1.219,1.016,1.607,1.422a11.842,11.842,0,0,1,1.994,2.548A9.766,9.766,0,0,1,40.7-7.977,6.344,6.344,0,0,1,41.216-5.761Zm5.891-4.044V0h-3.49V-23.138h3.49v9.824h4.21v-9.824h3.49V0h-3.49V-9.805ZM57.207,0V-23.156h5.226a6.655,6.655,0,0,1,3.73,1.089A5.07,5.07,0,0,1,68.195-19.2a8.063,8.063,0,0,1,.332,2.456,5.436,5.436,0,0,1-1.237,3.73,3.507,3.507,0,0,1-1.219.9,4.055,4.055,0,0,1,1.976,1.754,6.821,6.821,0,0,1,.794,2.29,9.132,9.132,0,0,1,.129,1.607,7.733,7.733,0,0,1-.831,3.73,4.979,4.979,0,0,1-1.828,1.92A5.035,5.035,0,0,1,63.67,0Zm3.767-3.453h1.459a2.476,2.476,0,0,0,2.456-1.828,4.015,4.015,0,0,0,.24-1.44,4.387,4.387,0,0,0-.739-2.825,2.382,2.382,0,0,0-1.957-.812H60.974Zm0-10.249h1.459a2.138,2.138,0,0,0,2.179-1.588,4.53,4.53,0,0,0,.2-1.459,3.051,3.051,0,0,0-.7-2.179,2.208,2.208,0,0,0-1.68-.683H60.974ZM75.853-5.318,75,0H71.371L75.3-23.138h4.8L83.983,0h-3.67L79.5-5.318Zm1.833-12.52L76.393-8.716h2.585ZM91.923.3A5.342,5.342,0,0,1,88-1.32a5.321,5.321,0,0,1-1.616-3.906V-17.857a5.327,5.327,0,0,1,1.625-3.924A5.351,5.351,0,0,1,91.923-23.4a5.3,5.3,0,0,1,3.915,1.625,5.367,5.367,0,0,1,1.607,3.915v2.641H93.825V-17.93a1.938,1.938,0,0,0-.591-1.422,1.938,1.938,0,0,0-1.422-.591,1.908,1.908,0,0,0-1.413.591,1.954,1.954,0,0,0-.582,1.422V-5.263A1.923,1.923,0,0,0,90.4-3.85a1.923,1.923,0,0,0,1.413.582,1.954,1.954,0,0,0,1.422-.582,1.908,1.908,0,0,0,.591-1.413V-8.457h3.619v3.232A5.3,5.3,0,0,1,95.82-1.311,5.345,5.345,0,0,1,91.923.3ZM103.335-7.34V0h-3.49V-23.156h3.49V-14.9l4.266-8.254h3.721l-4.777,9.445L112.147,0h-4.1L104.38-9.4Z" transform="translate(94.919 57.714)" fill="#2c3e50"/>
  <path id="Path_2712" data-name="Path 2712" d="M163.52,234.288h127.7a8.077,8.077,0,0,0,7.954-6.674l1.145-6.494a8.078,8.078,0,0,0-7.955-9.481H167.514Z" transform="translate(-116.841 -138.405)" fill="url(#linear-gradient)"/>
  <path id="Path_2713" data-name="Path 2713" d="M207.911,165.574a7.133,7.133,0,0,0,.3-2.028v-2.673a7.13,7.13,0,0,0-5.285-6.887l-11.85-3.176a47.883,47.883,0,0,0-22.159-5.437,47.333,47.333,0,0,0-33.7,13.937A47.834,47.834,0,0,0,121.3,194.493a47.424,47.424,0,0,0,8.648,28.622,7.126,7.126,0,0,0-.3,2.054v2.673a7.128,7.128,0,0,0,5.285,6.887l11.851,3.175a47.875,47.875,0,0,0,22.158,5.437h0a47.333,47.333,0,0,0,33.693-13.937,47.847,47.847,0,0,0,13.916-35.047A47.449,47.449,0,0,0,207.911,165.574Z" transform="translate(-121.282 -145.372)" fill="#dfd"/>
  <path id="Path_2769" data-name="Path 2769" d="M5.91.18a4.751,4.751,0,0,1-3.5-1.245A4.793,4.793,0,0,1,1.155-4.62V-10.5h2.43v5.79q0,2.82,2.34,2.82a2.193,2.193,0,0,0,1.74-.683,3.182,3.182,0,0,0,.6-2.137V-10.5h2.4v5.88A4.793,4.793,0,0,1,9.413-1.065,4.751,4.751,0,0,1,5.91.18ZM17.61-10.5a5.833,5.833,0,0,1,2.423.465,3.6,3.6,0,0,1,1.583,1.32A3.636,3.636,0,0,1,22.17-6.69a3.646,3.646,0,0,1-.555,2.017,3.535,3.535,0,0,1-1.583,1.32,5.916,5.916,0,0,1-2.423.458H15.495V0h-2.43V-10.5Zm-.135,5.625a2.552,2.552,0,0,0,1.665-.472,1.646,1.646,0,0,0,.57-1.342,1.663,1.663,0,0,0-.57-1.358,2.552,2.552,0,0,0-1.665-.472h-1.98v3.645ZM30.465-8.52H27.1V-10.5h9.15v1.98h-3.36V0h-2.43ZM42.495.18a6.129,6.129,0,0,1-2.948-.7,5.232,5.232,0,0,1-2.055-1.943A5.3,5.3,0,0,1,36.75-5.25a5.3,5.3,0,0,1,.743-2.783,5.232,5.232,0,0,1,2.055-1.942,6.129,6.129,0,0,1,2.948-.7,6.085,6.085,0,0,1,2.94.7A5.3,5.3,0,0,1,47.49-8.033a5.262,5.262,0,0,1,.75,2.783,5.262,5.262,0,0,1-.75,2.783A5.3,5.3,0,0,1,45.435-.525,6.085,6.085,0,0,1,42.495.18Zm0-2.07a3.332,3.332,0,0,0,1.68-.428A3.068,3.068,0,0,0,45.352-3.51a3.506,3.506,0,0,0,.428-1.74,3.506,3.506,0,0,0-.428-1.74,3.068,3.068,0,0,0-1.178-1.193,3.332,3.332,0,0,0-1.68-.427,3.332,3.332,0,0,0-1.68.427A3.068,3.068,0,0,0,39.637-6.99a3.506,3.506,0,0,0-.427,1.74,3.506,3.506,0,0,0,.427,1.74,3.068,3.068,0,0,0,1.178,1.193A3.332,3.332,0,0,0,42.495-1.89Zm19-.09V0H53.565V-1.575L57.615-5.4a4.3,4.3,0,0,0,.87-1.058,1.924,1.924,0,0,0,.225-.878,1.16,1.16,0,0,0-.427-.967A1.989,1.989,0,0,0,57.03-8.64a2.876,2.876,0,0,0-1.245.262,2.384,2.384,0,0,0-.93.787l-1.77-1.14a4.152,4.152,0,0,1,1.695-1.432,5.661,5.661,0,0,1,2.475-.517A5.089,5.089,0,0,1,59.3-10.3a3.156,3.156,0,0,1,1.365,1.08,2.794,2.794,0,0,1,.488,1.643,3.661,3.661,0,0,1-.36,1.6,6.178,6.178,0,0,1-1.4,1.71L56.985-1.98Zm3.585-2.85A2.446,2.446,0,0,1,63.2-5.618a2.983,2.983,0,0,1-.728-2.108A2.983,2.983,0,0,1,63.2-9.833a2.446,2.446,0,0,1,1.883-.787,2.422,2.422,0,0,1,1.875.787,3,3,0,0,1,.72,2.107,3,3,0,0,1-.72,2.108A2.422,2.422,0,0,1,65.085-4.83ZM71.34-10.5h1.785L65.955,0H64.17ZM65.085-6.06a.926.926,0,0,0,.8-.42,2.18,2.18,0,0,0,.292-1.245,2.18,2.18,0,0,0-.292-1.245.926.926,0,0,0-.8-.42.927.927,0,0,0-.8.427,2.143,2.143,0,0,0-.3,1.237,2.143,2.143,0,0,0,.3,1.238A.927.927,0,0,0,65.085-6.06ZM72.21.12a2.575,2.575,0,0,1-1.343-.353,2.388,2.388,0,0,1-.922-1.013,3.379,3.379,0,0,1-.33-1.53,3.379,3.379,0,0,1,.33-1.53,2.388,2.388,0,0,1,.922-1.013A2.575,2.575,0,0,1,72.21-5.67a2.446,2.446,0,0,1,1.882.787,2.983,2.983,0,0,1,.727,2.108,2.983,2.983,0,0,1-.727,2.108A2.446,2.446,0,0,1,72.21.12Zm0-1.23a.922.922,0,0,0,.8-.428A2.186,2.186,0,0,0,73.3-2.775a2.186,2.186,0,0,0-.292-1.238.922.922,0,0,0-.8-.427.932.932,0,0,0-.8.42,2.138,2.138,0,0,0-.3,1.245,2.138,2.138,0,0,0,.3,1.245A.932.932,0,0,0,72.21-1.11Z" transform="translate(94.968 89.413)" fill="#fff"/>
  <g id="Group_1494" data-name="Group 1494" transform="translate(7.119 7.13)">
    <path id="Path_2714" data-name="Path 2714" d="M196.918,166.092l3.48-3.479v-2.674l-20.908-4.762-.585.487a40.52,40.52,0,0,0-39.882,67.179l-2.923,1.391v2.673l12.646,3.388a40.539,40.539,0,0,0,48.172-64.2Zm-6.051,51.287a32.036,32.036,0,0,1-39.629,4.464L149.11,213.9l-3.48,3.48h0a31.984,31.984,0,0,1,39.629-49.7l2.129,7.944,3.479-3.48A32.024,32.024,0,0,1,190.867,217.379Z" transform="translate(-127.723 -151.569)" fill="#b6750e"/>
    <ellipse id="Ellipse_413" data-name="Ellipse 413" cx="36.266" cy="36.266" rx="36.266" ry="36.266" transform="translate(4.259 4.252)" fill="url(#linear-gradient-2)"/>
    <path id="Path_2715" data-name="Path 2715" d="M204.11,191.937A36.266,36.266,0,1,0,167.844,228.2,36.266,36.266,0,0,0,204.11,191.937Zm-53.276,29.935-2.128-7.944-3.48,3.48h0a31.984,31.984,0,0,1,39.629-49.7l2.128,7.944,3.479-3.48a31.984,31.984,0,0,1-39.628,49.7Z" transform="translate(-127.319 -151.419)" fill="#b6750e"/>
    <g id="Group_1492" data-name="Group 1492" transform="translate(30.917 20.238)">
      <path id="Path_2716" data-name="Path 2716" d="M174.911,201.764q.123,4.98-2.8,7.746a8.362,8.362,0,0,1-4.334,2.09V214.3h-4.918v-2.828a8.417,8.417,0,0,1-5.348-4.118A14.4,14.4,0,0,1,155.7,200.9l5.563-.4a8.258,8.258,0,0,0,1.753,4.857,2.974,2.974,0,0,0,2.4,1.075,3.6,3.6,0,0,0,3.042-1.875,4.653,4.653,0,0,0,.585-2.551,7.208,7.208,0,0,0-2.152-4.764q-1.752-1.63-5.2-4.888a21.26,21.26,0,0,1-3.872-4.671,11.406,11.406,0,0,1-1.506-5.748,10.722,10.722,0,0,1,1.413-5.441,7.771,7.771,0,0,1,5.133-3.872v-2.49h4.918v2.49a8.116,8.116,0,0,1,3.874,1.966,9.668,9.668,0,0,1,3.013,6.609l-5.594,1.014a7.006,7.006,0,0,0-1.353-3.719,2.735,2.735,0,0,0-2.274-.923,2.657,2.657,0,0,0-2.428,1.413,5.454,5.454,0,0,0-.676,2.828,8.6,8.6,0,0,0,2.274,5.41,21.765,21.765,0,0,0,2.551,2.429,35.61,35.61,0,0,1,2.705,2.366,20.86,20.86,0,0,1,3.289,4.243A12.041,12.041,0,0,1,174.911,201.764Z" transform="translate(-155.7 -170.136)" fill="#b6750e"/>
    </g>
    <g id="Group_1493" data-name="Group 1493" transform="translate(30.917 18.433)">
      <path id="Path_2717" data-name="Path 2717" d="M174.911,200.132q.123,4.98-2.8,7.746a8.362,8.362,0,0,1-4.334,2.09v2.705h-4.918v-2.828a8.409,8.409,0,0,1-5.348-4.118,14.4,14.4,0,0,1-1.814-6.455l5.563-.4a8.258,8.258,0,0,0,1.753,4.857,2.978,2.978,0,0,0,2.4,1.075,3.6,3.6,0,0,0,3.042-1.875,4.653,4.653,0,0,0,.585-2.551,7.208,7.208,0,0,0-2.152-4.764q-1.752-1.629-5.2-4.888a21.261,21.261,0,0,1-3.872-4.671,11.407,11.407,0,0,1-1.506-5.749,10.722,10.722,0,0,1,1.413-5.441,7.771,7.771,0,0,1,5.133-3.872V168.5h4.918v2.49a8.108,8.108,0,0,1,3.874,1.967,9.668,9.668,0,0,1,3.013,6.609l-5.594,1.015a7.006,7.006,0,0,0-1.353-3.719,2.735,2.735,0,0,0-2.274-.923,2.657,2.657,0,0,0-2.428,1.413,5.457,5.457,0,0,0-.676,2.828,8.6,8.6,0,0,0,2.274,5.41,21.764,21.764,0,0,0,2.551,2.429,35.619,35.619,0,0,1,2.705,2.366,20.861,20.861,0,0,1,3.289,4.243A12.041,12.041,0,0,1,174.911,200.132Z" transform="translate(-155.7 -168.503)" fill="#f4d03f"/>
    </g>
    <path id="Path_2718" data-name="Path 2718" d="M185.26,165.259l-2.634-9.828,5.126,1.374A40.539,40.539,0,0,0,139.58,221.01h0l-3.48,3.48,17.772,4.762-4.762-17.772-3.48,3.479h0a31.984,31.984,0,0,1,39.63-49.7Z" transform="translate(-127.724 -151.824)" fill="url(#linear-gradient-3)"/>
    <path id="Path_2719" data-name="Path 2719" d="M194.919,163.329l3.48-3.48-17.772-4.762,4.762,17.772,3.479-3.48a31.984,31.984,0,0,1-39.629,49.7l2.633,9.828-5.126-1.374a40.539,40.539,0,0,0,48.172-64.205Z" transform="translate(-125.724 -151.48)" fill="url(#linear-gradient-4)"/>
  </g>
</svg>
