<svg xmlns="http://www.w3.org/2000/svg" width="24" height="23.903" viewBox="0 0 24 23.903">
  <g id="groups_black_24dp" transform="translate(0 0)">
    <rect id="Rectangle_776" data-name="Rectangle 776" width="23.907" height="23.903" transform="translate(0.063 0)" fill="none"/>
    <g id="Group_1563" data-name="Group 1563" transform="translate(8.219 8.164)" opacity="0.3">
      <path id="Path_2071" data-name="Path 2071" d="M8.07,15.7c.087-.221.125-.375.876-.664a8.1,8.1,0,0,1,5.812,0c.741.289.779.443.876.664ZM11.851,8a.962.962,0,1,1-.962.962A.965.965,0,0,1,11.851,8" transform="translate(-8.07 -8)" fill="#e96161"/>
    </g>
    <g id="Group_1564" data-name="Group 1564" transform="translate(0 6.241)">
      <path id="Path_2072" data-name="Path 2072" d="M4,12.735A1.926,1.926,0,1,0,4,8.887a1.926,1.926,0,1,0,0,3.849Zm1.13,1.058A7.25,7.25,0,0,0,4,13.7a7.184,7.184,0,0,0-2.78.558A1.934,1.934,0,0,0,0,16.036v1.511H4.5V16A4.206,4.206,0,0,1,5.13,13.794ZM20,12.735a1.926,1.926,0,1,0-2-1.924A1.969,1.969,0,0,0,20,12.735Zm4,3.3a1.934,1.934,0,0,0-1.22-1.78,7.048,7.048,0,0,0-3.91-.462A4.206,4.206,0,0,1,19.5,16v1.549H24Zm-7.76-2.675A10.791,10.791,0,0,0,12,12.495a10.965,10.965,0,0,0-4.24.866A2.871,2.871,0,0,0,6,16v1.549H18V16A2.871,2.871,0,0,0,16.24,13.361ZM8.07,15.622c.09-.221.13-.375.91-.664a8.732,8.732,0,0,1,6.04,0c.77.289.81.443.91.664ZM12,7.924a.963.963,0,1,1-1,.962.985.985,0,0,1,1-.962M12,6A2.941,2.941,0,0,0,9,8.887a3,3,0,0,0,6,0A2.941,2.941,0,0,0,12,6Z" transform="translate(0 -6)" fill="#e96161"/>
    </g>
  </g>
</svg>
