<svg id="work_outline_black_24dp" xmlns="http://www.w3.org/2000/svg" width="24" height="24" viewBox="0 0 24 24">
  <path id="Path_2067" data-name="Path 2067" d="M0,0H24V24H0Z" fill="none"/>
  <path id="Path_2068" data-name="Path 2068" d="M19.357,5.812H15.5V3.906A1.911,1.911,0,0,0,13.571,2H9.714A1.911,1.911,0,0,0,7.786,3.906V5.812H3.929A1.9,1.9,0,0,0,2.01,7.718L2,18.2a1.911,1.911,0,0,0,1.929,1.906H19.357A1.911,1.911,0,0,0,21.285,18.2V7.718A1.911,1.911,0,0,0,19.357,5.812ZM9.714,3.906h3.857V5.812H9.714ZM19.357,18.2H3.929V7.718H19.357Z" transform="translate(0.357 0.357)" fill="#e96161"/>
</svg>
