<svg id="commute_black_24dp" xmlns="http://www.w3.org/2000/svg" width="24" height="24" viewBox="0 0 24 24">
  <path id="Path_2065" data-name="Path 2065" d="M0,0H24V24H0Z" fill="none"/>
  <path id="Path_2066" data-name="Path 2066" d="M12,4H5A3,3,0,0,0,2,7v8a3,3,0,0,0,3,3L4,19v1H5l2-2H9V13H4V6h9V8h2V7A3,3,0,0,0,12,4ZM5,14a1,1,0,1,1-1,1A1,1,0,0,1,5,14ZM20.57,9.66A1,1,0,0,0,19.6,9H12.41a1.016,1.016,0,0,0-.98.66l-1.42,4.11v5.51a.718.718,0,0,0,.69.72h.62a.746.746,0,0,0,.68-.76V18h8v1.24a.755.755,0,0,0,.69.76h.61a.718.718,0,0,0,.69-.72L22,17.91V13.77L20.57,9.66ZM12.41,10H19.6l1.03,3H11.38l1.03-3ZM12,16a1,1,0,1,1,1-1A1,1,0,0,1,12,16Zm8,0a1,1,0,1,1,1-1A1,1,0,0,1,20,16Z" transform="translate(0 0)" fill="#e96161"/>
</svg>
