<svg id="Group_1500" data-name="Group 1500" xmlns="http://www.w3.org/2000/svg" xmlns:xlink="http://www.w3.org/1999/xlink" width="308.797" height="93.821" viewBox="0 0 308.797 93.821">
  <defs>
    <linearGradient id="linear-gradient" x1="1.173" y1="2.842" x2="0.634" y2="2.974" gradientUnits="objectBoundingBox">
      <stop offset="0" stop-color="#f39c12"/>
      <stop offset="1" stop-color="#f4d03f"/>
    </linearGradient>
    <linearGradient id="linear-gradient-2" x1="0.265" y1="3.204" x2="0.936" y2="3.063" xlink:href="#linear-gradient"/>
    <linearGradient id="linear-gradient-3" x1="0.817" y1="2.126" x2="0.817" y2="1.017" gradientUnits="objectBoundingBox">
      <stop offset="0" stop-color="#16a085"/>
      <stop offset="1" stop-color="#2ecc71"/>
    </linearGradient>
    <linearGradient id="linear-gradient-4" x1="2.111" y1="6.192" x2="2.111" y2="4.276" xlink:href="#linear-gradient"/>
  </defs>
  <path id="Path_2720" data-name="Path 2720" d="M182.959,270.97h133.8a7.488,7.488,0,0,1,7.375,8.789l-2.153,12.207H420.2a7.488,7.488,0,0,1,7.375,8.789L421.34,336.09a7.49,7.49,0,0,1-7.375,6.189H170.386Z" transform="translate(-118.89 -262.44)" fill="#dfd"/>
  <path id="Path_2772" data-name="Path 2772" d="M11.52,0,11.5-6.72l-3.3,5.536H7.04L3.76-6.576V0H1.328V-11.2H3.472L7.664-4.24l4.128-6.96H13.92L13.952,0ZM21.584.192a5.068,5.068,0,0,1-3.736-1.328,5.112,5.112,0,0,1-1.336-3.792V-11.2H19.1v6.176q0,3.008,2.5,3.008a2.34,2.34,0,0,0,1.856-.728,3.394,3.394,0,0,0,.64-2.28V-11.2h2.56v6.272A5.112,5.112,0,0,1,25.32-1.136,5.068,5.068,0,0,1,21.584.192ZM29.216-11.2h2.592v9.088h5.616V0H29.216ZM40.16-9.088H36.576V-11.2h9.76v2.112H42.752V0H40.16ZM47.728-11.2H50.32V0H47.728Zm10.1,0a6.222,6.222,0,0,1,2.584.5A3.839,3.839,0,0,1,62.1-9.3a3.879,3.879,0,0,1,.592,2.16A3.889,3.889,0,0,1,62.1-4.984a3.77,3.77,0,0,1-1.688,1.408,6.311,6.311,0,0,1-2.584.488H55.568V0H52.976V-11.2Zm-.144,6a2.722,2.722,0,0,0,1.776-.5,1.755,1.755,0,0,0,.608-1.432,1.774,1.774,0,0,0-.608-1.448,2.722,2.722,0,0,0-1.776-.5H55.568V-5.2Zm6.848-6H67.12v9.088h5.616V0H64.528ZM82.864-2.08V0H74.192V-11.2h8.464v2.08H76.768v2.432h5.2v2.016h-5.2V-2.08Z" transform="translate(90.205 31.198)" fill="#e67e22"/>
  <path id="Path_2773" data-name="Path 2773" d="M5.93-20.468a4.7,4.7,0,0,1,3.594,1.421,4.929,4.929,0,0,1,1.241,3.463v2.973A4.762,4.762,0,0,1,9.352-9.148,4.621,4.621,0,0,1,5.93-7.71H4.149V0H1.062V-20.468Zm1.846,4.933a1.761,1.761,0,0,0-.482-1.29,1.717,1.717,0,0,0-1.282-.49H4.149v6.55H6.011a1.688,1.688,0,0,0,1.25-.523,1.728,1.728,0,0,0,.515-1.258ZM16.853-4.7,16.1,0H12.888l3.48-20.468h4.247L24.045,0H20.8l-.722-4.7ZM18.475-15.78,17.332-7.71h2.287ZM30.3-8.576,26.169-20.484h3.4l2.287,7.351,2.271-7.351h3.414L33.389-8.576V0H30.3ZM42.749,0H39.662V-20.484h4.43L46.97-5.769l2.762-14.715h4.256V0H50.9V-12.872L48.222,0H45.739l-2.99-12.839ZM56.112,0V-20.484H64.9v3.1H59.2v5.587h4.165v3.1H59.2V-3.1h5.7V0ZM70.49-20.484l4.1,13.767V-20.484h3.087V0H74.358L70.111-13.117V0H67.023V-20.484Zm12.591,3.12H79.8v-3.1h9.638v3.1H86.168V0H83.081Zm15.486-3.365a4.712,4.712,0,0,1,3.471,1.438,4.734,4.734,0,0,1,1.429,3.463V-4.656a4.712,4.712,0,0,1-1.437,3.471A4.734,4.734,0,0,1,98.567.245,4.686,4.686,0,0,1,95.1-1.192a4.748,4.748,0,0,1-1.421-3.463V-15.829A4.712,4.712,0,0,1,95.12-19.3,4.715,4.715,0,0,1,98.567-20.729Zm1.683,4.835a1.7,1.7,0,0,0-.515-1.25,1.7,1.7,0,0,0-1.25-.515,1.728,1.728,0,0,0-1.258.515,1.688,1.688,0,0,0-.523,1.25V-4.688a1.688,1.688,0,0,0,.523,1.25,1.728,1.728,0,0,0,1.258.515,1.7,1.7,0,0,0,1.25-.515,1.7,1.7,0,0,0,.515-1.25Zm10.21-4.574a4.7,4.7,0,0,1,3.594,1.421,4.929,4.929,0,0,1,1.241,3.463v2.973a4.762,4.762,0,0,1-1.413,3.463,4.621,4.621,0,0,1-3.422,1.437h-1.781V0h-3.087V-20.468Zm1.846,4.933a1.761,1.761,0,0,0-.482-1.29,1.717,1.717,0,0,0-1.282-.49h-1.862v6.55h1.862a1.688,1.688,0,0,0,1.25-.523,1.728,1.728,0,0,0,.515-1.258Zm8.4-1.83h-3.283v-3.1h9.638v3.1h-3.267V0H120.7ZM132.266,0h-3.087V-20.468h3.087Zm7.008-20.729a4.712,4.712,0,0,1,3.471,1.438,4.734,4.734,0,0,1,1.429,3.463V-4.656a4.712,4.712,0,0,1-1.437,3.471A4.734,4.734,0,0,1,139.274.245a4.686,4.686,0,0,1-3.463-1.438,4.748,4.748,0,0,1-1.421-3.463V-15.829a4.712,4.712,0,0,1,1.438-3.471A4.715,4.715,0,0,1,139.274-20.729Zm1.683,4.835a1.7,1.7,0,0,0-.515-1.25,1.7,1.7,0,0,0-1.25-.515,1.728,1.728,0,0,0-1.258.515,1.688,1.688,0,0,0-.523,1.25V-4.688a1.688,1.688,0,0,0,.523,1.25,1.728,1.728,0,0,0,1.258.515,1.7,1.7,0,0,0,1.25-.515,1.7,1.7,0,0,0,.515-1.25Zm8.808-4.59,4.1,13.767V-20.484h3.087V0h-3.316l-4.247-13.117V0H146.3V-20.484ZM169.282-5.1a5.757,5.757,0,0,1-1.111,3.659A4,4,0,0,1,166.048.016a5.789,5.789,0,0,1-1.715.229,4.855,4.855,0,0,1-3.006-.9,5.025,5.025,0,0,1-1.576-2,8.074,8.074,0,0,1-.678-2.9l2.94-.212a4.469,4.469,0,0,0,.947,2.594,1.58,1.58,0,0,0,1.274.575,1.915,1.915,0,0,0,1.617-1,2.476,2.476,0,0,0,.31-1.357A3.767,3.767,0,0,0,165-7.486l-2.744-2.6a11.726,11.726,0,0,1-2.173-2.665,6.163,6.163,0,0,1-.686-2.878,5,5,0,0,1,1.879-4.235,4.668,4.668,0,0,1,2.875-.867,5.225,5.225,0,0,1,2.826.735,4.246,4.246,0,0,1,1.478,1.6,5.924,5.924,0,0,1,.678,2.369l-2.957.539a3.564,3.564,0,0,0-.719-1.96,1.509,1.509,0,0,0-1.225-.506,1.411,1.411,0,0,0-1.29.751,2.9,2.9,0,0,0-.359,1.5,4.51,4.51,0,0,0,1.209,2.859,10.213,10.213,0,0,0,1.372,1.307q1.078.9,1.421,1.258a10.475,10.475,0,0,1,1.764,2.254,8.639,8.639,0,0,1,.474.964A5.612,5.612,0,0,1,169.282-5.1Z" transform="translate(89.841 63.871)" fill="#2c3e50"/>
  <g id="Group_1499" data-name="Group 1499" transform="translate(0 0)">
    <path id="Path_2722" data-name="Path 2722" d="M212.35,313.96l-.978-2.881a42.885,42.885,0,0,0-9.43-27.79l-.989-2.916a10.526,10.526,0,0,0-9.971-7.148c-.191,0-.381.006-.571.015a42.714,42.714,0,0,0-24.172-6.063,5.6,5.6,0,0,0-8.959-2.6l-8.733,7.387a43.487,43.487,0,0,0-20.175,22.326,10.544,10.544,0,0,0-4.019,12.075l.977,2.881a42.887,42.887,0,0,0,9.429,27.789l.989,2.918a10.526,10.526,0,0,0,9.971,7.147c.19,0,.381-.005.57-.016a42.773,42.773,0,0,0,24.173,6.064,5.6,5.6,0,0,0,8.958,2.6l8.733-7.387a42.948,42.948,0,0,0,17.728-17.188c.008-.014.017-.029.025-.043.293-.523.572-1.052.851-1.6l.111-.225c.232-.465.458-.935.67-1.4l.123-.281c.209-.467.41-.938.6-1.419l.066-.167a10.545,10.545,0,0,0,4.02-12.075Z" transform="translate(-123.789 -263.251)" fill="#dfd"/>
    <g id="Group_1498" data-name="Group 1498" transform="translate(5.603 5.598)">
      <g id="Group_1496" data-name="Group 1496" transform="translate(1.52)">
        <path id="Path_2723" data-name="Path 2723" d="M156.091,281.723l-8.841-3.178,3.741-3.164a37.432,37.432,0,0,0,23.331,70.346h0l.807,4.471,12.97-10.971-15.986-5.747.807,4.471h0a29.532,29.532,0,0,1-16.828-56.229Z" transform="translate(-130.234 -267.574)" fill="url(#linear-gradient)"/>
        <path id="Path_2724" data-name="Path 2724" d="M159.408,272.788l-.807-4.471-12.97,10.971,15.986,5.747-.807-4.471a29.532,29.532,0,0,1,16.827,56.228l8.841,3.178-3.741,3.164a37.431,37.431,0,0,0-23.329-70.345Z" transform="translate(-128.616 -268.317)" fill="url(#linear-gradient-2)"/>
        <path id="Path_2725" data-name="Path 2725" d="M194.175,324.744a37.487,37.487,0,0,0,4.785-11.969l-1.013-1.562L190.6,313.64a29.743,29.743,0,0,1-9.475,14.237Z" transform="translate(-124.884 -263.807)" fill="#b6750e"/>
        <path id="Path_2726" data-name="Path 2726" d="M160.163,332.266A29.654,29.654,0,0,1,149,327.121L140.266,330a37.739,37.739,0,0,0,6.882,5.388Z" transform="translate(-129.18 -262.135)" fill="#b6750e"/>
      </g>
      <g id="Group_1497" data-name="Group 1497" transform="translate(0 9.974)">
        <path id="Path_2727" data-name="Path 2727" d="M188.866,277.605l-56.659,19.224a4.93,4.93,0,0,0-3.084,6.253l11.4,33.587a4.93,4.93,0,0,0,6.253,3.084L203.43,320.53a4.93,4.93,0,0,0,3.084-6.253l-11.4-33.587A4.93,4.93,0,0,0,188.866,277.605Z" transform="translate(-128.859 -277.342)" fill="url(#linear-gradient-3)"/>
        <rect id="Rectangle_872" data-name="Rectangle 872" width="69.692" height="7.85" transform="translate(8.616 50.361) rotate(-18.741)" fill="#084e37"/>
        <path id="Path_2728" data-name="Path 2728" d="M184.675,282.315l-12.374,4.2a1.8,1.8,0,0,0-1.123,2.277l2.484,7.32a1.8,1.8,0,0,0,2.277,1.123l12.374-4.2a1.8,1.8,0,0,0,1.123-2.277l-2.483-7.32A1.8,1.8,0,0,0,184.675,282.315Z" transform="translate(-124.42 -276.829)" fill="url(#linear-gradient-4)"/>
        <ellipse id="Ellipse_414" data-name="Ellipse 414" cx="2.298" cy="2.298" rx="2.298" ry="2.298" transform="translate(53.589 10.648)" fill="none" stroke="#e67e22" stroke-miterlimit="10" stroke-width="1.039"/>
        <line id="Line_22" data-name="Line 22" x1="1.081" y1="3.184" transform="translate(54.068 7.586)" fill="none" stroke="#e67e22" stroke-miterlimit="10" stroke-width="1.039"/>
        <line id="Line_23" data-name="Line 23" x2="1.08" y2="3.184" transform="translate(56.625 15.121)" fill="none" stroke="#e67e22" stroke-miterlimit="10" stroke-width="1.039"/>
        <line id="Line_24" data-name="Line 24" y1="1.938" x2="5.711" transform="translate(58.062 10.269)" fill="none" stroke="#e67e22" stroke-miterlimit="10" stroke-width="1.039"/>
        <line id="Line_25" data-name="Line 25" x1="5.711" y2="1.937" transform="translate(47.999 13.684)" fill="none" stroke="#e67e22" stroke-miterlimit="10" stroke-width="1.039"/>
        <path id="Path_2729" data-name="Path 2729" d="M148.509,311.309l-8.3,2.815a1.794,1.794,0,0,0-1.123,2.277h0a1.8,1.8,0,0,0,2.277,1.123l8.3-2.815a1.8,1.8,0,0,0,1.123-2.277h0A1.8,1.8,0,0,0,148.509,311.309Z" transform="translate(-127.793 -273.781)" fill="#fff"/>
        <path id="Path_2730" data-name="Path 2730" d="M158.533,302.8l-19.99,6.782a1.8,1.8,0,0,0-1.123,2.277h0a1.793,1.793,0,0,0,2.277,1.123l19.99-6.782a1.794,1.794,0,0,0,1.123-2.277h0A1.793,1.793,0,0,0,158.533,302.8Z" transform="translate(-127.969 -274.676)" fill="#fff"/>
      </g>
    </g>
  </g>
</svg>
