<svg id="Group_1505" data-name="Group 1505" xmlns="http://www.w3.org/2000/svg" xmlns:xlink="http://www.w3.org/1999/xlink" width="294.328" height="105.859" viewBox="0 0 294.328 105.859">
  <defs>
    <linearGradient id="linear-gradient" x1="-2.043" y1="-0.513" x2="-0.972" y2="-0.513" gradientUnits="objectBoundingBox">
      <stop offset="0" stop-color="#16a085"/>
      <stop offset="1" stop-color="#2ecc71"/>
    </linearGradient>
    <linearGradient id="linear-gradient-2" y1="0.5" x2="1" y2="0.5" gradientUnits="objectBoundingBox">
      <stop offset="0" stop-color="#f39c12"/>
      <stop offset="1" stop-color="#f1c40f"/>
    </linearGradient>
    <linearGradient id="linear-gradient-3" x1="0.5" y1="1.769" x2="0.5" y2="0.435" gradientUnits="objectBoundingBox">
      <stop offset="0" stop-color="#f1c40f"/>
      <stop offset="1" stop-color="#ffe199"/>
    </linearGradient>
    <linearGradient id="linear-gradient-4" x1="0.5" y1="0.912" x2="0.5" y2="-0.422" xlink:href="#linear-gradient-2"/>
    <linearGradient id="linear-gradient-5" x1="0" y1="0.5" x2="1" y2="0.5" xlink:href="#linear-gradient"/>
  </defs>
  <path id="Path_2731" data-name="Path 2731" d="M398.684,397.264H177.807l-8.359,47.4-1.918,10.878-3.22,18.264h150.8a7.488,7.488,0,0,0,7.373-6.187l2.13-12.077h66.439a7.488,7.488,0,0,0,7.374-6.187l7.637-43.309A7.486,7.486,0,0,0,398.684,397.264Z" transform="translate(-111.845 -380.048)" fill="#dfd"/>
  <path id="Path_2732" data-name="Path 2732" d="M196.181,397.172c-1.057-.768-2.2-1.523-3.491-2.306q-.559-.34-1.125-.663a21.186,21.186,0,0,0-19.294-12.517,20.515,20.515,0,0,0-2.554.162,20.515,20.515,0,0,0-2.554-.162,21.025,21.025,0,0,0-17.22,8.891,50.061,50.061,0,0,0-9.889,4.82l-.32.2c-.466.3-.928.607-1.377.917l-.466.328c-.432.306-.862.615-1.271.925-.124.093-.246.189-.368.285l-.092.073c-.68.527-1.359,1.084-2.012,1.649l-.165.141c-.221.189-.442.379-.669.584-.2.185-.406.375-.607.565l-.177.167c-.307.29-.612.58-.912.877-.243.241-.482.486-.712.724-.318.328-.632.663-.943,1-.216.235-.431.472-.633.7q-.511.58-1.007,1.184l-.123.147q-.194.232-.383.465c-.534.666-1,1.281-1.439,1.878a49.971,49.971,0,0,0,72.48,67.705h1.921a7.11,7.11,0,0,0,5.382-2.453,7.24,7.24,0,0,0,3.076-.613,7.131,7.131,0,0,0,4.192-5.768l2.164-20.541c.021-.2.033-.395.038-.592a7.1,7.1,0,0,0,.776-2.505A50.086,50.086,0,0,0,196.181,397.172Z" transform="translate(-116.836 -381.686)" fill="#dfd"/>
  <path id="Path_2770" data-name="Path 2770" d="M10.847-4.656a4.8,4.8,0,0,1-.653,2.45,1.468,1.468,0,0,0,1.176.474V1.143A3.354,3.354,0,0,1,8.2-.31,4.638,4.638,0,0,1,5.962.245,4.712,4.712,0,0,1,2.491-1.192,4.734,4.734,0,0,1,1.062-4.656V-15.829A4.712,4.712,0,0,1,2.5-19.3a4.734,4.734,0,0,1,3.463-1.429,4.672,4.672,0,0,1,3.463,1.446,4.756,4.756,0,0,1,1.421,3.455Zm-3.2-11.239a1.688,1.688,0,0,0-.523-1.25,1.728,1.728,0,0,0-1.258-.515,1.7,1.7,0,0,0-1.25.515,1.7,1.7,0,0,0-.515,1.25V-4.688a1.7,1.7,0,0,0,.515,1.25,1.7,1.7,0,0,0,1.25.515,1.728,1.728,0,0,0,1.258-.515,1.688,1.688,0,0,0,.523-1.25ZM18.377.229a4.713,4.713,0,0,1-3.463-1.421,4.693,4.693,0,0,1-1.421-3.447V-20.468h3.022v15.8a1.688,1.688,0,0,0,.523,1.25,1.728,1.728,0,0,0,1.258.515,1.7,1.7,0,0,0,1.25-.515,1.7,1.7,0,0,0,.515-1.25v-15.8h3.218V-4.639A4.651,4.651,0,0,1,21.84-1.176,4.776,4.776,0,0,1,18.377.229ZM28.489,0H25.4V-20.468h3.087Zm7.024.261a4.726,4.726,0,0,1-3.471-1.429,4.707,4.707,0,0,1-1.429-3.455V-15.8a4.712,4.712,0,0,1,1.438-3.471A4.734,4.734,0,0,1,35.513-20.7a4.686,4.686,0,0,1,3.463,1.438A4.748,4.748,0,0,1,40.4-15.8v2.336H37.2v-2.4a1.715,1.715,0,0,0-.523-1.258,1.715,1.715,0,0,0-1.258-.523,1.688,1.688,0,0,0-1.25.523,1.728,1.728,0,0,0-.515,1.258V-4.656a1.7,1.7,0,0,0,.515,1.25,1.7,1.7,0,0,0,1.25.515,1.728,1.728,0,0,0,1.258-.515,1.688,1.688,0,0,0,.523-1.25V-7.482h3.2v2.859A4.686,4.686,0,0,1,38.96-1.16,4.728,4.728,0,0,1,35.513.261Zm10.1-6.755V0H42.521V-20.484h3.087v7.3l3.773-7.3h3.292l-4.226,8.355L53.4,0H49.773L46.532-8.317ZM69.686-9.638a20.635,20.635,0,0,1-1.993,5.521,3.357,3.357,0,0,0,2.075,1.094V-.163A5.8,5.8,0,0,1,66.06-1.8,5.379,5.379,0,0,1,62.139.131a4.118,4.118,0,0,1-3.692-1.993,5.239,5.239,0,0,1-.8-2.875,8.065,8.065,0,0,1,.768-3.3q.131-.278.866-1.5.408-.653.817-1.258l-.637-1.454q-.457-1.013-.621-1.437a8.793,8.793,0,0,1-.457-1.5,7.32,7.32,0,0,1-.147-1.437,5.3,5.3,0,0,1,.6-2.516,4.076,4.076,0,0,1,1.8-1.813,4.237,4.237,0,0,1,2.058-.506,4.384,4.384,0,0,1,2.3.629,4.154,4.154,0,0,1,1.6,1.74,4.351,4.351,0,0,1,.441,1.944,5.65,5.65,0,0,1-1.29,3.512l-.67.866q-.915,1.192-1.683,2.238a29.323,29.323,0,0,0,2.32,4,18.581,18.581,0,0,0,1.176-3.724Zm-8.609-7.008a9.935,9.935,0,0,0,.947,3.169l.392-.49.408-.539.653-.866a2.992,2.992,0,0,0,.719-1.764,2.13,2.13,0,0,0-.163-.931A1.4,1.4,0,0,0,62.695-19.1a1.393,1.393,0,0,0-1.258.866A3.366,3.366,0,0,0,61.077-16.646ZM62.139-2.712a2.838,2.838,0,0,0,1.977-1.176,29.391,29.391,0,0,1-2.532-3.953q-.294.49-.588,1.013a5.277,5.277,0,0,0-.49,2.091,2.376,2.376,0,0,0,.376,1.388A1.439,1.439,0,0,0,62.139-2.712ZM77.1-8.674V0H74.015V-20.468H77.1v8.69h3.724v-8.69h3.087V0H80.827V-8.674Zm13.068.1L86.038-20.484h3.4l2.287,7.351,2.271-7.351h3.414L93.258-8.576V0H90.17ZM104.431.261a4.712,4.712,0,0,1-3.471-1.438,4.715,4.715,0,0,1-1.429-3.447V-15.8a4.712,4.712,0,0,1,1.438-3.471,4.734,4.734,0,0,1,3.463-1.429,4.686,4.686,0,0,1,3.463,1.438,4.748,4.748,0,0,1,1.421,3.463v2.336h-3.2v-2.4a1.715,1.715,0,0,0-.523-1.258,1.715,1.715,0,0,0-1.258-.523,1.688,1.688,0,0,0-1.25.523,1.728,1.728,0,0,0-.515,1.258V-4.656a1.7,1.7,0,0,0,.515,1.25,1.7,1.7,0,0,0,1.25.515,1.731,1.731,0,0,0,1.258-.513,1.681,1.681,0,0,0,.523-1.246V-8.674H104.4v-3.1h4.917v7.155a4.686,4.686,0,0,1-1.437,3.463A4.729,4.729,0,0,1,104.431.261ZM114.526,0h-3.087V-20.468h3.087Zm2.124,0V-20.484h8.788v3.1h-5.7v5.587H123.9v3.1h-4.165V-3.1h5.7V0Zm14.378-20.484,4.1,13.767V-20.484h3.087V0H134.9l-4.247-13.117V0h-3.087V-20.484ZM143.423,0h-3.087V-20.468h3.087Zm7.024.261a4.726,4.726,0,0,1-3.471-1.429,4.707,4.707,0,0,1-1.429-3.455V-15.8a4.712,4.712,0,0,1,1.438-3.471,4.734,4.734,0,0,1,3.463-1.429,4.686,4.686,0,0,1,3.463,1.438,4.748,4.748,0,0,1,1.421,3.463v2.336h-3.2v-2.4a1.715,1.715,0,0,0-.523-1.258,1.715,1.715,0,0,0-1.258-.523,1.688,1.688,0,0,0-1.25.523,1.729,1.729,0,0,0-.515,1.258V-4.656a1.7,1.7,0,0,0,.515,1.25,1.7,1.7,0,0,0,1.25.515,1.729,1.729,0,0,0,1.258-.515,1.688,1.688,0,0,0,.523-1.25V-7.482h3.2v2.859a4.686,4.686,0,0,1-1.437,3.463A4.728,4.728,0,0,1,150.447.261Z" transform="translate(95.88 54.492)" fill="#2c3e50"/>
  <path id="Path_2771" data-name="Path 2771" d="M1.328-11.2H6.416a7.151,7.151,0,0,1,3.224.7,5.211,5.211,0,0,1,2.176,1.96A5.513,5.513,0,0,1,12.592-5.6a5.513,5.513,0,0,1-.776,2.944A5.211,5.211,0,0,1,9.64-.7,7.151,7.151,0,0,1,6.416,0H1.328Zm4.96,9.072a3.764,3.764,0,0,0,2.68-.936,3.306,3.306,0,0,0,1-2.536,3.306,3.306,0,0,0-1-2.536,3.764,3.764,0,0,0-2.68-.936H3.92v6.944Zm16.928.048V0H14.544V-11.2h8.464v2.08H17.12v2.432h5.2v2.016h-5.2V-2.08ZM25.28-11.2h2.592v9.088h5.616V0H25.28Zm9.664,0h2.592V0H34.944Zm15.952,0L46.048,0h-2.56L38.656-11.2h2.8l3.408,8,3.456-8Zm9.6,9.12V0H51.824V-11.2h8.464v2.08H54.4v2.432h5.2v2.016H54.4V-2.08ZM69.7,0l-2.16-3.12H65.152V0H62.56V-11.2h4.848a6.222,6.222,0,0,1,2.584.5A3.839,3.839,0,0,1,71.68-9.3a3.879,3.879,0,0,1,.592,2.16,3.8,3.8,0,0,1-.6,2.152,3.8,3.8,0,0,1-1.7,1.384L72.48,0Zm-.048-7.136a1.774,1.774,0,0,0-.608-1.448,2.722,2.722,0,0,0-1.776-.5H65.152v3.9h2.112A2.692,2.692,0,0,0,69.04-5.7,1.779,1.779,0,0,0,69.648-7.136Zm9.888,3.168V0H76.944V-4l-4.336-7.2H75.36l2.992,4.976L81.344-11.2h2.544Z" transform="translate(100.633 82.176)" fill="#e67e22"/>
  <g id="Group_1504" data-name="Group 1504" transform="translate(7.139 8.912)">
    <path id="Path_2733" data-name="Path 2733" d="M207.825,444.548l-18.871,8.4,4.916,3.573a34.342,34.342,0,0,1-47.918,7.578,63.333,63.333,0,0,1-5.025-4.465c-10.34-9.175-17.194-31.026-2.3-47.551,12.42-13.774,29.072-18.531,48.384-7.546,19.03,10.825,21.562,36.1,21.633,36.837a42.81,42.81,0,1,0-7.873,20.164l4.888,3.553Z" transform="translate(-123.296 -389.353)" fill="url(#linear-gradient)"/>
    <g id="Group_1502" data-name="Group 1502" transform="translate(30.948 4.181)">
      <path id="Path_2734" data-name="Path 2734" d="M177.631,396.785a8.733,8.733,0,0,1,.413,3.108c-.028.773-.045,1.647-.055,2.562,1.1.531,2.2,1.105,3.313,1.74.485.276.954.568,1.418.862,0-1.66-.033-3.667-.119-5.682A42.684,42.684,0,0,0,177.631,396.785Z" transform="translate(-148.532 -393.192)" fill="#107864"/>
      <path id="Path_2735" data-name="Path 2735" d="M151.3,395.216v5.553a32.339,32.339,0,0,1,11.254-2.29,23.376,23.376,0,0,1,2.892-4.889A43.193,43.193,0,0,0,151.3,395.216Z" transform="translate(-151.3 -393.534)" fill="#107864"/>
    </g>
    <g id="Group_1503" data-name="Group 1503" transform="translate(13.804)">
      <path id="Path_2736" data-name="Path 2736" d="M180.4,408.208v-6.217a12.241,12.241,0,0,0-12.24-12.241h0a12.241,12.241,0,0,0-12.24,12.241v6.217" transform="translate(-133.67 -389.75)" fill="none" stroke="#ad5f1a" stroke-linecap="round" stroke-miterlimit="10" stroke-width="3.226"/>
      <path id="Path_2737" data-name="Path 2737" d="M143.315,403.292h46.53l8.138,63.223h-46.53Z" transform="translate(-134.996 -388.326)" fill="url(#linear-gradient-2)"/>
      <path id="Path_2738" data-name="Path 2738" d="M190.456,403.292H143.925l-8.138,63.223h46.531Z" transform="translate(-135.787 -388.326)" fill="url(#linear-gradient-3)"/>
      <path id="Path_2739" data-name="Path 2739" d="M193.573,466.515h-8.318V403.292Z" transform="translate(-130.586 -388.326)" fill="url(#linear-gradient-4)"/>
      <path id="Path_2740" data-name="Path 2740" d="M175.781,408.208v-6.217a12.241,12.241,0,0,0-12.24-12.241h0a12.241,12.241,0,0,0-12.24,12.241v6.217" transform="translate(-134.156 -389.75)" fill="none" stroke="#e67e22" stroke-linecap="round" stroke-miterlimit="10" stroke-width="3.226"/>
      <path id="Path_2741" data-name="Path 2741" d="M173.638,422.584a8.32,8.32,0,0,0-11.766,0,8.319,8.319,0,1,0-11.765,11.765l11.765,11.766,11.765-11.766A8.318,8.318,0,0,0,173.638,422.584Z" transform="translate(-134.538 -386.554)" fill="#e74c3c"/>
    </g>
    <path id="Path_2742" data-name="Path 2742" d="M188.953,452.777l4.916,3.573a34.342,34.342,0,0,1-47.918,7.578,63.355,63.355,0,0,1-5.025-4.465c-10.34-9.175-17.194-31.026-2.3-47.551a43.365,43.365,0,0,1,13.833-10.534,13.915,13.915,0,0,1,1.506-6.245,42.827,42.827,0,1,0,46.8,66.235l4.888,3.553,2.164-20.541Z" transform="translate(-123.296 -389.184)" fill="url(#linear-gradient-5)"/>
  </g>
</svg>
