<svg id="Group_1509" data-name="Group 1509" xmlns="http://www.w3.org/2000/svg" xmlns:xlink="http://www.w3.org/1999/xlink" width="302.064" height="105.859" viewBox="0 0 302.064 105.859">
  <defs>
    <linearGradient id="linear-gradient" x1="-2.043" y1="-0.513" x2="-0.972" y2="-0.513" gradientUnits="objectBoundingBox">
      <stop offset="0" stop-color="#16a085"/>
      <stop offset="1" stop-color="#2ecc71"/>
    </linearGradient>
    <linearGradient id="linear-gradient-2" x1="0.321" y1="0.73" x2="1.171" y2="-0.049" gradientUnits="objectBoundingBox">
      <stop offset="0" stop-color="#62e1fb"/>
      <stop offset="1" stop-color="#00a2f3"/>
    </linearGradient>
    <linearGradient id="linear-gradient-3" x1="0.816" y1="0.507" x2="-0.329" y2="0.507" gradientUnits="objectBoundingBox">
      <stop offset="0" stop-color="#00a2f3" stop-opacity="0"/>
      <stop offset="1" stop-color="#0075cd"/>
    </linearGradient>
    <linearGradient id="linear-gradient-4" x1="0.305" y1="0.745" x2="0.832" y2="0.262" gradientUnits="objectBoundingBox">
      <stop offset="0" stop-color="#a7f3ce"/>
      <stop offset="1" stop-color="#61db99"/>
    </linearGradient>
    <linearGradient id="linear-gradient-5" x1="0.832" y1="0.508" x2="-0.466" y2="0.508" gradientUnits="objectBoundingBox">
      <stop offset="0" stop-color="#61db99" stop-opacity="0"/>
      <stop offset="1" stop-color="#009e74"/>
    </linearGradient>
    <linearGradient id="linear-gradient-6" x1="0.774" y1="-0.028" x2="0.445" y2="0.325" xlink:href="#linear-gradient-5"/>
    <linearGradient id="linear-gradient-7" x1="0.494" y1="0.849" x2="0.494" y2="0.05" gradientUnits="objectBoundingBox">
      <stop offset="0" stop-color="#fff465"/>
      <stop offset="1" stop-color="#ffe600"/>
    </linearGradient>
    <linearGradient id="linear-gradient-8" x1="0" y1="0.5" x2="1" y2="0.5" xlink:href="#linear-gradient"/>
  </defs>
  <path id="Path_2731" data-name="Path 2731" d="M406.42,397.264H177.807l-8.359,47.4-1.918,10.878-3.22,18.264H374.783a7.488,7.488,0,0,0,7.373-6.187l2.13-12.077h14.5a7.488,7.488,0,0,0,7.373-6.187l7.636-43.309A7.486,7.486,0,0,0,406.42,397.264Z" transform="translate(-111.845 -380.048)" fill="#dfd"/>
  <path id="Path_2732" data-name="Path 2732" d="M196.181,397.172c-1.057-.768-2.2-1.523-3.491-2.306q-.559-.34-1.125-.663a21.186,21.186,0,0,0-19.294-12.517,20.515,20.515,0,0,0-2.554.162,20.515,20.515,0,0,0-2.554-.162,21.025,21.025,0,0,0-17.22,8.891,50.061,50.061,0,0,0-9.889,4.82l-.32.2c-.466.3-.928.607-1.377.917l-.466.328c-.432.306-.862.615-1.271.925-.124.093-.246.189-.368.285l-.092.073c-.68.527-1.359,1.084-2.012,1.649l-.165.141c-.221.189-.442.379-.669.584-.2.185-.406.375-.607.565l-.177.167c-.307.29-.612.58-.912.877-.243.241-.482.486-.712.724-.318.328-.632.663-.943,1-.216.235-.431.472-.633.7q-.511.58-1.007,1.184l-.123.147q-.194.232-.383.465c-.534.666-1,1.281-1.439,1.878a49.971,49.971,0,0,0,72.48,67.705h1.921a7.11,7.11,0,0,0,5.382-2.453,7.24,7.24,0,0,0,3.076-.613,7.131,7.131,0,0,0,4.192-5.768l2.164-20.541c.021-.2.033-.395.038-.592a7.1,7.1,0,0,0,.776-2.505A50.086,50.086,0,0,0,196.181,397.172Z" transform="translate(-116.836 -381.686)" fill="#dfd"/>
  <path id="Path_2774" data-name="Path 2774" d="M11.271-5.1a5.757,5.757,0,0,1-1.111,3.659A4,4,0,0,1,8.037.016,5.79,5.79,0,0,1,6.322.245a4.855,4.855,0,0,1-3.006-.9,5.025,5.025,0,0,1-1.576-2,8.074,8.074,0,0,1-.678-2.9L4-5.766A4.469,4.469,0,0,0,4.95-3.172,1.58,1.58,0,0,0,6.224-2.6a1.915,1.915,0,0,0,1.617-1,2.476,2.476,0,0,0,.31-1.357,3.768,3.768,0,0,0-1.16-2.534l-2.744-2.6a11.725,11.725,0,0,1-2.173-2.665,6.163,6.163,0,0,1-.686-2.878,5,5,0,0,1,1.879-4.235,4.668,4.668,0,0,1,2.875-.867,5.225,5.225,0,0,1,2.826.735,4.246,4.246,0,0,1,1.478,1.6,5.925,5.925,0,0,1,.678,2.369l-2.957.539a3.564,3.564,0,0,0-.719-1.96,1.509,1.509,0,0,0-1.225-.506,1.411,1.411,0,0,0-1.29.751,2.9,2.9,0,0,0-.359,1.5,4.51,4.51,0,0,0,1.209,2.859,10.214,10.214,0,0,0,1.372,1.307q1.078.9,1.421,1.258A10.475,10.475,0,0,1,10.34-8.021a8.639,8.639,0,0,1,.474.964A5.612,5.612,0,0,1,11.271-5.1ZM17.36-4.7,16.61,0H13.395l3.48-20.468h4.247L24.552,0H21.305l-.722-4.7ZM18.982-15.78,17.838-7.71h2.287ZM29.763,0H26.675V-20.484h8.788v3.1h-5.7v5.587h4.165v3.1H29.763Zm7.825,0V-20.484h8.788v3.1h-5.7v5.587H44.84v3.1H40.675V-3.1h5.7V0Zm27.2-9.638a20.635,20.635,0,0,1-1.993,5.521,3.357,3.357,0,0,0,2.075,1.094V-.163A5.8,5.8,0,0,1,61.159-1.8,5.379,5.379,0,0,1,57.239.131a4.118,4.118,0,0,1-3.692-1.993,5.239,5.239,0,0,1-.8-2.875,8.065,8.065,0,0,1,.768-3.3q.131-.278.866-1.5.408-.653.817-1.258l-.637-1.454q-.457-1.013-.621-1.437a8.792,8.792,0,0,1-.457-1.5,7.32,7.32,0,0,1-.147-1.437,5.3,5.3,0,0,1,.6-2.516,4.076,4.076,0,0,1,1.8-1.813,4.237,4.237,0,0,1,2.058-.506,4.384,4.384,0,0,1,2.3.629,4.154,4.154,0,0,1,1.6,1.74,4.351,4.351,0,0,1,.441,1.944,5.65,5.65,0,0,1-1.29,3.512l-.67.866q-.915,1.192-1.683,2.238a29.322,29.322,0,0,0,2.32,4,18.581,18.581,0,0,0,1.176-3.724Zm-8.609-7.008a9.935,9.935,0,0,0,.947,3.169l.392-.49.408-.539.653-.866a2.992,2.992,0,0,0,.719-1.764,2.13,2.13,0,0,0-.163-.931A1.4,1.4,0,0,0,57.794-19.1a1.393,1.393,0,0,0-1.258.866A3.366,3.366,0,0,0,56.177-16.646ZM57.239-2.712a2.838,2.838,0,0,0,1.977-1.176,29.391,29.391,0,0,1-2.532-3.953q-.294.49-.588,1.013a5.277,5.277,0,0,0-.49,2.091,2.376,2.376,0,0,0,.376,1.388A1.439,1.439,0,0,0,57.239-2.712ZM79.324-5.1a5.757,5.757,0,0,1-1.111,3.659A4,4,0,0,1,76.089.016a5.79,5.79,0,0,1-1.715.229,4.855,4.855,0,0,1-3.006-.9,5.025,5.025,0,0,1-1.576-2,8.073,8.073,0,0,1-.678-2.9l2.94-.212A4.469,4.469,0,0,0,73-3.172a1.58,1.58,0,0,0,1.274.575,1.915,1.915,0,0,0,1.617-1,2.476,2.476,0,0,0,.31-1.357,3.767,3.767,0,0,0-1.16-2.534l-2.744-2.6a11.725,11.725,0,0,1-2.173-2.665,6.163,6.163,0,0,1-.686-2.878,5,5,0,0,1,1.879-4.235,4.668,4.668,0,0,1,2.875-.867,5.225,5.225,0,0,1,2.826.735,4.246,4.246,0,0,1,1.478,1.6,5.925,5.925,0,0,1,.678,2.369l-2.957.539a3.564,3.564,0,0,0-.719-1.96,1.509,1.509,0,0,0-1.225-.506,1.411,1.411,0,0,0-1.29.751,2.9,2.9,0,0,0-.359,1.5,4.51,4.51,0,0,0,1.209,2.859,10.214,10.214,0,0,0,1.372,1.307q1.078.9,1.421,1.258a10.475,10.475,0,0,1,1.764,2.254,8.639,8.639,0,0,1,.474.964A5.613,5.613,0,0,1,79.324-5.1ZM81.447,0V-20.484h8.788v3.1h-5.7v5.587H88.7v3.1H84.535V-3.1h5.7V0ZM97.26.261a4.726,4.726,0,0,1-3.471-1.429,4.707,4.707,0,0,1-1.429-3.455V-15.8A4.712,4.712,0,0,1,93.8-19.267,4.734,4.734,0,0,1,97.26-20.7a4.686,4.686,0,0,1,3.463,1.438,4.748,4.748,0,0,1,1.421,3.463v2.336h-3.2v-2.4a1.715,1.715,0,0,0-.523-1.258,1.715,1.715,0,0,0-1.258-.523,1.688,1.688,0,0,0-1.25.523,1.728,1.728,0,0,0-.515,1.258V-4.656a1.7,1.7,0,0,0,.515,1.25,1.7,1.7,0,0,0,1.25.515,1.728,1.728,0,0,0,1.258-.515,1.688,1.688,0,0,0,.523-1.25V-7.482h3.2v2.859a4.686,4.686,0,0,1-1.437,3.463A4.729,4.729,0,0,1,97.26.261ZM109.152.229a4.713,4.713,0,0,1-3.463-1.421,4.693,4.693,0,0,1-1.421-3.447V-20.468h3.022v15.8a1.688,1.688,0,0,0,.523,1.25,1.728,1.728,0,0,0,1.258.515,1.7,1.7,0,0,0,1.25-.515,1.7,1.7,0,0,0,.515-1.25v-15.8h3.218V-4.639a4.651,4.651,0,0,1-1.437,3.463A4.776,4.776,0,0,1,109.152.229Zm11.892-20.7a4.707,4.707,0,0,1,3.79,1.421,5.164,5.164,0,0,1,1.062,3.463v2.973a4.783,4.783,0,0,1-1.65,3.675L126.532,0h-3.339l-1.872-7.71h-2.058V0h-3.087V-20.468Zm1.846,4.933a1.567,1.567,0,0,0-1.764-1.781h-1.862v6.55h1.862a1.688,1.688,0,0,0,1.25-.523,1.728,1.728,0,0,0,.515-1.258ZM128.656,0V-20.484h8.788v3.1h-5.7v5.587h4.165v3.1h-4.165V-3.1h5.7V0Zm20.615-4.9a4.748,4.748,0,0,1-1.421,3.463A4.648,4.648,0,0,1,144.42,0h-4.852V-20.484h4.852a4.64,4.64,0,0,1,3.439,1.438,4.742,4.742,0,0,1,1.413,3.447Zm-6.616,1.846h1.862a1.649,1.649,0,0,0,1.241-.531,1.751,1.751,0,0,0,.506-1.25V-15.551a1.728,1.728,0,0,0-.515-1.258,1.669,1.669,0,0,0-1.233-.523h-1.862Z" transform="translate(102.511 53.387)" fill="#2c3e50"/>
  <path id="Path_2775" data-name="Path 2775" d="M3.648-9.088H.064V-11.2h9.76v2.112H6.24V0H3.648ZM18.352,0l-2.16-3.12H13.808V0H11.216V-11.2h4.848a6.222,6.222,0,0,1,2.584.5A3.839,3.839,0,0,1,20.336-9.3a3.879,3.879,0,0,1,.592,2.16,3.8,3.8,0,0,1-.6,2.152,3.8,3.8,0,0,1-1.7,1.384L21.136,0ZM18.3-7.136A1.774,1.774,0,0,0,17.7-8.584a2.722,2.722,0,0,0-1.776-.5H13.808v3.9H15.92A2.692,2.692,0,0,0,17.7-5.7,1.779,1.779,0,0,0,18.3-7.136ZM30.352-2.4h-5.2L24.16,0H21.5L26.5-11.2h2.56L34.064,0h-2.72Zm-.816-1.968L27.76-8.656,25.984-4.368ZM45.5-11.2V0H43.376L37.792-6.8V0h-2.56V-11.2h2.144l5.568,6.8v-6.8ZM51.84.192a9.164,9.164,0,0,1-2.568-.36A6.023,6.023,0,0,1,47.28-1.1l.88-1.952a5.972,5.972,0,0,0,1.712.848,6.43,6.43,0,0,0,1.984.32,3.17,3.17,0,0,0,1.632-.328.991.991,0,0,0,.528-.872.834.834,0,0,0-.312-.664,2.365,2.365,0,0,0-.8-.424q-.488-.16-1.32-.352a18.247,18.247,0,0,1-2.1-.608,3.405,3.405,0,0,1-1.4-.976A2.636,2.636,0,0,1,47.5-7.9a3.117,3.117,0,0,1,.528-1.768,3.552,3.552,0,0,1,1.592-1.256,6.5,6.5,0,0,1,2.6-.464,8.609,8.609,0,0,1,2.1.256,6.192,6.192,0,0,1,1.792.736l-.8,1.968a6.245,6.245,0,0,0-3.1-.88A2.91,2.91,0,0,0,50.6-8.96a1.074,1.074,0,0,0-.52.928.907.907,0,0,0,.6.856,9.42,9.42,0,0,0,1.832.552,18.248,18.248,0,0,1,2.1.608,3.471,3.471,0,0,1,1.4.96,2.574,2.574,0,0,1,.584,1.776,3.058,3.058,0,0,1-.536,1.752A3.6,3.6,0,0,1,54.448-.272,6.555,6.555,0,0,1,51.84.192ZM65.744-2.4h-5.2L59.552,0H56.9l4.992-11.2h2.56L69.456,0h-2.72Zm-.816-1.968L63.152-8.656,61.376-4.368Zm10.9,4.56a6.433,6.433,0,0,1-3.1-.744,5.552,5.552,0,0,1-2.176-2.064A5.687,5.687,0,0,1,69.76-5.6a5.687,5.687,0,0,1,.792-2.984,5.552,5.552,0,0,1,2.176-2.064,6.467,6.467,0,0,1,3.112-.744,6.527,6.527,0,0,1,2.632.512,5.272,5.272,0,0,1,1.976,1.472L78.784-7.872a3.578,3.578,0,0,0-2.816-1.312,3.739,3.739,0,0,0-1.856.456A3.242,3.242,0,0,0,72.84-7.456,3.739,3.739,0,0,0,72.384-5.6a3.739,3.739,0,0,0,.456,1.856,3.242,3.242,0,0,0,1.272,1.272,3.739,3.739,0,0,0,1.856.456,3.561,3.561,0,0,0,2.816-1.328l1.664,1.536A5.187,5.187,0,0,1,78.464-.32,6.585,6.585,0,0,1,75.824.192ZM84.4-9.088H80.816V-11.2h9.76v2.112H86.992V0H84.4ZM91.968-11.2H94.56V0H91.968ZM102.64.192A6.537,6.537,0,0,1,99.5-.56,5.581,5.581,0,0,1,97.3-2.632,5.657,5.657,0,0,1,96.512-5.6,5.657,5.657,0,0,1,97.3-8.568,5.581,5.581,0,0,1,99.5-10.64a6.537,6.537,0,0,1,3.144-.752,6.491,6.491,0,0,1,3.136.752,5.654,5.654,0,0,1,2.192,2.072,5.613,5.613,0,0,1,.8,2.968,5.613,5.613,0,0,1-.8,2.968A5.654,5.654,0,0,1,105.776-.56,6.491,6.491,0,0,1,102.64.192Zm0-2.208a3.554,3.554,0,0,0,1.792-.456,3.272,3.272,0,0,0,1.256-1.272,3.739,3.739,0,0,0,.456-1.856,3.739,3.739,0,0,0-.456-1.856,3.272,3.272,0,0,0-1.256-1.272,3.554,3.554,0,0,0-1.792-.456,3.554,3.554,0,0,0-1.792.456,3.272,3.272,0,0,0-1.256,1.272A3.739,3.739,0,0,0,99.136-5.6a3.739,3.739,0,0,0,.456,1.856,3.272,3.272,0,0,0,1.256,1.272A3.554,3.554,0,0,0,102.64-2.016ZM120.992-11.2V0h-2.128L113.28-6.8V0h-2.56V-11.2h2.144l5.568,6.8v-6.8ZM127.328.192a9.164,9.164,0,0,1-2.568-.36,6.023,6.023,0,0,1-1.992-.936l.88-1.952a5.971,5.971,0,0,0,1.712.848,6.43,6.43,0,0,0,1.984.32,3.17,3.17,0,0,0,1.632-.328.991.991,0,0,0,.528-.872.834.834,0,0,0-.312-.664,2.365,2.365,0,0,0-.8-.424q-.488-.16-1.32-.352a18.247,18.247,0,0,1-2.1-.608,3.405,3.405,0,0,1-1.4-.976,2.636,2.636,0,0,1-.584-1.792,3.117,3.117,0,0,1,.528-1.768,3.552,3.552,0,0,1,1.592-1.256,6.5,6.5,0,0,1,2.6-.464,8.609,8.609,0,0,1,2.1.256,6.192,6.192,0,0,1,1.792.736l-.8,1.968a6.245,6.245,0,0,0-3.1-.88,2.91,2.91,0,0,0-1.608.352,1.074,1.074,0,0,0-.52.928.907.907,0,0,0,.6.856A9.42,9.42,0,0,0,128-6.624a18.247,18.247,0,0,1,2.1.608,3.471,3.471,0,0,1,1.4.96,2.574,2.574,0,0,1,.584,1.776,3.058,3.058,0,0,1-.536,1.752,3.6,3.6,0,0,1-1.608,1.256A6.555,6.555,0,0,1,127.328.192Z" transform="translate(101.739 79.966)" fill="#e67e22"/>
  <g id="Group_1504" data-name="Group 1504" transform="translate(7.139 9.032)">
    <path id="Path_2733" data-name="Path 2733" d="M207.825,444.548l-18.871,8.4,4.916,3.573a34.342,34.342,0,0,1-47.918,7.578,63.333,63.333,0,0,1-5.025-4.465c-10.34-9.175-17.194-31.026-2.3-47.551,12.42-13.774,29.072-18.531,48.384-7.546,19.03,10.825,21.562,36.1,21.633,36.837a42.81,42.81,0,1,0-7.873,20.164l4.888,3.553Z" transform="translate(-123.296 -389.473)" fill="url(#linear-gradient)"/>
    <g id="Group_1502" data-name="Group 1502" transform="translate(30.948 4.062)">
      <path id="Path_2734" data-name="Path 2734" d="M177.631,396.785a8.733,8.733,0,0,1,.413,3.108c-.028.773-.045,1.647-.055,2.562,1.1.531,2.2,1.105,3.313,1.74.485.276.954.568,1.418.862,0-1.66-.033-3.667-.119-5.682A42.684,42.684,0,0,0,177.631,396.785Z" transform="translate(-148.532 -393.192)" fill="#107864"/>
      <path id="Path_2735" data-name="Path 2735" d="M151.3,395.216v5.553a32.339,32.339,0,0,1,11.254-2.29,23.376,23.376,0,0,1,2.892-4.889A43.193,43.193,0,0,0,151.3,395.216Z" transform="translate(-151.3 -393.534)" fill="#107864"/>
    </g>
    <g id="protection" transform="translate(3.912 0)">
      <path id="Path_2743" data-name="Path 2743" d="M99.11,20.458a3.808,3.808,0,0,0-3.329-3.717C78.432,14.5,66.386,4.722,62.071.692a2.574,2.574,0,0,0-3.513,0C54.243,4.722,42.2,14.5,24.849,16.741a3.809,3.809,0,0,0-3.329,3.717c-.171,12.411,1.97,55.063,38.8,64.269C97.14,75.521,99.282,32.869,99.11,20.458Z" transform="translate(-21.511 0)" fill="url(#linear-gradient-2)"/>
      <path id="Path_2744" data-name="Path 2744" d="M261.241,83.111q.387-.143.768-.292.493-.192.975-.393.318-.132.631-.268.494-.214.977-.436l.362-.169q.446-.21.882-.428.634-.316,1.249-.647.588-.317,1.161-.647.657-.38,1.292-.777l.029-.018q1.208-.757,2.34-1.575l.171-.122q.827-.6,1.613-1.234l.157-.125q.446-.361.878-.732c.269-.23.537-.462.8-.7.089-.079.176-.16.263-.24s.184-.167.275-.251q.406-.376.8-.76c.083-.081.167-.161.249-.242q.427-.422.84-.854l.168-.174q.487-.513.956-1.039l.014-.015q.594-.665,1.157-1.35.339-.411.67-.827.65-.823,1.26-1.668l.014-.019c.1-.132.189-.265.284-.4l.124-.174c.066-.094.13-.189.2-.283l.2-.293q.327-.481.642-.967.444-.684.866-1.378.518-.854,1-1.723l.041-.073c.072-.129.142-.258.213-.388.04-.072.08-.144.119-.217q.3-.558.59-1.121l.05-.1q.116-.228.23-.457l.078-.156c.042-.084.082-.169.124-.253q.39-.8.756-1.6.645-1.417,1.215-2.849c.119-.3.236-.6.35-.894q.452-1.179.855-2.361l.051-.147c.051-.15.1-.3.151-.451.02-.059.04-.117.059-.176q.286-.865.547-1.729c.015-.05.031-.1.046-.151q.138-.458.269-.914.147-.509.287-1.017.208-.761.4-1.516.114-.45.223-.9c.032-.132.063-.263.094-.4.017-.073.035-.146.052-.218q.126-.539.244-1.074c.011-.049.022-.1.033-.146q.1-.447.189-.89.052-.249.1-.5.1-.5.2-.995c0-.008,0-.016,0-.024q.088-.463.17-.922.077-.426.149-.848.084-.491.161-.976l.03-.185c.009-.054.017-.108.025-.163.021-.137.043-.274.063-.411q.075-.5.144-.991c.007-.048.014-.1.02-.143.017-.122.033-.244.05-.365l.026-.194c.007-.055.014-.109.022-.164q.1-.751.184-1.484c.124-1.066.227-2.1.312-3.094l0-.045q.032-.373.06-.738c.009-.122.019-.245.028-.366q.063-.846.109-1.648c.012-.2.023-.4.034-.6q.033-.621.056-1.21.007-.174.013-.344c.023-.617.039-1.207.05-1.767,0-.01,0-.021,0-.031q.018-.939.018-1.761v-.033q0-.667-.008-1.25a3.809,3.809,0,0,0-3.33-3.718c-.484-.063-.962-.133-1.438-.207l-.316-.05q-.7-.112-1.379-.239l-.2-.04q-.621-.118-1.231-.249l-.263-.056q-.665-.145-1.319-.3l-.273-.068q-.6-.15-1.2-.31l-.154-.041q-.644-.176-1.274-.366l-.286-.086c-.421-.128-.839-.259-1.251-.394l-.067-.023q-.595-.2-1.177-.4l-.264-.093q-.593-.212-1.174-.434L278,13.3q-.525-.2-1.039-.412l-.2-.082q-.564-.232-1.113-.471l-.238-.1q-.519-.228-1.026-.461l-.093-.042q-.539-.25-1.063-.505l-.237-.116q-.519-.255-1.025-.514l-.1-.052q-.471-.243-.929-.489l-.207-.111q-.483-.261-.951-.524l-.176-.1q-.423-.24-.833-.48l-.147-.086q-.451-.266-.887-.533l-.194-.12c-.285-.176-.567-.352-.842-.527l-.028-.018c-.284-.181-.56-.362-.834-.542l-.183-.121q-.4-.265-.783-.528l-.1-.07q-.35-.241-.687-.48l-.149-.105q-.362-.258-.709-.511l-.141-.1q-.315-.232-.617-.459l-.091-.069q-.329-.249-.642-.493l-.142-.111c-.208-.163-.413-.324-.61-.482l-.012-.01c-.2-.157-.384-.311-.568-.462l-.124-.1c-.181-.149-.357-.3-.526-.44l-.079-.068q-.23-.195-.445-.382l-.09-.078q-.234-.2-.45-.4l-.091-.081-.383-.345-.044-.04c-.132-.121-.257-.236-.377-.348l-.039-.036A2.562,2.562,0,0,0,256,0V84.727q1.225-.306,2.4-.662Q259.859,83.624,261.241,83.111Z" transform="translate(-217.196 0)" fill="url(#linear-gradient-3)"/>
      <path id="Path_2745" data-name="Path 2745" d="M117.719,48.39a3.357,3.357,0,0,0-2.934-3.276A55.286,55.286,0,0,1,85.073,30.969a2.269,2.269,0,0,0-3.1,0A55.287,55.287,0,0,1,52.264,45.114,3.357,3.357,0,0,0,49.33,48.39c-.152,10.939,1.736,48.533,34.194,56.648C115.983,96.923,117.87,59.33,117.719,48.39Z" transform="translate(-44.72 -25.334)" fill="url(#linear-gradient-4)"/>
      <path id="Path_2746" data-name="Path 2746" d="M96.365,116.934l-.383-.1a36.459,36.459,0,0,1-17.5-9.868A43.55,43.55,0,0,1,69.1,91.9,73.818,73.818,0,0,1,64.717,65.47a4.552,4.552,0,0,1,3.956-4.424A46.977,46.977,0,0,0,93.927,49.019a3.583,3.583,0,0,1,4.877,0,46.976,46.976,0,0,0,25.254,12.028,4.553,4.553,0,0,1,3.956,4.424c.141,10.182-1.7,43.976-31.266,51.369Zm0-65.722a.416.416,0,0,0-.285.112,50.212,50.212,0,0,1-27,12.851,1.382,1.382,0,0,0-1.205,1.339c-.132,9.55,1.542,41.135,28.493,48.166,26.951-7.031,28.625-38.616,28.493-48.166h0a1.382,1.382,0,0,0-1.205-1.339,50.211,50.211,0,0,1-27-12.851A.417.417,0,0,0,96.365,51.212Z" transform="translate(-57.561 -40.107)" fill="#fff"/>
      <path id="Path_2747" data-name="Path 2747" d="M290.2,48.39a3.357,3.357,0,0,0-2.934-3.276,55.287,55.287,0,0,1-29.712-14.145,2.262,2.262,0,0,0-1.548-.61v74.68C288.459,96.923,290.347,59.329,290.2,48.39Z" transform="translate(-217.197 -25.334)" fill="url(#linear-gradient-5)"/>
      <path id="Path_2748" data-name="Path 2748" d="M214.438,187.726c-2.729,11.034-8.081,23.039-18.446,31.306l-32.117-32.117a3.01,3.01,0,1,1,4.256-4.256l6.461,6.461a2.043,2.043,0,0,0,2.884,0l17.05-17.049a3.008,3.008,0,0,1,4.256,0h0Z" transform="translate(-139.581 -142.86)" fill="url(#linear-gradient-6)"/>
      <path id="Path_2749" data-name="Path 2749" d="M198.783,172.071a3.01,3.01,0,0,1,0,4.257l-17.05,17.048a8.067,8.067,0,0,1-11.4,0l-6.461-6.461a3.01,3.01,0,0,1,0-4.256h0a3.01,3.01,0,0,1,4.257,0l6.46,6.46a2.042,2.042,0,0,0,2.884,0l17.05-17.048a3.01,3.01,0,0,1,4.256,0Z" transform="translate(-139.58 -142.859)" fill="url(#linear-gradient-7)"/>
    </g>
    <path id="Path_2742" data-name="Path 2742" d="M188.953,452.777l4.916,3.573a34.342,34.342,0,0,1-47.918,7.578,63.355,63.355,0,0,1-5.025-4.465c-10.34-9.175-17.194-31.026-2.3-47.551a43.365,43.365,0,0,1,13.833-10.534,13.915,13.915,0,0,1,1.506-6.245,42.827,42.827,0,1,0,46.8,66.235l4.888,3.553,2.164-20.541Z" transform="translate(-123.296 -389.304)" fill="url(#linear-gradient-8)"/>
  </g>
</svg>
